#N canvas 468 58 602 353 10;
#X obj 95 119 moses 0.9;
#X obj 146 147 t b;
#X obj 146 181 f;
#X obj 181 182 + 1;
#X floatatom 178 213 5 0 0 0 - - -;
#X obj 146 277 outlet bang-every-reached-threshold;
#X obj 303 90 inlet how.many.times;
#X obj 211 30 inlet threshold;
#X obj 95 28 inlet stream;
#X obj 95 87 flow.ascendent;
#X obj 95 58 change;
#X obj 216 182 % 10;
#X obj 303 135 t f f;
#X obj 116 154 bng 15 250 50 0 empty empty empty 17 7 0 10 -262144
-1 -1;
#X obj 104 267 bng 15 250 50 0 empty empty empty 17 7 0 10 -262144
-1 -1;
#X obj 330 163 - 1;
#X obj 146 250 select 9;
#X obj 314 112 r \$0-how.many.times;
#X obj 226 52 r \$0-threshold;
#X obj 211 76 t f;
#N canvas 12 70 318 300 loadbang.and.bypass.init.value 0;
#X obj 60 40 loadbang;
#X obj 60 65 t b b;
#X obj 60 92 f \$1;
#X obj 141 92 f \$2;
#X obj 93 143 != 0;
#X obj 60 172 spigot;
#X obj 60 117 t f f;
#X obj 174 143 != 0;
#X obj 141 172 spigot;
#X obj 141 117 t f f;
#X obj 60 224 s \$0-threshold;
#X obj 141 200 s \$0-how.many.times;
#X connect 0 0 1 0;
#X connect 1 0 2 0;
#X connect 1 1 3 0;
#X connect 2 0 6 0;
#X connect 3 0 9 0;
#X connect 4 0 5 1;
#X connect 5 0 10 0;
#X connect 6 0 5 0;
#X connect 6 1 4 0;
#X connect 7 0 8 1;
#X connect 8 0 11 0;
#X connect 9 0 8 0;
#X connect 9 1 7 0;
#X restore 341 35 pd loadbang.and.bypass.init.value;
#X connect 0 1 1 0;
#X connect 1 0 2 0;
#X connect 2 0 3 0;
#X connect 2 0 4 0;
#X connect 2 0 16 0;
#X connect 3 0 11 0;
#X connect 6 0 12 0;
#X connect 7 0 19 0;
#X connect 8 0 10 0;
#X connect 9 0 0 0;
#X connect 10 0 9 0;
#X connect 11 0 2 1;
#X connect 12 0 11 1;
#X connect 12 1 15 0;
#X connect 13 0 2 0;
#X connect 15 0 16 1;
#X connect 16 0 5 0;
#X connect 16 0 14 0;
#X connect 17 0 12 0;
#X connect 18 0 19 0;
#X connect 19 0 0 1;
