#N canvas 889 373 509 300 10;
#X declare -lib xthsense;
#X obj 395 272 import xthsense;
#X obj 32 120 anlz.rhythm;
#X obj 32 18 phasor~ 300;
#X obj 32 50 anlz.rms~;
#X floatatom 75 85 5 0 0 0 - - -;
#X floatatom 137 86 5 0 0 0 - - -;
#X obj 32 154 bng 15 50 12 0 empty empty empty 17 7 0 10 -262144 -1
-1;
#X text 212 101 ARGUMENT;
#X text 213 229 OUTLET;
#X text 213 163 INLETS;
#X text 212 117 None;
#X text 213 180 Threshold value;
#X text 215 194 X times;
#X text 213 245 Bang;
#X text 211 13 Set a threshold \; When the input stream goes over \;
that threshold X times \, you get a bang \; A simple way to track the
rhythm of a signal.;
#X connect 1 0 6 0;
#X connect 2 0 3 0;
#X connect 3 0 1 0;
#X connect 4 0 1 1;
#X connect 5 0 1 2;
