#N canvas 634 70 450 300 10;
#X obj 102 28 inlet~;
#X obj 101 130 outlet;
#X obj 240 -17 inlet;
#X obj 101 55 snapshot~;
#X obj 169 -18 loadbang;
#X msg 169 2 1;
#X obj 101 101 nbx 8 16 -1e+37 1e+37 0 0 empty empty empty 0 -6 0 8
-1 -262144 -1 0 256;
#X obj 164 101 cnv 16 30 16 empty empty ~ 18 6 0 14 -1 -262144 0;
#X text 108 182 Originally [anal.sig_~] from pdmtl lib.;
#X obj 169 25 metro 20;
#X msg 201 2 0;
#X connect 0 0 3 0;
#X connect 2 0 9 1;
#X connect 3 0 6 0;
#X connect 4 0 5 0;
#X connect 5 0 9 0;
#X connect 6 0 1 0;
#X connect 9 0 3 0;
#X connect 10 0 9 0;
#X coords 0 -1 1 1 94 18 2 100 100;
