#N canvas 922 363 562 398 10;
#X declare -lib xthsense;
#X obj 415 367 import xthsense;
#X obj 25 27 osc~ 20;
#X text 246 31 A scope visualizer. This is a slightly edited \; version
of [anal.scope_~] in pdmtl library.;
#X text 244 86 ARGUMENTS_;
#X text 243 210 OUTLET;
#X text 243 160 Audio input;
#X text 243 144 INLETS;
#X text 244 106 None;
#X text 243 226 None;
#X obj 24 66 anlz.scope~;
#X connect 1 0 9 0;
