#N canvas 839 353 468 325 10;
#X declare -lib xthsense;
#X obj 32 76 anlz.rms~;
#X obj 32 35 osc~ 200;
#X text 194 107 ARGUMENTS_;
#X text 193 231 OUTLET;
#X text 193 181 Audio input;
#X text 193 165 INLETS;
#X text 194 127 None;
#X text 193 196 comment;
#X floatatom 32 113 5 0 0 0 - - -;
#X text 193 247 RMS;
#X text 193 27 A GOP wrap of [env~] \; It reports the RMS of an audio
signal \; Window size 512 samples. RMS is normalized \; between 0 and
1;
#X obj 296 291 import xthsense;
#X connect 0 0 8 0;
#X connect 1 0 0 0;
