#N canvas 213 247 609 485 10;
#X obj 0 18 cnv 15 160 100 empty empty empty 20 12 0 14 -200717 -66577
0;
#N canvas 18 93 452 302 (subpatch) 0;
#X array \$0-tabscope 160 float 0;
#X coords 0 1 159 -1 160 100 1;
#X restore 0 18 graph;
#X obj 398 62 switch~;
#X obj 494 13 inlet on/off;
#X obj 494 36 == 1;
#X obj 398 38 == 1;
#X obj 0 1 cnv 15 159 17 empty empty Scope 3 9 0 8 -1 -262144 0;
#X obj 229 78 inlet~;
#X obj 229 111 pack~;
#X obj 229 158 repack 16;
#X obj 269 223 / 16;
#X obj 269 250 repack 160;
#X obj 269 276 list prepend 0;
#X obj 347 88 int;
#X obj 347 64 / 1.6;
#X obj 112 2 nbx 5 14 2 1e+37 0 0 empty empty empty 0 -6 0 8 -1 -262144
-1 60 256;
#X obj 112 -52 loadbang;
#X obj 347 113 max 2;
#X obj 92 2 tgl 15 0 \$0-s-on-off \$0-r-on-off empty 17 7 0 10 -191407
-1 -1 0 1;
#X obj 112 -27 init 60;
#X obj 229 185 flow.sum;
#X obj 398 12 r \$0-s-on-off;
#X obj 494 59 s \$0-s-on-off;
#X obj 269 302 s \$0-tabscope;
#X connect 3 0 4 0;
#X connect 4 0 22 0;
#X connect 5 0 2 0;
#X connect 7 0 8 0;
#X connect 8 0 9 0;
#X connect 9 0 20 0;
#X connect 10 0 11 0;
#X connect 11 0 12 0;
#X connect 12 0 23 0;
#X connect 13 0 17 0;
#X connect 14 0 13 0;
#X connect 15 0 14 0;
#X connect 16 0 19 0;
#X connect 17 0 9 1;
#X connect 17 0 10 1;
#X connect 19 0 15 0;
#X connect 20 0 10 0;
#X connect 21 0 5 0;
#X coords 0 0 1 1 160 118 1 0 0;
