#N canvas 501 281 320 221 10;
#X obj 84 81 t b b;
#X obj 84 103 timer;
#X obj 84 125 print sampling-period;
#X obj 84 61 inlet;
#X connect 0 0 1 0;
#X connect 0 1 1 1;
#X connect 1 0 2 0;
#X connect 3 0 0 0;
