#N canvas 416 303 571 399 10;
#X obj 105 48 snapshot~;
#X obj 179 13 metro 100;
#X obj 179 -5 tgl 15 0 empty \$0-lookout empty 17 7 0 10 -262144 -1
-1 0 1;
#X floatatom 105 102 5 0 0 0 - - -;
#X obj 150 103 tgl 15 0 \$0-lookout empty lookout 17 7 0 8 -262144
-1 -1 0 1;
#X obj 106 -134 inlet~;
#X obj 169 -158 f \$1;
#X obj 169 -133 t f f f f;
#X obj 239 -134 t f f f f;
#X obj 239 -159 f \$2;
#X obj 169 -202 loadbang;
#X obj 169 -180 t b b;
#X text 353 -135 freq \, Q;
#X obj 132 130 outlet;
#X obj 105 77 t f f;
#X text 353 -155 ARGUMENTS_;
#X obj 287 -21 inlet speed;
#X obj 105 -82 bp~ 200;
#X obj 105 -61 bp~ 200;
#X obj 105 -41 bp~ 200;
#X obj 105 -22 bp~ 200;
#X connect 0 0 14 0;
#X connect 1 0 0 0;
#X connect 2 0 1 0;
#X connect 5 0 17 0;
#X connect 6 0 7 0;
#X connect 7 0 17 1;
#X connect 7 1 18 1;
#X connect 7 2 19 1;
#X connect 7 3 20 1;
#X connect 8 0 17 2;
#X connect 8 1 18 2;
#X connect 8 2 19 2;
#X connect 8 3 20 2;
#X connect 9 0 8 0;
#X connect 10 0 11 0;
#X connect 11 0 6 0;
#X connect 11 1 9 0;
#X connect 14 0 3 0;
#X connect 14 1 13 0;
#X connect 16 0 1 1;
#X connect 17 0 18 0;
#X connect 18 0 19 0;
#X connect 19 0 20 0;
#X connect 20 0 0 0;
#X coords 0 -1 1 1 125 20 2 100 100;
