#N canvas 732 187 253 284 10;
#X obj 63 57 inlet;
#X obj 63 216 outlet;
#X msg 63 161 \$1 \$2;
#X obj 63 189 line3;
#X obj 63 128 pack f f;
#N canvas 72 300 231 296 initialize 0;
#X obj 56 24 loadbang;
#X msg 56 186 500;
#X obj 56 49 float \$1;
#X obj 84 186 f;
#X obj 56 220 outlet;
#X obj 56 115 == 0;
#X obj 56 139 select 1 0;
#X obj 56 72 trigger float float;
#X connect 0 0 2 0;
#X connect 1 0 4 0;
#X connect 2 0 7 0;
#X connect 3 0 4 0;
#X connect 5 0 6 0;
#X connect 6 0 1 0;
#X connect 6 1 3 0;
#X connect 7 0 5 0;
#X connect 7 1 3 1;
#X restore 108 57 pd initialize;
#X connect 0 0 4 0;
#X connect 2 0 3 0;
#X connect 3 0 1 0;
#X connect 4 0 2 0;
#X connect 5 0 4 1;
