#N canvas 420 159 450 300 10;
#X declare -lib xthsense;
#X text 212 38 ARGUMENT;
#X text 213 54 Time to reach target value;
#X text 214 108 INLET;
#X text 214 174 OUTLET;
#X msg 47 42 1;
#X floatatom 47 123 5 0 0 0 - - -;
#X floatatom 132 43 5 0 0 0 - - -;
#X text 214 125 Target value (start counting);
#X text 214 190 Floats ramp;
#X msg 88 42 0;
#X obj 47 80 count.line 700;
#X text 213 72 (default 200ms);
#X obj 343 270 import xthsense;
#X connect 4 0 10 0;
#X connect 6 0 10 0;
#X connect 9 0 10 0;
#X connect 10 0 5 0;
