#N canvas 228 181 592 433 10;
#X obj 42 225 efx.voices~;
#X text 289 37 A voices generator. Still experimental.;
#X text 286 102 I/O;
#X text 286 116 Mono > Stereo;
#X obj 42 25 osc~ 400;
#X obj 113 47 gui.ead~;
#X obj 113 21 bng 15 250 50 0 empty empty empty 17 7 0 10 -262144 -1
-1;
#X obj 43 139 *~;
#X obj 43 395 dac~;
#X obj 42 258 mix.ch.stereo~;
#X floatatom 170 160 5 0 0 1 Tonic - -;
#X floatatom 172 203 5 -1 1 1 Mix - -;
#X msg 109 140 2 14 9;
#X msg 104 115 14 6 9;
#X text 288 266 OUTLETS;
#X text 285 164 INLETS;
#X text 286 184 Audio signal;
#X text 287 200 Voices semitones (list of 3);
#X text 286 215 Tonic;
#X text 287 229 Mix -1 1;
#X text 288 284 Stereo out;
#X connect 0 0 9 0;
#X connect 0 1 9 1;
#X connect 4 0 7 0;
#X connect 5 0 7 1;
#X connect 6 0 5 0;
#X connect 7 0 0 0;
#X connect 9 0 8 0;
#X connect 9 1 8 1;
#X connect 10 0 0 2;
#X connect 11 0 0 3;
#X connect 12 0 0 1;
#X connect 13 0 0 1;
