#N canvas 679 237 807 409 10;
#X obj -261 114 inlet~;
#X obj -308 113 inlet~;
#N canvas 698 189 528 427 dsp 0;
#X obj 46 30 inlet~;
#X obj 395 67 inlet;
#X obj 395 105 switch~;
#X obj 441 54 loadbang;
#X msg 441 76 1;
#X obj 46 381 outlet~;
#X msg 187 42 roomsize \$1;
#X msg 187 87 damping \$1;
#X msg 187 131 width \$1;
#X msg 188 174 wet \$1;
#X msg 187 215 dry \$1;
#X msg 255 283 freeze \$1;
#X obj 269 260 tgl 15 0 empty empty empty 0 -6 0 8 -262144 -1 -1 0
1;
#X obj 144 242 t a;
#X obj 187 21 r \$0-roomsize;
#X obj 255 239 r \$0-freeze;
#X obj 187 196 r \$0-dry;
#X obj 188 153 r \$0-wet;
#X obj 187 111 r \$0-width;
#X obj 187 67 r \$0-damping;
#X obj 97 30 inlet~;
#X obj 99 381 outlet~;
#X obj 46 357 freeverb~;
#X connect 0 0 22 0;
#X connect 1 0 2 0;
#X connect 3 0 4 0;
#X connect 4 0 2 0;
#X connect 6 0 13 0;
#X connect 7 0 13 0;
#X connect 8 0 13 0;
#X connect 9 0 13 0;
#X connect 10 0 13 0;
#X connect 11 0 22 0;
#X connect 12 0 11 0;
#X connect 13 0 22 0;
#X connect 14 0 6 0;
#X connect 15 0 11 0;
#X connect 16 0 10 0;
#X connect 17 0 9 0;
#X connect 18 0 8 0;
#X connect 19 0 7 0;
#X connect 20 0 22 1;
#X connect 22 0 5 0;
#X connect 22 1 21 0;
#X restore -243 182 pd dsp;
#X obj -177 190 r \$0-mix;
#X obj -309 296 outlet~;
#X obj -144 257 mix.switchoglitch 12;
#X obj -309 223 mix.xfade.curve.stereo~ 1 -1;
#X obj -253 296 outlet~;
#X obj 101 100 cnv 15 156 15 empty empty Freeverb 5 8 0 8 -1 -162280
0;
#X obj 101 117 gui.slider Rsize 1.1 0.1;
#X obj 101 134 gui.slider damp 2 0;
#X obj 101 151 gui.slider width 1 0;
#X obj 101 168 gui.slider wet 1 0;
#X obj 101 185 gui.slider dry 1 0;
#X obj -34 72 r \$1/fvrb.rsize;
#X obj -34 92 r \$1/fvrb.damp;
#X obj -34 112 r \$1/frvb.width;
#X obj -34 131 r \$1/frvb.wet;
#X obj -33 151 r \$1/frvb.dry;
#X obj 315 208 xsssad \$1/fvrb.rsize;
#X obj 315 228 xsssad \$1/fvrb.damp;
#X obj 315 248 xsssad \$1/frvb.width;
#X obj 315 267 xsssad \$1/frvb.wet;
#X obj 316 287 xsssad \$1/frvb.dry;
#X obj 101 202 gui.slider mix 1 -1;
#X obj -33 191 r \$1/frvb.friz;
#X obj -33 171 r \$1/frvb.mix;
#X obj 316 327 xsssad \$1/frvb.friz;
#X obj 316 307 xsssad \$1/frvb.mix;
#X obj 101 249 s \$0-roomsize;
#X obj 101 270 s \$0-damping;
#X obj 101 289 s \$0-width;
#X obj 101 308 s \$0-wet;
#X obj 101 328 s \$0-dry;
#X obj 101 370 s \$0-freeze;
#X obj 101 348 s \$0-mix;
#X obj 287 44 inlet mix;
#N canvas 127 251 450 300 workaround 0;
#X obj 107 52 noise~;
#X obj 154 111 dbtorms;
#X msg 154 83 1;
#X obj 185 84 init 1;
#X obj 107 147 *~ 0.01;
#X floatatom 171 137 12 0 0 0 - - -;
#X obj 108 181 outlet~;
#X connect 0 0 4 0;
#X connect 1 0 4 1;
#X connect 1 0 5 0;
#X connect 2 0 1 0;
#X connect 3 0 1 0;
#X connect 4 0 6 0;
#X restore -170 74 pd workaround;
#X connect 0 0 2 1;
#X connect 0 0 6 1;
#X connect 1 0 2 0;
#X connect 1 0 6 0;
#X connect 2 0 6 2;
#X connect 2 1 6 3;
#X connect 3 0 6 4;
#X connect 5 0 2 2;
#X connect 6 0 4 0;
#X connect 6 1 7 0;
#X connect 6 3 5 0;
#X connect 9 0 29 0;
#X connect 9 1 19 1;
#X connect 10 0 30 0;
#X connect 10 1 20 1;
#X connect 11 0 31 0;
#X connect 11 1 21 1;
#X connect 12 0 32 0;
#X connect 12 1 22 1;
#X connect 13 0 33 0;
#X connect 13 1 23 1;
#X connect 14 0 9 0;
#X connect 15 0 10 0;
#X connect 16 0 11 0;
#X connect 17 0 12 0;
#X connect 18 0 13 0;
#X connect 19 0 9 0;
#X connect 20 0 10 0;
#X connect 21 0 11 0;
#X connect 22 0 12 0;
#X connect 23 0 13 0;
#X connect 24 0 35 0;
#X connect 24 1 28 1;
#X connect 26 0 24 0;
#X connect 28 0 24 0;
#X connect 36 0 24 0;
#X connect 37 0 2 0;
#X connect 37 0 2 1;
#X connect 37 0 6 0;
#X connect 37 0 6 1;
#X coords 0 -1 1 1 157 117 2 100 100;
