#N canvas 619 150 553 382 10;
#X declare -lib xthsense;
#X declare -lib pdmtl;
#X declare -lib sssad-lib;
#X obj 433 303 import xthsense;
#X obj 32 64 efx.pshift.tape~;
#X obj 32 280 dac~;
#X obj 31 143 mix.ch.stereo~;
#X obj 31 -14 osc~ 400;
#X obj 205 147 import pdmtl;
#X obj 285 147 import sssad-lib;
#X text 202 61 I/O;
#X text 202 79 Mono > Stereo;
#X text 201 115 Needs pdmtl \, sssad-lib;
#X text 200 -8 A wrap for a rotating-tape-head syle pitch shifter;
#X text 201 9 From 3.audio.examples > G09.pitchshift.;
#X floatatom 125 33 5 0 0 0 - - -;
#X connect 1 0 3 0;
#X connect 1 1 3 1;
#X connect 3 0 2 0;
#X connect 3 1 2 1;
#X connect 4 0 1 0;
#X connect 12 0 1 1;
