#N canvas 759 267 248 469 10;
#X obj 50 30 inlet~;
#X obj 50 377 outlet~;
#X obj 49 215 demux~;
#X obj 115 377 outlet~;
#X obj 102 61 loadbang;
#X obj 102 103 symbol \$1;
#X msg 102 168 0;
#X msg 153 169 1;
#X obj 49 243 hip~ \$2;
#X obj 49 263 hip~ \$2;
#X obj 49 283 hip~ \$2;
#X obj 49 303 hip~ \$2;
#X obj 49 343 hip~ \$2;
#X obj 49 323 hip~ \$2;
#X obj 114 243 lop~ \$2;
#X obj 114 263 lop~ \$2;
#X obj 114 283 lop~ \$2;
#X obj 113 303 lop~ \$2;
#X obj 113 323 lop~ \$2;
#X obj 114 343 lop~ \$2;
#X obj 102 82 del 10;
#X obj 102 147 route hip;
#X msg 102 124 \$1;
#X connect 0 0 2 0;
#X connect 2 0 8 0;
#X connect 2 1 14 0;
#X connect 4 0 20 0;
#X connect 5 0 22 0;
#X connect 6 0 2 0;
#X connect 7 0 2 0;
#X connect 8 0 9 0;
#X connect 9 0 10 0;
#X connect 10 0 11 0;
#X connect 11 0 13 0;
#X connect 12 0 1 0;
#X connect 13 0 12 0;
#X connect 14 0 15 0;
#X connect 15 0 16 0;
#X connect 16 0 17 0;
#X connect 17 0 18 0;
#X connect 18 0 19 0;
#X connect 19 0 3 0;
#X connect 20 0 5 0;
#X connect 21 0 6 0;
#X connect 21 1 7 0;
#X connect 22 0 21 0;
