#N canvas 720 153 610 435 10;
#N canvas 12 70 732 603 apdist 0;
#X obj 92 329 rpole~;
#X obj 92 304 rzero_rev~;
#X obj 92 59 inlet~;
#X obj 92 354 outlet~;
#X obj 158 121 lop~ 500;
#X obj 159 262 clip~ -0.9999 0.9999;
#X obj 211 62 inlet;
#X obj 274 61 inlet;
#X obj 274 160 pack 0 10;
#X obj 274 182 line~;
#X obj 158 234 *~;
#X text 211 40 lop;
#X text 274 41 drive;
#X connect 0 0 3 0;
#X connect 1 0 0 0;
#X connect 2 0 1 0;
#X connect 2 0 4 0;
#X connect 4 0 10 0;
#X connect 5 0 0 1;
#X connect 5 0 1 1;
#X connect 6 0 4 1;
#X connect 7 0 8 0;
#X connect 8 0 9 0;
#X connect 9 0 10 1;
#X connect 10 0 5 0;
#X restore 88 -40 pd apdist;
#X obj 88 -132 inlet~;
#X obj 86 67 outlet~;
#X obj 305 -144 inlet;
#X text 58 -172 apdist: all pass distortion;
#X obj 305 -118 u_dispatch \$0 lop;
#X obj 305 -97 u_dispatch \$0 drive;
#X obj 305 -75 u_dispatch \$0 dry;
#X obj 87 35 c_xfade;
#X obj 364 -144 u_loader e_apdist-\$1 \$0;
#X obj 118 -90 r \$0-lop;
#X obj 148 -63 r \$0-drive;
#X obj 133 -9 r \$0-dry;
#X obj 133 11 pack 0 10;
#N canvas 234 221 627 317 LICENSE-BSD 0;
#X text 121 56 This software is copyrighted by Miller Puckette \, Reality
Jockey Ltd. and others. The terms (the "Standard Improved BSD License")
apply to all files associated with the software unless explicitly disclaimed
in individual files.;
#X text 123 148 See the file LICENSE.txt for the full license text.
;
#X restore 475 -190 pd LICENSE-BSD;
#X connect 0 0 8 0;
#X connect 1 0 0 0;
#X connect 1 0 8 1;
#X connect 3 0 5 0;
#X connect 5 0 6 0;
#X connect 6 0 7 0;
#X connect 8 0 2 0;
#X connect 10 0 0 1;
#X connect 11 0 0 2;
#X connect 12 0 13 0;
#X connect 13 0 8 2;
