#N canvas 638 193 747 446 10;
#X declare -lib pdmtl;
#X obj -126 77 inlet~;
#N canvas 490 196 610 557 dsp 0;
#X obj 46 92 inlet~;
#X obj 46 445 outlet~;
#X obj 410 102 inlet;
#X obj 410 140 switch~;
#X obj 456 89 loadbang;
#X msg 456 111 1;
#X obj 48 214 *~ 0.3;
#X obj 157 220 *~ 0.3;
#X msg 290 136 0;
#X msg 322 136 0.3;
#X obj 290 112 sel 0;
#X obj 249 224 mtof;
#X obj 46 301 e_beequad;
#X obj 249 245 u_bandpass2q 1000 2;
#X obj 70 322 e_beequad;
#X obj 156 477 outlet~;
#X obj 102 92 inlet~;
#X obj 291 90 r \$0-dist.onoff;
#X obj 249 201 r \$0-bp.freq;
#X obj 360 223 r \$0-bp.q;
#X obj 156 329 r \$0-pitch;
#X obj 156 360 t f f;
#X obj 47 278 rev3~ 99 90;
#X obj 69 381 efx.pshift.ssb~;
#X obj 46 414 efx.pshift.ssb~;
#X msg 172 58 fuzz \$1;
#X msg 198 101 clip \$1;
#X floatatom 197 80 5 0 0 0 - - -;
#X floatatom 173 32 5 0 0 0 - - -;
#X obj 47 143 fx.distortion.fuzz~;
#X obj 234 42 init 2;
#X obj 177 8 init 0.8;
#X connect 0 0 29 0;
#X connect 2 0 3 0;
#X connect 4 0 5 0;
#X connect 5 0 3 0;
#X connect 6 0 22 0;
#X connect 7 0 22 1;
#X connect 8 0 6 1;
#X connect 8 0 7 1;
#X connect 9 0 6 1;
#X connect 9 0 7 1;
#X connect 10 0 8 0;
#X connect 10 1 9 0;
#X connect 11 0 13 0;
#X connect 12 0 24 0;
#X connect 13 0 12 1;
#X connect 13 0 14 1;
#X connect 14 0 23 0;
#X connect 16 0 29 1;
#X connect 17 0 10 0;
#X connect 18 0 11 0;
#X connect 19 0 13 1;
#X connect 20 0 21 0;
#X connect 21 0 23 1;
#X connect 21 1 24 1;
#X connect 22 0 12 0;
#X connect 22 1 14 0;
#X connect 23 1 15 0;
#X connect 24 0 1 0;
#X connect 25 0 29 2;
#X connect 26 0 29 2;
#X connect 27 0 26 0;
#X connect 28 0 25 0;
#X connect 29 0 6 0;
#X connect 29 1 7 0;
#X connect 30 0 26 0;
#X connect 31 0 25 0;
#X restore -62 160 pd dsp;
#X obj 13 160 r \$0-mix;
#X obj 338 112 s \$0-bp.freq;
#X obj 338 132 s \$0-bp.q;
#X obj 338 92 s \$0-dist.onoff;
#X obj 101 185 cnv 15 155 15 \$0-record empty empty 20 12 0 14 -1 -228856
0;
#X obj 102 185 tgl 15 0 \$0-start.rnd empty empty 17 7 0 10 -191407
-1 -1 110.323 110.323;
#X obj 340 173 s \$0-mix;
#X obj 339 152 s \$0-pitch;
#X obj -128 230 *~ 1.2;
#X obj -127 266 outlet~;
#X obj -66 265 outlet~;
#X obj -66 230 *~ 1.2;
#X obj 185 28 inlet filt;
#X obj 310 28 inlet pitch;
#X obj 255 29 inlet q;
#X obj 385 30 inlet pitch;
#X obj 6 40 loadbang;
#X msg 7 64 0;
#X obj 470 31 inlet mix;
#X obj 101 117 gui.slider filt 127 0;
#X obj 60 -76 r \$1/gru.filt;
#X obj 59 -52 r \$1/gru.q.filt;
#X obj 59 -28 r \$1/gru.pitch;
#X obj 59 -4 r \$1/gru.mix;
#X obj 101 134 gui.slider q.filt 50 0;
#X obj 101 151 gui.slider pitch 400 -400;
#X obj 101 168 gui.slider mix 1 -1;
#X obj 100 100 cnv 15 156 15 empty empty Grunger 5 8 0 8 -1 -162280
0;
#X obj 273 225 xsssad \$1/gru.filt;
#X obj 272 249 xsssad \$1/gru.q.filt;
#X obj 272 273 xsssad \$1/gru.pitch;
#X obj 272 297 xsssad \$1/gru.mix;
#X obj 273 321 xsssad \$1/gru.mix;
#X obj -93 97 inlet~;
#X floatatom 3 228 5 0 0 0 - - -;
#X floatatom 51 229 5 0 0 0 - - -;
#X obj 265 -29 import pdmtl;
#X obj -127 192 mix.xfade.curve.stereo~ 1 -1;
#X connect 0 0 1 0;
#X connect 0 0 39 0;
#X connect 1 0 39 2;
#X connect 1 1 39 3;
#X connect 2 0 39 4;
#X connect 7 0 5 0;
#X connect 7 0 34 1;
#X connect 10 0 11 0;
#X connect 13 0 12 0;
#X connect 14 0 21 0;
#X connect 15 0 27 0;
#X connect 16 0 26 0;
#X connect 17 0 28 0;
#X connect 18 0 19 0;
#X connect 19 0 7 0;
#X connect 20 0 7 0;
#X connect 21 1 3 0;
#X connect 21 1 30 1;
#X connect 22 0 21 0;
#X connect 23 0 26 0;
#X connect 24 0 27 0;
#X connect 25 0 28 0;
#X connect 26 0 4 0;
#X connect 26 1 31 1;
#X connect 27 0 9 0;
#X connect 27 1 32 1;
#X connect 28 0 8 0;
#X connect 28 1 33 1;
#X connect 30 0 21 0;
#X connect 31 0 26 0;
#X connect 32 0 27 0;
#X connect 33 0 28 0;
#X connect 34 0 7 0;
#X connect 35 0 1 1;
#X connect 35 0 39 1;
#X connect 39 0 10 0;
#X connect 39 1 13 0;
#X connect 39 2 36 0;
#X connect 39 3 37 0;
#X coords 0 -1 1 1 157 101 2 100 100;
