#N canvas 456 77 1063 770 10;
#X obj 448 383 hip~ 5;
#X floatatom 450 -99 4 0 100 0 - - -;
#X obj 449 330 *~;
#X floatatom 449 -23 0 0 200 0 - - -;
#X obj 449 232 +~;
#X obj 448 184 samphold~;
#X obj 449 208 *~;
#X floatatom 799 -104 0 0 0 0 - - -;
#X text 566 -64 chunk size;
#X text 563 -50 in seconds;
#X obj 811 -42 t b f;
#X obj 614 263 -~ 0.5;
#X obj 614 287 *~ 0.5;
#X obj 614 310 cos~;
#X obj 799 38 phasor~;
#X obj 886 57 +~ 0.5;
#X obj 887 83 wrap~;
#X obj 448 359 +~;
#X text 833 -103 <-- transposition \, halftones/10;
#X obj 450 -79 * 0.001;
#X obj 449 69 phasor~;
#X obj 449 256 *~ 44100;
#X obj 448 282 +~ 1;
#X floatatom 807 15 5 0 0 0 - - -;
#X obj 924 -43 t b f;
#X obj 449 0 * 0.01;
#X obj 700 339 *~;
#X obj 700 241 +~;
#X obj 699 193 samphold~;
#X obj 700 217 *~;
#X obj 865 272 -~ 0.5;
#X obj 865 296 *~ 0.5;
#X obj 865 319 cos~;
#X obj 700 265 *~ 44100;
#X obj 699 291 +~ 1;
#X text 479 -23 <-- precession \, percent;
#X obj 450 -143 loadbang;
#X text 600 -143 TIME COMPRESSION/EXPANSION BY LOOPED SAMPLING;
#X msg 450 -121 25;
#X floatatom 581 46 4 0 900 0 - - -;
#X obj 581 66 * 0.001;
#X text 490 -99 <-- chunk size (msec);
#X obj 581 91 t b f;
#X obj 581 0 loadbang;
#X text 624 42 <-- loop length;
#X text 665 57 (msec);
#X obj 449 93 *~;
#X obj 449 45 /;
#X obj 336 -54 r \$0-comp.percent;
#X obj 450 -56 s \$0-chunk-size;
#X obj 811 -67 r \$0-chunk-size;
#X obj 457 23 s \$0-precession;
#X obj 924 -68 r \$0-precession;
#X obj 449 117 s~ \$0-read-pt;
#X obj 487 232 r~ \$0-read-pt;
#X obj 536 185 r~ \$0-phase;
#X obj 484 209 r~ \$0-phase;
#X obj 614 239 r~ \$0-phase;
#X obj 787 194 r~ \$0-phase2;
#X obj 865 248 r~ \$0-phase2;
#X obj 738 241 r~ \$0-read-pt;
#X obj 735 218 r~ \$0-phase2;
#X obj 699 168 r \$0-chunk-size;
#X obj 799 64 s~ \$0-phase;
#X obj 887 108 s~ \$0-phase2;
#X obj 683 -103 r \$0-trasposition;
#X obj 448 159 r \$0-chunk-size;
#X obj 153 -210 inlet~;
#X obj 243 -208 inlet tgl-write;
#X msg 248 -62 stop;
#X obj 243 -183 t f f;
#X obj 248 -118 sel 0 1;
#X msg 267 -95 start;
#X obj 125 -18 tabwrite~ \$0-source;
#X obj 125 -313 bng 15 250 50 0 empty \$0-record empty 17 7 0 10 -209550
-1 -1;
#X obj 126 6 table \$0-source 88200;
#X obj 101 151 cnv 15 155 15 \$0-record empty empty 20 12 0 14 -1 -228856
0;
#X obj 108 151 bng 15 250 50 0 \$0-record empty empty 17 7 0 10 -221317
-1 -1;
#X obj 621 -205 inlet bang-record;
#X obj 621 -183 s \$0-bang-record;
#X obj 260 133 r \$0-bang-record;
#X obj 700 315 tabread4~ \$0-source;
#X obj 448 306 tabread4~ \$0-source;
#X obj 260 90 s \$0-comp.percent;
#X obj 260 112 s \$0-trasposition;
#X obj 449 411 outlet~;
#X obj 370 198 loadbang;
#X floatatom 172 300 5 0 0 0 - - -;
#X obj 433 -193 inlet comp;
#X obj 506 -193 inlet trsp;
#X obj 243 -156 utils.zipper~;
#X obj 100 117 gui.slider comp 3000 0;
#X obj 100 134 gui.slider trsp 1000 0;
#X obj 23 34 r \$1/tstre.comp;
#X obj 23 54 r \$1/tstre.trsp;
#X obj 153 -110 *~;
#X obj 182 -240 vline~;
#X obj 125 -290 t b b;
#X obj 683 -81 int;
#X obj 23 75 r \$1/tstre.bng;
#X obj 100 100 cnv 15 156 15 empty empty Tstretch 5 8 0 8 -1 -162280
0;
#X obj 217 234 xsssad \$1/tstre.comp;
#X obj 217 258 xsssad \$1/tstre.trsp;
#X msg 581 24 2000;
#X floatatom 295 35 5 0 0 0 - - -;
#X obj 799 -10 expr (pow(2 \, $f1/120)-$f3)/$f2;
#X obj 780 -270 loadbang;
#X obj 780 -247 f \$0;
#X obj 780 -225 makefilename %s;
#X obj 750 -269 bng 15 250 50 0 empty empty empty 17 7 0 10 -262144
-1 -1;
#X msg 780 -203 \; \$1-source const 0;
#X text 777 -299 RESET TABLE SOURCE;
#X obj 871 -272 inlet reset-table-source;
#X text 340 -267 old last parameter was 1700;
#X msg 182 -265 0 100 \, 1 500 \, 0 100 1700;
#X connect 0 0 85 0;
#X connect 1 0 19 0;
#X connect 2 0 17 0;
#X connect 3 0 25 0;
#X connect 4 0 21 0;
#X connect 5 0 6 0;
#X connect 6 0 4 0;
#X connect 7 0 105 0;
#X connect 10 0 105 0;
#X connect 10 1 105 1;
#X connect 11 0 12 0;
#X connect 12 0 13 0;
#X connect 13 0 2 1;
#X connect 14 0 15 0;
#X connect 14 0 63 0;
#X connect 15 0 16 0;
#X connect 16 0 64 0;
#X connect 17 0 0 0;
#X connect 19 0 49 0;
#X connect 20 0 46 0;
#X connect 21 0 22 0;
#X connect 22 0 82 0;
#X connect 24 0 105 0;
#X connect 24 1 105 2;
#X connect 25 0 47 0;
#X connect 25 0 51 0;
#X connect 26 0 17 1;
#X connect 27 0 33 0;
#X connect 28 0 29 0;
#X connect 29 0 27 0;
#X connect 30 0 31 0;
#X connect 31 0 32 0;
#X connect 32 0 26 1;
#X connect 33 0 34 0;
#X connect 34 0 81 0;
#X connect 36 0 38 0;
#X connect 38 0 1 0;
#X connect 39 0 40 0;
#X connect 40 0 42 0;
#X connect 40 0 46 1;
#X connect 42 0 47 0;
#X connect 42 1 47 1;
#X connect 43 0 103 0;
#X connect 46 0 53 0;
#X connect 47 0 20 0;
#X connect 48 0 25 0;
#X connect 50 0 10 0;
#X connect 52 0 24 0;
#X connect 54 0 4 1;
#X connect 55 0 5 1;
#X connect 56 0 6 1;
#X connect 57 0 11 0;
#X connect 58 0 28 1;
#X connect 59 0 30 0;
#X connect 60 0 27 1;
#X connect 61 0 29 1;
#X connect 62 0 28 0;
#X connect 65 0 98 0;
#X connect 66 0 5 0;
#X connect 67 0 95 0;
#X connect 68 0 70 0;
#X connect 70 0 90 0;
#X connect 70 1 71 0;
#X connect 71 0 69 0;
#X connect 71 1 72 0;
#X connect 74 0 97 0;
#X connect 78 0 79 0;
#X connect 80 0 77 0;
#X connect 81 0 26 0;
#X connect 82 0 2 0;
#X connect 86 0 101 2;
#X connect 86 0 102 2;
#X connect 88 0 91 0;
#X connect 89 0 92 0;
#X connect 90 0 95 1;
#X connect 91 0 83 0;
#X connect 91 1 101 1;
#X connect 92 0 84 0;
#X connect 92 1 102 1;
#X connect 93 0 91 0;
#X connect 94 0 92 0;
#X connect 95 0 73 0;
#X connect 96 0 95 1;
#X connect 97 0 73 0;
#X connect 97 1 114 0;
#X connect 98 0 105 0;
#X connect 99 0 77 0;
#X connect 101 0 91 0;
#X connect 102 0 87 0;
#X connect 102 0 92 0;
#X connect 103 0 39 0;
#X connect 104 0 83 0;
#X connect 105 0 14 0;
#X connect 105 0 23 0;
#X connect 106 0 107 0;
#X connect 107 0 108 0;
#X connect 108 0 110 0;
#X connect 109 0 107 0;
#X connect 112 0 107 0;
#X connect 114 0 96 0;
#X coords 0 -1 1 1 156 66 2 100 100;
