#N canvas 97 214 556 368 10;
#X declare -lib pdmtl;
#X declare -lib sssad-lib;
#X declare -lib mrpeach;
#X declare -lib xthsense;
#X obj 238 155 import pdmtl;
#X obj 318 155 import sssad-lib;
#X obj 30 82 efx.gui.chorus~;
#X text 235 69 I/O;
#X text 235 87 Mono > Stereo;
#X text 234 32 GOP and sssad wrap for a chorus object;
#X obj 30 323 dac~;
#X obj 29 186 mix.ch.stereo~;
#X obj 29 29 osc~ 400;
#X text 234 123 Needs pdmtl \, sssad-lib;
#X obj 424 341 import xthsense;
#X connect 2 0 7 0;
#X connect 2 1 7 1;
#X connect 7 0 6 0;
#X connect 7 1 6 1;
#X connect 8 0 2 0;
#X coords 0 0 1 1 156 83 0;
