#N canvas 114 172 658 423 10;
#X declare -lib pdmtl;
#X declare -lib sssad-lib;
#X declare -lib xthsense;
#X obj -108 114 efx.gui.pshift.ssb~;
#X obj 102 272 import pdmtl;
#X obj 182 272 import sssad-lib;
#X text 99 186 I/O;
#X obj -106 360 dac~;
#X obj -107 223 mix.ch.stereo~;
#X obj -107 66 osc~ 400;
#X text 98 240 Needs pdmtl \, sssad-lib;
#X text 99 204 Stereo > Stereo;
#X text 97 116 From Pd audio example H09.ssb.modulation;
#X text 98 81 GOP and sssad wrap for a single sideband modulation aka
pitch shifting;
#X obj 435 385 import xthsense;
#X connect 0 0 5 0;
#X connect 0 1 5 1;
#X connect 5 0 4 0;
#X connect 5 1 4 1;
#X connect 6 0 0 0;
#X connect 6 0 0 1;
#X coords 0 0 1 1 156 50 0;
