#N canvas 6 47 450 300 10;
#X obj 129 76 inlet~;
#X obj 114 237 *~;
#X obj 344 79 inlet;
#X obj 113 262 outlet~;
#X text 66 47 NEEDS ZEXY;
#X text 55 29 PUNCH BOOSTS THE AMPLITUDE NEVER EXCEEDING 1 or -1;
#X obj 58 171 limiter~;
#X obj 130 212 z~ 1;
#X obj 129 143 *~ 2;
#X connect 0 0 8 0;
#X connect 1 0 3 0;
#X connect 2 0 8 1;
#X connect 6 0 1 0;
#X connect 7 0 1 1;
#X connect 8 0 6 0;
#X connect 8 0 7 0;
