#N canvas 78 154 634 441 10;
#X declare -lib xthsense;
#X obj 38 -129 efx.gui.granular.live~;
#X text 267 -142 I/O;
#X text 267 -124 Mono > Stereo;
#X obj 40 129 dac~;
#X obj 39 -8 mix.ch.stereo~;
#X obj 37 -281 osc~ 400;
#X obj 38 -230 *~;
#X obj 75 -258 osc~ 420;
#X obj 53 -203 tgl 15 0 empty empty empty 17 7 0 10 -262144 -1 -1 1
1;
#X obj 53 -184 utils.zipper~;
#X obj 37 -158 *~;
#X text 267 -257 GOP and sssad wrap for real time granular synthesis
;
#X obj 493 110 import xthsense;
#X text 265 -217 HOWTO \; First \, click the red bang to record an
input \; Then activate the grey toggle \; Modify parameters.;
#X connect 0 0 4 0;
#X connect 0 1 4 1;
#X connect 4 0 3 0;
#X connect 4 1 3 1;
#X connect 5 0 6 0;
#X connect 6 0 10 0;
#X connect 7 0 6 1;
#X connect 8 0 9 0;
#X connect 9 0 10 1;
#X connect 10 0 0 0;
#X coords 1332 0 1331 1 100 100 0;
