#N canvas 578 140 1009 699 10;
#X obj 109 531 outlet~;
#X obj 300 526 outlet~;
#X obj 946 18 switch~;
#X obj 76 -109 inlet~;
#X obj 250 -116 inlet~;
#X obj 326 -4 * -1;
#X obj 396 -66 * 0.99;
#X obj 396 -38 + 0.01;
#X obj 585 270 t f f;
#X obj 585 293 *;
#X obj 585 317 * 20000;
#X obj 100 62 -~;
#X obj 692 8 * 10;
#X obj 156 147 clip~ -1 1;
#X obj 141 184 -~;
#X obj 315 92 -~;
#X obj 315 151 clip~ -1 1;
#X obj 300 184 -~;
#X obj 429 159 * 4;
#X obj 297 -68 * 8;
#X obj 252 329 -~;
#X obj 76 331 -~;
#X obj 814 499 != 1;
#X obj 301 478 lop~ 16000;
#X obj 109 488 lop~ 16000;
#X obj 251 -32 *~ 3.2;
#X obj 77 -38 *~ 3.2;
#X obj 116 -7 clip~ -0.307 0.307;
#X obj 299 30 clip~ -0.307 0.307;
#X obj 316 121 *~ 1;
#X obj 99 93 *~ 1;
#X obj 338 361 *~ 0;
#X obj 300 366 *~ 1;
#X obj 158 355 *~ 0;
#X obj 110 365 *~ 1;
#X obj 301 291 *~ 1;
#X obj 251 274 *~ 1;
#X obj 110 297 *~ 1;
#X obj 77 286 *~ 1;
#X obj 312 -90 hsl 75 15 0 1 0 0 \$2-bon-distort-pregain \$2-bon-distort-pregainr
pregain 12 8 0 8 -228864 -62784 -355 0 1;
#X obj 413 -87 hsl 75 15 0 1 0 0 \$2-bon-distort-clip \$2-bon-distort-clipr
clip 12 8 0 8 -237184 -62784 -355 7400 1;
#X obj 456 133 hsl 75 15 0 1 0 0 \$2-bon-distort-postgain \$2-bon-distort-postgainr
postgain 12 8 0 8 -241344 -62784 -355 0 1;
#X obj 614 235 hsl 75 15 0 1 0 0 \$2-bon-distort-lopass \$2-bon-distort-lopassr
lopass 12 8 0 8 -199744 -62784 -355 7400 1;
#X obj 715 -20 hsl 60 15 0 1 0 0 \$2-bon-distort-fuzz \$2-bon-distort-fuzzr
fuzz 12 8 0 8 -249664 -62784 -355 0 1;
#X obj 816 455 tgl 15 0 \$2-bon-distort-difference \$2-bon-distort-differencer
d 4 8 0 8 -228992 -62784 -62784 0 1;
#X obj 297 -116 inlet pregain;
#X obj 396 -114 inlet clip;
#X obj 474 -115 inlet postgain;
#X obj 585 -54 inlet lopass;
#X obj 692 -43 inlet fuzz;
#X obj 814 -22 inlet difference;
#X msg 946 -6 1;
#X obj 946 -29 loadbang;
#X floatatom 349 -58 5 0 0 0 - - -;
#X connect 3 0 26 0;
#X connect 4 0 25 0;
#X connect 5 0 13 1;
#X connect 5 0 16 1;
#X connect 5 0 27 1;
#X connect 5 0 28 1;
#X connect 6 0 7 0;
#X connect 7 0 5 0;
#X connect 7 0 13 2;
#X connect 7 0 16 2;
#X connect 7 0 27 2;
#X connect 7 0 28 2;
#X connect 8 0 9 0;
#X connect 8 1 9 1;
#X connect 9 0 10 0;
#X connect 10 0 23 1;
#X connect 10 0 24 1;
#X connect 11 0 30 0;
#X connect 12 0 29 1;
#X connect 12 0 30 1;
#X connect 13 0 14 1;
#X connect 14 0 37 0;
#X connect 15 0 29 0;
#X connect 16 0 17 1;
#X connect 17 0 35 0;
#X connect 18 0 35 1;
#X connect 18 0 36 1;
#X connect 18 0 37 1;
#X connect 18 0 38 1;
#X connect 19 0 25 1;
#X connect 19 0 26 1;
#X connect 20 0 31 0;
#X connect 21 0 33 0;
#X connect 22 0 32 1;
#X connect 22 0 34 1;
#X connect 23 0 1 0;
#X connect 24 0 0 0;
#X connect 25 0 15 0;
#X connect 25 0 28 0;
#X connect 25 0 36 0;
#X connect 26 0 11 0;
#X connect 26 0 27 0;
#X connect 26 0 38 0;
#X connect 27 0 11 1;
#X connect 27 0 14 0;
#X connect 28 0 15 1;
#X connect 28 0 17 0;
#X connect 29 0 16 0;
#X connect 30 0 13 0;
#X connect 31 0 23 0;
#X connect 32 0 23 0;
#X connect 33 0 24 0;
#X connect 34 0 24 0;
#X connect 35 0 20 1;
#X connect 35 0 32 0;
#X connect 36 0 20 0;
#X connect 37 0 21 1;
#X connect 37 0 34 0;
#X connect 38 0 21 0;
#X connect 39 0 19 0;
#X connect 39 0 53 0;
#X connect 40 0 6 0;
#X connect 41 0 18 0;
#X connect 42 0 8 0;
#X connect 43 0 12 0;
#X connect 44 0 31 1;
#X connect 44 0 33 1;
#X connect 44 0 22 0;
#X connect 45 0 19 0;
#X connect 46 0 6 0;
#X connect 47 0 18 0;
#X connect 48 0 8 0;
#X connect 49 0 12 0;
#X connect 50 0 22 0;
#X connect 50 0 31 1;
#X connect 50 0 33 1;
#X connect 51 0 2 0;
#X connect 52 0 51 0;
