#N canvas 560 306 450 347 10;
#X declare -lib xthsense;
#X obj 338 315 import xthsense;
#X obj 24 77 efx.pan.cos.mono~;
#X obj 25 289 dac~;
#X obj 24 5 osc~ 300;
#X obj 25 146 mix.ch.stereo~;
#X text 216 80 I/O;
#X text 216 98 Mono > Stereo;
#X floatatom 123 46 5 0 1 0 - - -;
#X text 215 43 A coseno panner.;
#X connect 1 0 4 0;
#X connect 1 1 4 1;
#X connect 3 0 1 0;
#X connect 4 0 2 0;
#X connect 4 1 2 1;
#X connect 7 0 1 1;
