#N canvas 260 135 787 462 10;
#X obj 310 113 inlet~ signal;
#X obj 364 10 inlet control;
#X obj 309 317 *~;
#X obj 413 317 *~;
#X obj 412 373 outlet~ left;
#X obj 308 373 outlet~ right;
#X obj 427 165 sig~;
#X obj 427 186 lop~ 1;
#X obj 325 290 cos~;
#X obj 429 257 cos~;
#X obj 427 208 *~ 0.25;
#X obj 428 229 -~ 0.25;
#X obj 324 265 -~ 0.25;
#X obj 100 118 gui.slider pan 1 0;
#X obj 111 47 r \$1/cos.pan;
#X obj 100 100 cnv 15 156 15 empty empty Pan.cos.mono 5 8 0 8 -1 -162280
0;
#X obj 100 21 xsssad \$1/cos.pan;
#X floatatom 463 8 5 0 0 0 - - -;
#X obj 308 62 scale.lin 127 0 1;
#X msg 308 83 set \$1;
#X obj 364 34 t f f;
#X obj 470 48 hsl 128 15 0 127 0 0 empty empty empty -2 -8 0 10 -262144
-1 -1 0 1;
#X connect 0 0 2 0;
#X connect 0 0 3 0;
#X connect 1 0 20 0;
#X connect 2 0 4 0;
#X connect 3 0 5 0;
#X connect 6 0 7 0;
#X connect 7 0 10 0;
#X connect 8 0 2 1;
#X connect 9 0 3 1;
#X connect 10 0 11 0;
#X connect 11 0 9 0;
#X connect 11 0 12 0;
#X connect 12 0 8 0;
#X connect 13 0 6 0;
#X connect 13 1 16 1;
#X connect 14 0 13 0;
#X connect 16 0 13 0;
#X connect 17 0 20 0;
#X connect 18 0 19 0;
#X connect 20 0 18 0;
#X connect 20 0 13 0;
#X connect 20 1 6 0;
#X connect 21 0 20 0;
#X coords 0 -1 1 1 156 33 2 100 100;
