#N canvas 822 317 655 378 10;
#X declare -lib mrpeach;
#X obj 253 43 inlet~;
#X obj 7 -105 r \$0-labels;
#N canvas 231 188 363 160 labels 0;
#X obj 61 32 inlet;
#X obj 61 84 s \$0-labels;
#X obj 105 33 loadbang;
#X msg 61 63 chorus fb rate depth mix;
#X connect 0 0 3 0;
#X connect 2 0 3 0;
#X connect 3 0 1 0;
#X restore 293 -48 pd labels;
#N canvas 176 179 759 523 dsp 0;
#X obj 111 35 inlet~;
#X obj 110 286 *~ 0.3;
#X obj 133 319 s~ \$0-d;
#X obj 94 353 +~;
#X obj 121 386 delwrite~ \$0-a1 100;
#X obj 94 409 delwrite~ \$0-a2 100;
#X obj 41 188 r~ \$0-fb;
#X obj 286 61 clip -1 1;
#X obj 286 94 * 0.4;
#X obj 286 374 *~;
#X obj 286 406 s~ \$0-fb;
#X obj 314 168 *~;
#X obj 314 198 +~;
#X obj 315 228 vd~ \$0-a1;
#X obj 390 66 * 5;
#X obj 390 99 + 1;
#X obj 390 131 osc~;
#X obj 391 168 *~;
#X obj 391 198 +~;
#X obj 392 228 vd~ \$0-a2;
#X obj 393 301 *~ 1;
#X obj 392 403 outlet~ l;
#X obj 480 228 r~ \$0-d;
#X obj 480 403 outlet~ r;
#X obj 492 63 + 2;
#X obj 610 45 inlet;
#X obj 610 83 switch~;
#X obj 656 32 loadbang;
#X msg 656 54 1;
#X obj 286 -14 r \$0-fb;
#X obj 390 -11 r \$0-rate;
#X obj 492 -14 r \$0-depth;
#X obj 314 135 osc~;
#X obj 236 22 scale.lin 1 0 127;
#X obj 353 20 scale.lin 1 0 127;
#X obj 469 20 scale.lin 1 0 127;
#X connect 0 0 1 0;
#X connect 1 0 2 0;
#X connect 1 0 3 1;
#X connect 3 0 4 0;
#X connect 3 0 5 0;
#X connect 6 0 3 0;
#X connect 7 0 8 0;
#X connect 8 0 9 0;
#X connect 9 0 10 0;
#X connect 11 0 12 0;
#X connect 12 0 13 0;
#X connect 13 0 20 0;
#X connect 14 0 15 0;
#X connect 14 0 32 0;
#X connect 15 0 16 0;
#X connect 16 0 17 0;
#X connect 17 0 18 0;
#X connect 18 0 19 0;
#X connect 19 0 20 0;
#X connect 20 0 9 1;
#X connect 20 0 21 0;
#X connect 22 0 23 0;
#X connect 24 0 11 1;
#X connect 24 0 12 1;
#X connect 24 0 17 1;
#X connect 24 0 18 1;
#X connect 24 0 16 1;
#X connect 25 0 26 0;
#X connect 27 0 28 0;
#X connect 28 0 26 0;
#X connect 29 0 7 0;
#X connect 30 0 14 0;
#X connect 31 0 24 0;
#X connect 32 0 11 0;
#X connect 33 0 7 0;
#X connect 34 0 14 0;
#X connect 35 0 24 0;
#X restore 318 87 pd dsp;
#X obj 535 -23 import mrpeach;
#X obj 161 67 s \$0-mix;
#X obj 159 2 s \$0-fb;
#X obj 160 24 s \$0-rate;
#X obj 160 46 s \$0-depth;
#X obj 253 163 outlet~ l;
#X obj 307 142 outlet~ r;
#X obj 385 91 r \$0-mix;
#X obj 7 -85 unpack s s s s s;
#X obj 302 43 inlet~ dev_dummy;
#X obj 293 -95 r \$1_loadbang;
#N canvas 6 47 450 300 params-via-osc 0;
#X obj 123 210 s GLOBAL_OSC;
#X msg 123 124 /c:ntr:l/a-module/chorus/fb \$1;
#X msg 133 144 /c:ntr:l/a-module/chorus/rate \$1;
#X msg 143 164 /c:ntr:l/a-module/chorus/depth \$1;
#X obj 123 56 r \$0-fb;
#X obj 133 76 r \$0-rate;
#X obj 143 97 r \$0-depth;
#X connect 1 0 0 0;
#X connect 2 0 0 0;
#X connect 3 0 0 0;
#X connect 4 0 1 0;
#X connect 5 0 2 0;
#X connect 6 0 3 0;
#X restore 536 1 pd params-via-osc;
#X obj 135 102 r \$1_loadbang;
#X obj 304 -71 symbol \$2;
#X obj 100 104 f \$0;
#X obj 0 17 gui.slider fb 1 0;
#X obj 0 34 gui.slider rate 1 0;
#X obj 0 51 gui.slider depth 1 0;
#X obj 0 68 gui.slider mix 1 -1;
#X obj 0 0 cnv 15 156 15 empty empty Chorus 5 8 0 8 -1 -162280 0;
#X obj 1 128 xsssad \$1/cho.fb;
#X obj 0 153 xsssad \$1/cho.rate;
#X obj 0 176 xsssad \$1/cho.depth;
#X obj -1 199 xsssad \$1/cho.mix;
#X obj 253 120 mix.xfade.curve.stereo~ 1 -1;
#X obj 418 143 mix.switchoglitch 12;
#X connect 0 0 3 0;
#X connect 0 0 28 0;
#X connect 0 0 28 1;
#X connect 1 0 12 0;
#X connect 3 0 28 2;
#X connect 3 1 28 3;
#X connect 11 0 28 4;
#X connect 12 1 19 0;
#X connect 12 2 20 0;
#X connect 12 3 21 0;
#X connect 12 4 22 0;
#X connect 14 0 2 0;
#X connect 14 0 17 0;
#X connect 16 0 18 0;
#X connect 16 0 24 2;
#X connect 16 0 25 2;
#X connect 19 0 6 0;
#X connect 19 1 24 1;
#X connect 20 0 7 0;
#X connect 20 1 25 1;
#X connect 21 0 8 0;
#X connect 21 1 26 1;
#X connect 22 0 5 0;
#X connect 22 1 27 1;
#X connect 24 0 19 0;
#X connect 25 0 20 0;
#X connect 26 0 21 0;
#X connect 27 0 22 0;
#X connect 28 0 9 0;
#X connect 28 1 10 0;
#X connect 28 3 29 0;
#X connect 29 0 3 1;
#X coords 0 0 1 1 156 83 2 0 0;
