#N canvas 726 380 787 462 10;
#X obj 310 113 inlet~ signal;
#X obj 427 115 inlet control;
#X obj 309 317 *~;
#X obj 413 317 *~;
#X obj 412 373 outlet~ left;
#X obj 308 373 outlet~ right;
#X obj 427 142 sig~;
#X obj 427 168 lop~ 1;
#X obj 325 290 cos~;
#X obj 429 257 cos~;
#X obj 427 199 *~ 0.25;
#X obj 428 227 -~ 0.25;
#X obj 324 265 -~ 0.25;
#X obj 100 117 gui.slider pan 0 1;
#X obj 111 47 r \$1/cos.pan;
#X obj 100 100 cnv 15 156 15 empty empty Pan.cos.mono 5 8 0 8 -1 -162280
0;
#X obj 100 21 sssad \$1/cos.pan;
#X connect 0 0 2 0;
#X connect 0 0 3 0;
#X connect 1 0 6 0;
#X connect 2 0 4 0;
#X connect 3 0 5 0;
#X connect 6 0 7 0;
#X connect 7 0 10 0;
#X connect 8 0 2 1;
#X connect 9 0 3 1;
#X connect 10 0 11 0;
#X connect 11 0 9 0;
#X connect 11 0 12 0;
#X connect 12 0 8 0;
#X connect 13 0 6 0;
#X connect 13 1 16 1;
#X connect 14 0 13 0;
#X connect 16 0 13 0;
#X coords 0 -1 1 1 156 33 2 100 100;
