#N canvas 907 232 539 500 10;
#X declare -lib xthsense;
#X obj 18 131 efx.gui.freeverb~;
#X obj 18 270 mix.ch.stereo~;
#X obj 19 413 dac~;
#X text 212 184 I/O;
#X obj 16 17 osc~ 400;
#X obj 87 39 gui.ead~;
#X obj 87 13 bng 15 250 50 0 empty empty empty 17 7 0 10 -262144 -1
-1;
#X obj 17 101 *~;
#X text 212 202 Stereo > Stereo;
#X text 210 129 Here you have freeverb~ with a nice GUI \; and additional
mix amount.;
#X obj 386 445 import xthsense;
#X connect 0 0 1 0;
#X connect 0 1 1 1;
#X connect 1 0 2 0;
#X connect 1 1 2 1;
#X connect 4 0 7 0;
#X connect 5 0 7 1;
#X connect 6 0 5 0;
#X connect 7 0 0 0;
#X connect 7 0 0 1;
