#N canvas 672 281 620 384 10;
#X declare -lib pdmtl;
#X declare -lib sssad-lib;
#X declare -lib rj;
#X declare -lib xthsense;
#X obj -22 62 efx.gui.grunger~;
#X obj 189 205 import pdmtl;
#X obj 269 205 import sssad-lib;
#X text 186 119 I/O;
#X text 186 137 Mono > Stereo;
#X obj -20 324 dac~;
#X obj -21 187 mix.ch.stereo~;
#X obj -21 30 osc~ 400;
#X text 185 173 Needs pdmtl \, sssad-lib \, rjdj lib.;
#X obj 373 205 import rj;
#X text 184 33 GOP and sssad wrap for a grunger object;
#X text 184 54 Namely \, it includes a fuzz distortion > reverb > resonant
filter > pitchshift;
#X obj 465 341 import xthsense;
#X connect 0 0 6 0;
#X connect 0 1 6 1;
#X connect 6 0 5 0;
#X connect 6 1 5 1;
#X connect 7 0 0 0;
#X coords 0 0 1 1 157 101 0;
