#N canvas 696 233 610 393 10;
#X obj 308 9 inlet control;
#X obj 92 224 *~;
#X obj 296 224 *~;
#X obj 91 259 outlet~ left;
#X obj 295 259 outlet~ right;
#X obj 308 36 sig~;
#X obj 308 62 lop~ 1;
#X obj 108 197 cos~;
#X obj 310 151 cos~;
#X obj 308 93 *~ 0.25;
#X obj 309 121 -~ 0.25;
#X obj 107 172 -~ 0.25;
#X obj 93 20 inlet~ signal-l;
#X obj 296 -19 inlet~ signal-r;
#X connect 0 0 5 0;
#X connect 1 0 3 0;
#X connect 2 0 4 0;
#X connect 5 0 6 0;
#X connect 6 0 9 0;
#X connect 7 0 1 1;
#X connect 8 0 2 1;
#X connect 9 0 10 0;
#X connect 10 0 8 0;
#X connect 10 0 11 0;
#X connect 11 0 7 0;
#X connect 12 0 1 0;
#X connect 13 0 2 0;
