#N canvas 511 219 530 414 10;
#X declare -lib sssad-lib;
#X declare -lib xthsense;
#X obj 36 119 efx.gui.pan.cos.mono~;
#X obj 36 335 dac~;
#X obj 35 51 osc~ 300;
#X obj 36 192 mix.ch.stereo~;
#X obj 234 169 import sssad-lib;
#X text 234 90 I/O;
#X text 234 108 Mono > Stereo;
#X text 233 53 GOP and sssad wrap for a coseno panner.;
#X text 232 144 Needs sssad-lib;
#X obj 414 381 import xthsense;
#X connect 0 0 3 0;
#X connect 0 1 3 1;
#X connect 2 0 0 0;
#X connect 3 0 1 0;
#X connect 3 1 1 1;
#X coords 0 0 1 1 156 33 0;
