#N canvas 784 217 775 333 10;
#X obj -156 69 inlet~;
#X obj -187 49 inlet~;
#N canvas 713 403 626 409 dsp 0;
#X obj 59 241 clip~ -1 1;
#X obj 140 239 clip~ -1 1;
#X obj 141 123 *~ 400;
#X obj 60 124 *~ 400;
#X obj 299 156 *~ 0.9;
#X obj 140 29 inlet~;
#X obj 60 29 inlet~;
#X obj 60 214 +~;
#X obj 418 156 *~ 0.9;
#X obj 140 214 +~;
#X obj 59 311 outlet~;
#X obj 141 312 outlet~;
#X obj 540 5 inlet;
#X obj 565 30 loadbang;
#X msg 565 53 1;
#X obj 540 79 switch~;
#X obj 198 32 r \$0-clip;
#X obj 198 54 t f f;
#X obj 300 77 delread~ fdb-l 10;
#X obj 419 77 delread~ fdb-r 10;
#X obj 263 300 delwrite~ fdb-l 300;
#X obj 389 300 delwrite~ fdb-r 300;
#X obj 332 102 r \$0-fdb;
#X obj 300 30 r \$0-time;
#X obj 300 52 t f f;
#X obj 332 124 t f f;
#X obj 298 181 clip~ -1 1;
#X obj 417 180 clip~ -1 1;
#X connect 0 0 10 0;
#X connect 0 0 20 0;
#X connect 1 0 11 0;
#X connect 1 0 21 0;
#X connect 2 0 9 0;
#X connect 3 0 7 0;
#X connect 4 0 26 0;
#X connect 5 0 2 0;
#X connect 6 0 3 0;
#X connect 7 0 0 0;
#X connect 8 0 27 0;
#X connect 9 0 1 0;
#X connect 12 0 15 0;
#X connect 13 0 14 0;
#X connect 14 0 15 0;
#X connect 16 0 17 0;
#X connect 17 0 3 1;
#X connect 17 1 2 1;
#X connect 18 0 4 0;
#X connect 19 0 8 0;
#X connect 22 0 25 0;
#X connect 23 0 24 0;
#X connect 24 0 18 0;
#X connect 24 1 19 0;
#X connect 25 0 4 1;
#X connect 25 1 8 1;
#X connect 26 0 7 1;
#X connect 27 0 9 1;
#X restore -122 134 pd dsp;
#X obj -56 143 r \$0-mix;
#X obj -188 172 mix.xfade.curve.stereo~ 1 -1;
#X obj -23 209 mix.switchoglitch 12;
#X obj -189 226 outlet~;
#X obj -132 226 outlet~;
#X obj 100 117 gui.slider clip 5000 10;
#X obj 376 100 s \$0-mix;
#X obj 100 168 gui.slider mix 1 -1;
#X obj 344 199 xsssad \$1/clp.clp;
#X obj 345 260 xsssad \$1/clp.mix;
#X obj 455 260 loadbang;
#X obj 375 40 s \$0-clip;
#X obj 375 60 s \$0-fdb;
#X obj 375 80 s \$0-time;
#X obj 344 219 xsssad \$1/clp.fdb;
#X obj 344 239 xsssad \$1/clp.time;
#X obj 100 151 gui.slider time 5000 1;
#X obj 100 100 cnv 15 156 15 empty empty Clipfdb 5 8 0 8 -1 -162280
0;
#X obj -9 11 r \$1/clp.clp;
#X obj -9 31 r \$1/clp.fdb;
#X obj -9 51 r \$1/clp.time;
#X obj -8 72 r \$1/clp.mix;
#X obj 100 134 gui.slider fdb 3 0.1;
#X connect 0 0 4 1;
#X connect 0 0 2 1;
#X connect 1 0 4 0;
#X connect 1 0 2 0;
#X connect 2 0 4 2;
#X connect 2 1 4 3;
#X connect 3 0 4 4;
#X connect 4 0 6 0;
#X connect 4 1 7 0;
#X connect 4 3 5 0;
#X connect 5 0 2 2;
#X connect 8 0 14 0;
#X connect 8 1 11 1;
#X connect 10 0 9 0;
#X connect 10 1 12 1;
#X connect 11 0 8 0;
#X connect 12 0 10 0;
#X connect 13 0 12 2;
#X connect 17 0 25 0;
#X connect 18 0 19 0;
#X connect 19 0 16 0;
#X connect 19 1 18 1;
#X connect 21 0 8 0;
#X connect 22 0 25 0;
#X connect 23 0 19 0;
#X connect 24 0 10 0;
#X connect 25 0 15 0;
#X connect 25 1 17 1;
#X coords 0 -1 1 1 157 84 2 100 100;
