#N canvas 98 261 565 335 10;
#X obj -65 72 inlet~;
#X obj -64 179 outlet~;
#X text 99 269 Marco Donnarumma :: devel@thesaddj.com :: Edinburgh
2010;
#N canvas 201 273 587 372 dsp 0;
#X floatatom 71 70 0 0 0 0 - - -;
#X obj 50 218 +~;
#X obj 71 194 *~ 0.7;
#X obj 71 96 delread~ \$0-del 290;
#X obj 90 243 delwrite~ \$0-del 2000;
#X obj 49 22 inlet~;
#X obj 51 297 outlet~;
#X obj 133 43 r \$0-delayTime;
#X obj 104 147 r \$0-fdbGain;
#X floatatom 163 202 5 0 0 0 - - -;
#X obj 319 24 inlet;
#X obj 319 132 switch~;
#X obj 365 81 loadbang;
#X msg 365 103 1;
#X obj 133 65 scale.lin 2000 1 127;
#X obj 104 169 scale.lin 1 0 127;
#X connect 0 0 3 0;
#X connect 1 0 4 0;
#X connect 1 0 6 0;
#X connect 2 0 1 1;
#X connect 3 0 2 0;
#X connect 5 0 1 0;
#X connect 7 0 14 0;
#X connect 8 0 15 0;
#X connect 10 0 11 0;
#X connect 12 0 13 0;
#X connect 13 0 11 0;
#X connect 14 0 3 0;
#X connect 15 0 9 0;
#X connect 15 0 2 1;
#X restore -36 112 pd dsp;
#X obj 260 102 s \$0-delayTime;
#X obj 261 125 s \$0-fdbGain;
#X obj 262 148 s \$0-mix;
#X obj 28 87 r \$0-mix;
#X obj 100 36 inlet del;
#X obj 164 36 inlet fdb;
#X obj 228 36 inlet mix;
#X obj 379 146 loadbang;
#X obj 100 117 gui.slider del 127 0;
#X obj 100 134 gui.slider fdb 127 0;
#X obj 100 151 gui.slider mix 1 -1;
#X obj 356 8 r \$1/del.del;
#X obj 355 32 r \$1/del.fb;
#X obj 355 56 r \$1/del.mix;
#X obj 100 100 cnv 15 156 15 empty empty Delay 5 8 0 8 -1 -162280 0
;
#X obj 251 183 xsssad \$1/del.del;
#X obj 250 206 xsssad \$1/del.fb;
#X obj 250 230 xsssad \$1/del.mix;
#X obj -65 146 mix.xfade.curve~ 1 -1;
#X obj 58 175 mix.switchoglitch 12;
#X connect 0 0 3 0;
#X connect 0 0 22 0;
#X connect 3 0 22 1;
#X connect 7 0 22 2;
#X connect 8 0 12 0;
#X connect 9 0 13 0;
#X connect 10 0 14 0;
#X connect 11 0 19 2;
#X connect 11 0 20 2;
#X connect 11 0 21 2;
#X connect 12 0 4 0;
#X connect 12 0 19 1;
#X connect 13 0 5 0;
#X connect 13 0 20 1;
#X connect 14 0 6 0;
#X connect 14 1 21 1;
#X connect 15 0 12 0;
#X connect 16 0 13 0;
#X connect 17 0 14 0;
#X connect 19 0 12 0;
#X connect 20 0 13 0;
#X connect 21 0 14 0;
#X connect 22 0 1 0;
#X connect 22 2 23 0;
#X connect 23 0 3 1;
#X coords 0 -1 1 1 156 66 1 100 100;
