#N canvas 814 385 581 373 10;
#X declare -lib xthsense;
#X obj 17 151 print;
#X text 207 22 Only reports a change in the incoming symbol.;
#X obj 17 127 flow.schange;
#X text 205 265 Original by Chris McCormick 2008;
#X text 203 66 ARGUMENT;
#X text 205 136 INLET;
#X text 204 202 OUTLETS;
#X text 204 82 None;
#X text 205 153 Symbol;
#X text 204 218 Output a symbol only if different from the previous
one;
#X msg 17 80 dog;
#X msg 73 80 cat;
#X msg 124 80 mouse;
#X obj 464 335 import xthsense;
#X connect 2 0 0 0;
#X connect 10 0 2 0;
#X connect 11 0 2 0;
#X connect 12 0 2 0;
