#N canvas 265 216 459 329 10;
#X declare -lib xthsense;
#X text 182 135 http://obiwannabe.co.uk;
#X obj 59 63 gen.raindrops~;
#X obj 60 238 dac~;
#X obj 59 101 mix.ch.stereo~;
#X text 182 118 From an exercise by Andy Farnell;
#X obj 342 274 import xthsense;
#X connect 1 0 3 0;
#X connect 1 1 3 1;
#X connect 3 0 2 0;
#X connect 3 1 2 1;
