#N canvas 726 206 682 585 10;
#X obj 100 100 cnv 15 155 15 empty empty empty 20 12 0 14 -1 -228856
0;
#X obj 100 100 nbx 4 14 -1e+37 1e+37 0 0 empty empty empty -2 -10 1
8 -1 -228856 -1 0 256;
#X obj 154 100 hsl 100 15 0 127 0 0 empty empty empty 70 7 0 10 -1
-128992 -228856 0 1;
#X msg 150 67 label \$1;
#X obj 153 100 hsl 2 15 0 127 0 0 ghfgh ghfghf empty 70 7 0 8 -191407
-191407 -228856 0 1;
#N canvas 12 70 450 300 init 0;
#X obj 141 67 loadbang;
#X obj 141 91 s \$0-init;
#X connect 0 0 1 0;
#X restore 445 -29 pd init;
#X msg 57 -30 0;
#X obj 57 -55 r \$0-init;
#X obj 150 -2 r \$0-init;
#X symbolatom 150 44 10 0 0 0 - - -;
#X obj 269 162 r \$0-init;
#X msg 76 59 size \$1;
#X obj 269 188 t b b;
#X obj 170 369 t f f;
#X obj 197 394 s \$0-gui;
#X obj -29 -2 r \$0-gui;
#X obj 76 17 * 0.787;
#X obj 75 233 s \$0-color;
#X obj 76 -6 r \$0-color;
#X obj 151 152 t f f f;
#X obj 381 425 outlet midi.range;
#X obj 170 445 outlet normalized;
#X text 318 69 Input range 0-127;
#X text 318 87 By default output is scaled to 0-1;
#X text 323 326 inlet range: 0 127;
#X text 317 103 if you want to modify this \, just indicate;
#X obj 244 71 t f f;
#X msg -2 60 set \$1;
#X obj 244 -57 inlet slider;
#X obj 335 -56 inlet label;
#X obj 335 -33 symbol;
#X obj 269 250 route 0;
#X msg 269 274 0;
#X obj 203 248 route 0;
#X msg 203 270 1;
#X obj 170 345 scale.lin 1 0 127;
#X obj -29 38 t f f;
#X obj 150 22 symbol \$2;
#X obj 203 224 float \$3;
#X obj 269 225 float \$4;
#X obj -63 302 xsssad \$1/\$2;
#X obj 284 42 r \$1/\$2;
#X text 317 118 the new range as the 3rd and 4th argument;
#X connect 2 0 19 0;
#X connect 3 0 4 0;
#X connect 6 0 11 0;
#X connect 7 0 6 0;
#X connect 8 0 37 0;
#X connect 9 0 3 0;
#X connect 10 0 12 0;
#X connect 11 0 4 0;
#X connect 12 0 39 0;
#X connect 12 1 38 0;
#X connect 13 0 21 0;
#X connect 13 1 14 0;
#X connect 15 0 36 0;
#X connect 16 0 11 0;
#X connect 18 0 16 0;
#X connect 19 0 17 0;
#X connect 19 1 35 0;
#X connect 19 2 20 0;
#X connect 26 0 2 0;
#X connect 27 0 1 0;
#X connect 28 0 26 0;
#X connect 29 0 30 0;
#X connect 30 0 9 0;
#X connect 31 0 32 0;
#X connect 31 1 35 2;
#X connect 32 0 35 2;
#X connect 33 0 34 0;
#X connect 33 1 35 1;
#X connect 34 0 35 1;
#X connect 35 0 13 0;
#X connect 36 0 40 1;
#X connect 36 1 27 0;
#X connect 37 0 9 0;
#X connect 38 0 33 0;
#X connect 39 0 31 0;
#X connect 40 0 26 0;
#X connect 41 0 26 0;
#X coords 0 -1 1 1 156 15 2 100 100;
