#N canvas 828 245 766 525 10;
#X obj 100 100 cnv 15 125 20 empty empty empty 20 12 0 14 -133153 -66577
0;
#X obj 102 103 hradio 15 1 0 4 empty empty -- 6 8 0 8 -1 -1 -262144
0;
#X obj 365 76 r SSSAD;
#X obj 332 260 symbol;
#X obj 203 103 tgl 15 0 empty empty empty 17 12 0 10 -262144 -1 -1
0 1;
#X msg 102 -3 label --;
#X obj 102 -32 r \$0-init;
#X obj 242 -52 loadbang;
#X obj 242 -27 s \$0-init;
#X obj 202 101 iemgui/iem_image /home/sad/00.Pd/projects/_Xth-Sense/dev/lib/../images/circ.button.off.gif
0 0 empty empty;
#N canvas 629 128 239 248 animation 0;
#X obj 39 46 inlet on.off;
#X msg 39 177 open \$1;
#X obj 39 68 sel 1 0;
#X obj 128 67 r \$0-init;
#X obj 39 202 outlet open.image;
#N canvas 248 193 349 270 find-image-on 0;
#X obj 60 195 mergefilename /;
#X msg 60 164 \$1 \$2;
#X obj 60 139 pack s s;
#X obj 72 33 loadbang;
#X obj 60 61 t b b;
#X obj 38 35 bng 15 250 50 0 empty empty empty 17 7 0 10 -262144 -1
-1;
#X obj 60 225 outlet;
#X obj 60 11 inlet;
#X obj 60 84 getdir 4;
#X obj 105 112 symbol ../images/circ.button.on.gif;
#X connect 0 0 6 0;
#X connect 1 0 0 0;
#X connect 2 0 1 0;
#X connect 3 0 4 0;
#X connect 4 0 8 0;
#X connect 4 1 9 0;
#X connect 5 0 4 0;
#X connect 7 0 4 0;
#X connect 8 0 2 0;
#X connect 9 0 2 1;
#X restore 39 122 pd find-image-on;
#N canvas 36 162 349 270 find-image-off 0;
#X obj 60 195 mergefilename /;
#X msg 60 164 \$1 \$2;
#X obj 60 139 pack s s;
#X obj 72 33 loadbang;
#X obj 60 61 t b b;
#X obj 38 35 bng 15 250 50 0 empty empty empty 17 7 0 10 -262144 -1
-1;
#X obj 60 225 outlet;
#X obj 60 11 inlet;
#X obj 60 84 getdir 4;
#X obj 105 112 symbol ../images/circ.button.off.gif;
#X connect 0 0 6 0;
#X connect 1 0 0 0;
#X connect 2 0 1 0;
#X connect 3 0 4 0;
#X connect 4 0 8 0;
#X connect 4 1 9 0;
#X connect 5 0 4 0;
#X connect 7 0 4 0;
#X connect 8 0 2 0;
#X connect 9 0 2 1;
#X restore 58 98 pd find-image-off;
#X obj 16 69 bng 15 250 50 0 empty empty empty 17 7 0 10 -262144 -1
-1;
#X connect 0 0 2 0;
#X connect 1 0 4 0;
#X connect 2 0 5 0;
#X connect 2 1 6 0;
#X connect 3 0 6 0;
#X connect 5 0 1 0;
#X connect 6 0 1 0;
#X connect 7 0 6 0;
#X restore 250 102 pd animation;
#X obj 62 -54 r \$0-label.reset;
#X obj 24 135 inlet value;
#X obj 62 -32 t b;
#X obj 313 416 s \$0-label.reset;
#X obj 313 232 sel 0 1;
#X obj 168 103 hsl 30 15 0 127 0 0 gdsfaf \$0-label 1 0 8 0 8 -128992
-128992 -262144 0 1;
#X obj 192 226 spigot 0;
#X obj 40 65 r \$0-label-fx-param;
#X obj 203 160 t f f f f;
#N canvas 243 420 375 402 make.label.value 0;
#X obj 50 21 inlet;
#X obj 50 175 makefilename %f;
#X msg 50 242 label \$1;
#X obj 50 200 stripfilename -7;
#X obj 50 266 s \$0-label;
#X obj 77 128 outlet value;
#X obj 50 77 t f f;
#X connect 0 0 6 0;
#X connect 1 0 3 0;
#X connect 2 0 4 0;
#X connect 3 0 2 0;
#X connect 6 0 1 0;
#X connect 6 1 5 0;
#X restore 24 157 pd make.label.value;
#N canvas 24 116 322 208 make.label.name 0;
#X obj 49 19 inlet;
#X msg 49 72 label \$1;
#X obj 49 97 s \$0-label-fx-param;
#X obj 49 48 stripfilename 7;
#X connect 0 0 3 0;
#X connect 1 0 2 0;
#X connect 3 0 1 0;
#X restore 351 381 pd make.label.name;
#X obj 192 427 iem_s;
#X msg 242 400 set \$1;
#X obj 332 320 t s s s;
#X obj 560 245 pipe s 700;
#X obj 203 36 pipe 750;
#N canvas 325 270 907 350 route.and.parse.OSC 0;
#X obj 46 225 OSC.path.merge /wp1;
#X obj 81 205 OSC.path.merge /wp2;
#X obj 259 104 OSC.path.merge /wp7;
#X obj 224 124 OSC.path.merge /wp6;
#X obj 188 144 OSC.path.merge /wp5;
#X obj 152 164 OSC.path.merge /wp4;
#X obj 117 184 OSC.path.merge /wp3;
#X obj 295 84 OSC.path.merge /wp8;
#X obj 46 14 inlet SSSAD;
#X obj 9 263 outlet;
#X obj 46 51 routeOSC /wp1 /wp2 /wp3 /wp4 /wp5 /wp6 /wp7 /wp8;
#X obj 399 303 outlet;
#X obj 436 51 routeOSC /ch2 /ch3 /ch4 /ch5 /ch6 /ch7 /ch8 /ch9 /ch10
/ch11;
#X obj 436 265 OSC.path.merge /ch2;
#X obj 471 245 OSC.path.merge /ch3;
#X obj 507 224 OSC.path.merge /ch4;
#X obj 543 204 OSC.path.merge /ch5;
#X obj 578 184 OSC.path.merge /ch6;
#X obj 614 164 OSC.path.merge /ch7;
#X obj 650 144 OSC.path.merge /ch8;
#X obj 685 124 OSC.path.merge /ch9;
#X obj 721 104 OSC.path.merge /ch10;
#X obj 757 84 OSC.path.merge /ch11;
#X connect 0 0 9 0;
#X connect 1 0 9 0;
#X connect 2 0 9 0;
#X connect 3 0 9 0;
#X connect 4 0 9 0;
#X connect 5 0 9 0;
#X connect 6 0 9 0;
#X connect 7 0 9 0;
#X connect 8 0 10 0;
#X connect 10 0 0 0;
#X connect 10 1 1 0;
#X connect 10 2 6 0;
#X connect 10 3 5 0;
#X connect 10 4 4 0;
#X connect 10 5 3 0;
#X connect 10 6 2 0;
#X connect 10 7 7 0;
#X connect 12 0 13 0;
#X connect 12 1 14 0;
#X connect 12 2 15 0;
#X connect 12 3 16 0;
#X connect 12 4 17 0;
#X connect 12 5 18 0;
#X connect 12 6 19 0;
#X connect 12 7 20 0;
#X connect 12 8 21 0;
#X connect 12 9 22 0;
#X connect 13 0 11 0;
#X connect 14 0 11 0;
#X connect 15 0 11 0;
#X connect 16 0 11 0;
#X connect 17 0 11 0;
#X connect 18 0 11 0;
#X connect 19 0 11 0;
#X connect 20 0 11 0;
#X restore 365 189 pd route.and.parse.OSC;
#X obj 504 365 print;
#X text 341 -54 1_ receives a lists (including the object arguments)
;
#X text 342 -33 2_ parse the list: take out the argument and transform
the list into a symbol;
#X text 343 2 3_ store the symbol;
#X text 343 25 4_ when prompted \, it feed the symbol to [iem_s];
#X obj 203 10 xsssad \$1/paramoff;
#X obj 560 208 xsssad \$1/paramout;
#X obj 365 163 spigot 1;
#X obj 410 104 r SCENE.LOAD;
#N canvas 12 70 261 197 open.close 0;
#X obj 84 58 t b b;
#X obj 84 80 del 900;
#X msg 139 80 0;
#X obj 84 32 inlet;
#X obj 84 156 outlet;
#X msg 84 107 1;
#X connect 0 0 1 0;
#X connect 0 1 2 0;
#X connect 1 0 5 0;
#X connect 2 0 4 0;
#X connect 3 0 0 0;
#X connect 5 0 4 0;
#X restore 410 130 pd open.close;
#X obj 439 159 tgl 15 0 empty empty empty 17 7 0 10 -262144 -1 -1 0
1;
#X text 491 104 <<< workaround for scene loading;
#X connect 2 0 35 0;
#X connect 3 0 24 0;
#X connect 4 0 19 0;
#X connect 4 0 10 0;
#X connect 5 0 1 0;
#X connect 6 0 5 0;
#X connect 7 0 8 0;
#X connect 10 0 9 0;
#X connect 11 0 13 0;
#X connect 12 0 20 0;
#X connect 13 0 5 0;
#X connect 15 0 14 0;
#X connect 15 1 3 0;
#X connect 17 0 22 0;
#X connect 18 0 1 0;
#X connect 19 0 33 1;
#X connect 19 2 17 1;
#X connect 19 3 15 0;
#X connect 20 0 17 0;
#X connect 23 0 22 1;
#X connect 24 0 34 1;
#X connect 24 1 21 0;
#X connect 24 2 23 0;
#X connect 25 0 27 0;
#X connect 26 0 4 0;
#X connect 27 0 3 1;
#X connect 27 1 3 1;
#X connect 33 0 26 0;
#X connect 34 0 25 0;
#X connect 35 0 27 0;
#X connect 36 0 37 0;
#X connect 37 0 35 1;
#X connect 37 0 38 0;
#X coords 0 -1 1 1 125 20 2 100 100;
