#N canvas 668 398 449 300 10;
#X obj 100 100 cnv 15 65 25 empty empty empty 20 12 0 14 -1 -66577
0;
#X obj 77 -23 inlet label;
#X msg 104 65 label \$1;
#X msg 175 66 label test;
#X obj 131 222 oneshot;
#X obj 131 247 outlet;
#X msg 77 193 clear;
#X obj 77 31 t b s;
#X obj 104 106 hradio 14 1 0 4 empty empty Mapping 2 8 0 8 -1 -1 -191407
1;
#X obj 77 6 symbol;
#X obj 104 131 t b b;
#X obj 77 171 del 50;
#X obj 167 -23 loadbang;
#X obj 167 4 symbol \$1;
#X connect 1 0 9 0;
#X connect 2 0 8 0;
#X connect 3 0 8 0;
#X connect 4 0 5 0;
#X connect 6 0 4 0;
#X connect 7 0 11 0;
#X connect 7 1 2 0;
#X connect 8 0 10 0;
#X connect 9 0 7 0;
#X connect 10 0 11 0;
#X connect 10 1 4 0;
#X connect 11 0 6 0;
#X connect 12 0 13 0;
#X connect 13 0 7 0;
#X coords 0 -1 1 1 65 25 2 100 100;
