#N canvas 860 557 349 285 10;
#N canvas 866 349 259 226 make.label.value 0;
#X obj 62 40 inlet;
#X obj 62 159 s \$0-label;
#X msg 62 130 label \$1;
#X obj 62 68 makefilename %f;
#X obj 62 99 stripfilename -4;
#X connect 0 0 3 0;
#X connect 2 0 1 0;
#X connect 3 0 4 0;
#X connect 4 0 2 0;
#X restore 128 156 pd make.label.value;
#X obj 101 101 nbx 2 14 -1e+37 1e+37 0 0 empty empty empty 0 -8 0 10
-262144 -1 -1 2.88 256;
#X obj 103 100 hsl 30 15 0 127 0 0 gdsfaf \$0-label 2.88 0 8 0 8 -1
-1 -262144 2 1;
#X obj 101 129 t f f;
#X obj 101 179 outlet value;
#X obj 101 48 inlet;
#X connect 1 0 3 0;
#X connect 3 0 4 0;
#X connect 3 1 0 0;
#X connect 5 0 1 0;
#X coords 0 -1 1 1 35 15 2 100 100;
