#N canvas 220 252 582 342 10;
#X obj 103 100 hsl 60 15 0 127 0 0 empty empty empty 0 7 0 8 -1 -228856
-228856 0 1;
#X msg 100 -19 label \$1;
#X obj 224 55 inlet slider;
#X obj 114 144 outlet slider;
#X obj 103 100 hsl 2 15 1.27 127 0 0 fdgdfg fgerggg cat 43 8 0 8 -195568
-195568 -195568 0 1;
#N canvas 0 0 450 300 init 0;
#X obj 138 44 loadbang;
#X obj 138 73 s \$0-init;
#X connect 0 0 1 0;
#X restore 21 -61 pd init;
#X obj 100 -94 r \$0-init;
#X obj 343 -111 inlet label;
#X symbolatom 100 -41 10 0 0 0 - - -;
#X obj 100 -64 symbol \$1;
#X obj 111 4 r \$0-dyn-size;
#X obj 122 32 r \$0-dyn-color;
#X floatatom 134 123 5 0 0 0 - - -;
#N canvas 36 162 450 300 size.animation 0;
#X msg 77 167 size \$1;
#X obj 102 137 r \$0-init;
#X obj 77 193 s \$0-dyn-size;
#X obj 77 88 inlet;
#X obj 77 112 scale.lin 60 0 127;
#X connect 0 0 2 0;
#X connect 1 0 0 0;
#X connect 3 0 4 0;
#X connect 4 0 0 0;
#X restore 100 170 pd size.animation;
#N canvas 449 392 450 300 color.animation 1;
#X obj 117 31 inlet;
#X msg 117 169 color 20 20 20;
#X obj 117 217 s \$0-dyn-color;
#X msg 148 192 color 20 20 22;
#X obj 117 54 i;
#X obj 117 104 sel 0 1;
#X obj 117 78 >= 70;
#X obj 165 129 loadbang;
#X connect 0 0 4 0;
#X connect 1 0 2 0;
#X connect 3 0 2 0;
#X connect 4 0 6 0;
#X connect 5 0 1 0;
#X connect 5 1 3 0;
#X connect 6 0 5 0;
#X connect 7 0 1 0;
#X restore 66 196 pd color.animation;
#X msg 122 54 color \$1 \$2 \$3;
#X connect 0 0 3 0;
#X connect 0 0 12 0;
#X connect 0 0 13 0;
#X connect 0 0 14 0;
#X connect 1 0 4 0;
#X connect 2 0 0 0;
#X connect 6 0 9 0;
#X connect 7 0 9 0;
#X connect 8 0 1 0;
#X connect 9 0 8 0;
#X connect 10 0 4 0;
#X connect 11 0 15 0;
#X connect 15 0 4 0;
#X coords 0 -1 1 1 65 15 2 100 100;
