#N canvas 699 340 450 300 10;
#X obj 42 173 spigot;
#X floatatom 82 147 1 0 1 0 - - -;
#X obj 42 34 inlet;
#X obj 42 198 outlet;
#X obj 100 100 tgl 15 0 empty empty go 17 7 0 8 -99865 -1 -1 0 1;
#X obj 100 56 inlet;
#X text 273 35 inlet 1:data stream;
#X text 274 54 inlet 2: toggle on/off;
#X text 275 107 outlet 1: data stream;
#X text 276 123 outlet 2: value 1/0;
#X obj 134 179 outlet;
#X obj 223 168 sssad \$1/go.onoff;
#X connect 0 0 3 0;
#X connect 1 0 0 1;
#X connect 2 0 0 0;
#X connect 4 0 1 0;
#X connect 4 0 10 0;
#X connect 4 0 11 1;
#X connect 5 0 4 0;
#X connect 11 0 4 0;
#X coords 0 -1 1 1 35 15 2 100 100;
