#N canvas 557 291 453 391 10;
#X obj 100 100 cnv 14 155 15 empty empty empty 20 12 0 14 -1 -66577
0;
#X obj 124 100 hsl 128 15 0 127 0 0 empty empty empty 100 7 0 8 -1
-228856 -228856 500 1;
#X obj 100 100 tgl 15 0 empty empty empty 17 7 0 10 -191407 -1 -1 1
1;
#X msg 121 51 label \$1;
#X obj 38 32 inlet tgl;
#X obj 203 34 inlet slider;
#X obj 100 143 outlet tgl;
#X obj 171 143 outlet slider;
#X obj 124 100 hsl 5 15 0 127 0 0 fdgdfg fgerggg vol 100 7 0 8 -191407
-191407 -228856 0 1;
#X msg 203 201 size \$1;
#N canvas 0 0 450 300 init 0;
#X obj 138 44 loadbang;
#X obj 138 73 s \$0-init;
#X connect 0 0 1 0;
#X restore 42 -21 pd init;
#X obj 121 -24 r \$0-init;
#X obj 203 168 r \$0-init;
#X text 19 225 TAKES 1 ARGUMENT_ - label;
#X text 18 261 I/O inlet 1: tgl (1 or 0) inlet 2: MIDI value (0 - 127)
--- outlet 1: tgl (1 or 0) outlet 2: MIDI value;
#X obj 306 -26 inlet label;
#X symbolatom 121 29 10 0 0 0 - - -;
#X obj 121 6 symbol \$1;
#X connect 1 0 7 0;
#X connect 1 0 9 0;
#X connect 2 0 6 0;
#X connect 3 0 8 0;
#X connect 4 0 2 0;
#X connect 5 0 1 0;
#X connect 9 0 8 0;
#X connect 11 0 17 0;
#X connect 12 0 9 0;
#X connect 15 0 17 0;
#X connect 16 0 3 0;
#X connect 17 0 16 0;
#X coords 0 -1 1 1 155 15 2 100 100;
