#N canvas 229 252 582 548 10;
#X obj 103 100 hsl 60 15 0 127 0 0 empty empty empty 0 7 0 8 -1 -228856
-228856 4739 1;
#X msg 100 -19 label \$1;
#X obj 252 -74 inlet slider;
#X obj 103 100 hsl 48 15 1.27 127 0 0 fdgdfg fgerggg freq 43 8 0 8
-195568 -195568 -1 0 1;
#X obj 100 -94 r \$0-init;
#X obj 365 -138 inlet label;
#X symbolatom 100 -41 10 0 0 0 - - -;
#X obj 100 -64 symbol \$1;
#X obj 111 4 r \$0-dyn-size;
#X obj 122 32 r \$0-dyn-color;
#N canvas 36 162 450 300 size.animation 0;
#X msg 77 167 size \$1;
#X obj 102 137 r \$0-init;
#X obj 77 193 s \$0-dyn-size;
#X obj 77 88 inlet;
#X obj 77 112 scale.lin 60 0 127;
#X connect 0 0 2 0;
#X connect 1 0 0 0;
#X connect 3 0 4 0;
#X connect 4 0 0 0;
#X restore 117 238 pd size.animation;
#N canvas 449 392 450 300 color.animation 0;
#X obj 117 31 inlet;
#X msg 117 169 color 20 20 20;
#X obj 117 217 s \$0-dyn-color;
#X msg 148 192 color 20 20 22;
#X obj 117 54 i;
#X obj 117 104 sel 0 1;
#X obj 117 78 >= 70;
#X obj 165 129 loadbang;
#X connect 0 0 4 0;
#X connect 1 0 2 0;
#X connect 3 0 2 0;
#X connect 4 0 6 0;
#X connect 5 0 1 0;
#X connect 5 1 3 0;
#X connect 6 0 5 0;
#X connect 7 0 1 0;
#X restore 100 262 pd color.animation;
#X msg 122 54 color \$1 \$2 \$3;
#N canvas 6 77 450 300 init 0;
#X obj 141 67 loadbang;
#X obj 141 91 s \$0-init;
#X connect 0 0 1 0;
#X restore 446 -56 pd init;
#X obj 365 72 r \$0-init;
#X obj 365 98 t b b;
#X obj 299 134 float \$2;
#X obj 365 135 float \$3;
#X obj 266 279 t f f;
#X obj 293 304 s \$0-gui;
#X obj 422 355 outlet midi.range;
#X obj 266 355 outlet normalized;
#X text 419 236 inlet range: 0 127;
#X obj 365 160 route 0;
#X msg 365 184 0;
#X obj 299 158 route 0;
#X msg 299 180 1;
#X obj 266 255 scale.lin 1 0 127;
#X obj 100 142 t f f f f;
#X floatatom 232 78 5 0 0 0 - - -;
#X connect 0 0 28 0;
#X connect 1 0 3 0;
#X connect 2 0 0 0;
#X connect 4 0 7 0;
#X connect 5 0 7 0;
#X connect 6 0 1 0;
#X connect 7 0 6 0;
#X connect 8 0 3 0;
#X connect 9 0 12 0;
#X connect 12 0 3 0;
#X connect 14 0 15 0;
#X connect 15 0 17 0;
#X connect 15 1 16 0;
#X connect 16 0 25 0;
#X connect 17 0 23 0;
#X connect 18 0 21 0;
#X connect 18 1 19 0;
#X connect 23 0 24 0;
#X connect 23 1 27 2;
#X connect 24 0 27 2;
#X connect 25 0 26 0;
#X connect 25 1 27 1;
#X connect 26 0 27 1;
#X connect 27 0 18 0;
#X connect 28 0 11 0;
#X connect 28 1 10 0;
#X connect 28 2 27 0;
#X connect 28 3 20 0;
#X connect 29 0 0 0;
#X coords 0 -1 1 1 65 15 2 100 100;
