#N canvas 793 428 291 295 10;
#X obj 108 107 bng 20 250 50 0 empty empty empty 17 7 0 10 -262144
-1 -1;
#X obj 108 161 f \$1;
#X obj 145 129 loadbang;
#N canvas 432 162 450 300 msg 0;
#X obj 68 160 outlet;
#X obj 68 34 inlet on;
#X obj 84 93 inlet off;
#X msg 84 117 open images/xs_bng-off.gif;
#X msg 68 61 open images/xs_bng-on.gif;
#X connect 1 0 4 0;
#X connect 2 0 3 0;
#X connect 3 0 0 0;
#X connect 4 0 0 0;
#X restore 126 70 pd msg;
#X obj 108 211 outlet;
#X obj 126 13 inlet;
#X obj 126 41 sel 1;
#X obj 101 101 iemgui/iem_image images/xs_bng-on.gif 0 0 empty empty
;
#X connect 0 0 1 0;
#X connect 1 0 4 0;
#X connect 2 0 1 0;
#X connect 3 0 7 0;
#X connect 5 0 6 0;
#X connect 6 0 3 0;
#X connect 6 1 3 1;
#X coords 0 -1 1 1 34 29 2 100 100;
