#N canvas 208 113 523 342 10;
#X text 168 67 ARGUMENT;
#X text 169 211 OUTLETS;
#X text 169 83 Label;
#X text 171 177 Label;
#X text 170 145 INLETS;
#X text 170 161 Float number;
#X msg 92 16 dog;
#X floatatom 34 16 5 0 127 0 - - -;
#X floatatom 34 74 5 0 0 0 - - -;
#X obj 36 127 gui.slider.mini cat;
#X obj 34 49 gui.slider.mini;
#X text 169 98 Range top value;
#X text 169 113 Range bottom value;
#X text 171 243 Values normalized to MIDI;
#X text 170 228 Values normalized to user input;
#X text 169 28 GUI slider with customizable range (via arguments);
#X connect 6 0 10 1;
#X connect 7 0 10 0;
#X connect 10 0 8 0;
