#N canvas 917 332 498 363 10;
#X text 255 68 ARGUMENT;
#X text 256 204 OUTLETS;
#X text 256 84 Label;
#X text 257 154 Toggle 1/0;
#X text 258 170 Label;
#X text 257 138 INLETS;
#X text 257 219 Toggle 1/0;
#X text 258 235 Radio value;
#X text 254 28 GUI toggle with horizontal radio;
#X msg 32 26 1;
#X msg 180 29 dog;
#X obj 32 72 gui.radio.tgl;
#X obj 33 147 gui.radio.tgl cat;
#X floatatom 32 101 5 0 0 0 - - -;
#X floatatom 180 99 5 0 0 0 - - -;
#X connect 9 0 11 0;
#X connect 10 0 11 2;
#X connect 11 0 13 0;
#X connect 11 1 14 0;
