#N canvas 1750 142 649 377 10;
#X declare -lib xthsense;
#X text 341 31 ARGUMENT;
#X text 342 178 OUTLETS;
#X text 342 47 Label;
#X text 343 112 INLETS;
#X text 339 -9 GUI slider with customizable range (via arguments);
#X text 344 208 Values normalized to MIDI;
#X text 343 193 Values normalized to user input;
#X msg 94 -41 120;
#X floatatom 54 -41 5 0 127 0 - - -;
#X obj 54 7 gui.slider;
#X obj 54 63 gui.slider volume;
#X obj 56 234 gui.slider test 30 500;
#X text 343 128 Float;
#X text 344 144 Label;
#X floatatom 56 260 5 0 0 0 - - -;
#X text 55 205 Below a custom range between 500 and 30;
#X obj 55 151 gui.slider test1 500 30;
#X text 342 60 Range top value;
#X text 342 75 Range bottom value;
#X floatatom 55 175 5 0 0 0 - - -;
#X text 55 123 Below a custom range between 30 and 500;
#X floatatom 54 30 5 0 0 0 - - -;
#X obj 521 297 import xthsense;
#X msg 203 -34 cat;
#X connect 7 0 9 0;
#X connect 8 0 9 0;
#X connect 9 0 21 0;
#X connect 11 0 14 0;
#X connect 16 0 19 0;
#X connect 23 0 9 1;
#X coords 0 0 1 1 156 15 0;
