#N canvas 573 77 924 784 10;
#X text -7 -90 select scene with nbx \; select channel with touch \;
set delay time with nbx \; activate/deactivate.;
#X msg 202 59 label --;
#X obj 242 34 r \$0-init;
#X obj 202 -3 r \$0-label.reset;
#X obj 202 34 t b;
#X obj 100 100 cnv 15 352 20 empty empty empty 20 12 0 14 -133153 -66577
0;
#X obj 104 103 tgl 15 0 empty empty empty 17 12 0 10 -262144 -1 -1
1 1;
#X obj 5 470 iem_r;
#X obj 5 494 spigot 0;
#X obj 104 101 iemgui/iem_image /home/sad/00.Pd/projects/_Xth-Sense/dev/lib/../images/circ.button.on.gif
0 0 empty empty;
#X msg 229 234 label \$1;
#X obj 157 371 symbol;
#X obj 138 282 sel 0 1;
#X obj -71 218 pipe 500;
#X obj 104 235 t f f f f;
#X obj 198 103 hradio 15 1 0 3 empty empty Ch.Ten 2 8 0 8 -1 -1 -262144
0;
#X obj 388 18 s \$0-param-receive;
#X obj 138 550 s \$0-label.reset;
#X obj 388 -170 r SSSAD;
#N canvas 247 193 618 329 route.and.parse.OSC 0;
#X obj 136 20 inlet SSSAD;
#X obj 136 218 outlet;
#X obj 28 207 prepend set;
#X msg 29 233 /vol 0;
#X obj 136 97 t b;
#X obj 171 98 t b;
#X obj 207 97 t b;
#X obj 243 96 t b;
#X obj 278 97 t b;
#X obj 314 97 t b;
#X obj 350 100 t b;
#X obj 385 100 t b;
#X obj 421 101 t b;
#X obj 457 100 t b;
#X msg 176 142 /ch2;
#X msg 216 142 /ch3;
#X msg 256 142 /ch4;
#X msg 296 142 /ch5;
#X msg 336 142 /ch6;
#X msg 376 141 /ch7;
#X msg 416 142 /ch8;
#X msg 456 142 /ch9;
#X msg 136 142 /ch1;
#X msg 496 142 /ch10;
#X obj 136 191 symbol;
#X obj 136 51 routeOSC /ch1 /ch2 /ch3 /ch4 /ch5 /ch6 /ch7 /ch8 /ch9
/ch10 /ch11;
#X obj 507 100 t b;
#X msg 546 142 /ch11;
#X connect 0 0 25 0;
#X connect 2 0 3 0;
#X connect 4 0 22 0;
#X connect 5 0 14 0;
#X connect 6 0 15 0;
#X connect 7 0 16 0;
#X connect 8 0 17 0;
#X connect 9 0 18 0;
#X connect 10 0 19 0;
#X connect 11 0 20 0;
#X connect 12 0 21 0;
#X connect 13 0 23 0;
#X connect 14 0 24 0;
#X connect 15 0 24 0;
#X connect 16 0 24 0;
#X connect 17 0 24 0;
#X connect 18 0 24 0;
#X connect 19 0 24 0;
#X connect 20 0 24 0;
#X connect 21 0 24 0;
#X connect 22 0 24 0;
#X connect 23 0 24 0;
#X connect 24 0 1 0;
#X connect 25 0 2 0;
#X connect 25 0 4 0;
#X connect 25 1 5 0;
#X connect 25 2 6 0;
#X connect 25 3 7 0;
#X connect 25 4 8 0;
#X connect 25 5 9 0;
#X connect 25 6 10 0;
#X connect 25 7 11 0;
#X connect 25 8 12 0;
#X connect 25 9 13 0;
#X connect 25 10 26 0;
#X connect 26 0 27 0;
#X connect 27 0 24 0;
#X restore 388 -57 pd route.and.parse.OSC;
#X obj 388 -83 spigot 1;
#X obj 545 -158 r SCENE.LOAD;
#N canvas 18 133 261 197 open.close 0;
#X obj 84 58 t b b;
#X obj 84 80 del 900;
#X msg 139 80 0;
#X obj 84 32 inlet;
#X obj 84 156 outlet;
#X msg 84 107 1;
#X connect 0 0 1 0;
#X connect 0 1 2 0;
#X connect 1 0 5 0;
#X connect 2 0 4 0;
#X connect 3 0 0 0;
#X connect 5 0 4 0;
#X restore 545 -132 pd open.close;
#X obj 574 -103 tgl 15 0 empty empty empty 17 7 0 10 -262144 -1 -1
1 1;
#N canvas 632 156 239 248 animation 0;
#X obj 39 46 inlet on.off;
#X msg 39 177 open \$1;
#X obj 39 68 sel 1 0;
#X obj 128 67 r \$0-init;
#X obj 39 202 outlet open.image;
#N canvas 248 193 349 270 find-image-on 0;
#X obj 60 195 mergefilename /;
#X msg 60 164 \$1 \$2;
#X obj 60 139 pack s s;
#X obj 72 33 loadbang;
#X obj 60 61 t b b;
#X obj 38 35 bng 15 250 50 0 empty empty empty 17 7 0 10 -262144 -1
-1;
#X obj 60 225 outlet;
#X obj 60 11 inlet;
#X obj 60 84 getdir 4;
#X obj 105 112 symbol ../images/circ.button.on.gif;
#X connect 0 0 6 0;
#X connect 1 0 0 0;
#X connect 2 0 1 0;
#X connect 3 0 4 0;
#X connect 4 0 8 0;
#X connect 4 1 9 0;
#X connect 5 0 4 0;
#X connect 7 0 4 0;
#X connect 8 0 2 0;
#X connect 9 0 2 1;
#X restore 39 122 pd find-image-on;
#N canvas 39 162 349 270 find-image-off 0;
#X obj 60 195 mergefilename /;
#X msg 60 164 \$1 \$2;
#X obj 60 139 pack s s;
#X obj 72 33 loadbang;
#X obj 60 61 t b b;
#X obj 38 35 bng 15 250 50 0 empty empty empty 17 7 0 10 -262144 -1
-1;
#X obj 60 225 outlet;
#X obj 60 11 inlet;
#X obj 60 84 getdir 4;
#X obj 105 112 symbol ../images/circ.button.off.gif;
#X connect 0 0 6 0;
#X connect 1 0 0 0;
#X connect 2 0 1 0;
#X connect 3 0 4 0;
#X connect 4 0 8 0;
#X connect 4 1 9 0;
#X connect 5 0 4 0;
#X connect 7 0 4 0;
#X connect 8 0 2 0;
#X connect 9 0 2 1;
#X restore 58 98 pd find-image-off;
#X obj 16 69 bng 15 250 50 0 empty empty empty 17 7 0 10 -262144 -1
-1;
#X connect 0 0 2 0;
#X connect 1 0 4 0;
#X connect 2 0 5 0;
#X connect 2 1 6 0;
#X connect 3 0 6 0;
#X connect 5 0 1 0;
#X connect 6 0 1 0;
#X connect 7 0 6 0;
#X restore 69 64 pd animation;
#N canvas 937 77 595 483 mix.fade 0;
#X obj 77 165 line3;
#X floatatom 279 -1 5 0 0 0 - - -;
#X obj 77 201 gui.spigot /main.fader;
#X obj 205 35 f;
#X msg 166 35 1;
#X floatatom 36 252 5 0 0 0 - - -;
#X obj 46 -70 bng 15 250 50 0 empty empty empty 17 7 0 10 -262144 -1
-1;
#X text 72 340 First read the current volume of a given fader \; then
set [line3] \, and send a new target value \; this is to avoid [line3]
to start at a random point.;
#X obj 77 -69 inlet;
#X obj 77 97 pack f f;
#X obj 77 -47 trigger b b b b;
#X obj 166 128 t a;
#X obj 131 247 s \$0-reset;
#X obj 192 70 r \$0-reset;
#X msg 192 92 0;
#X obj 131 225 sel 0;
#X floatatom 178 278 5 0 0 0 - - -;
#X obj 220 -60 r \$0-current.vol;
#X obj 77 296 outlet;
#X obj 327 -60 r \$0-target.value;
#X obj 122 37 f;
#X obj 441 -61 r \$0-ramp.duration;
#X obj 77 37 f;
#X obj 327 -36 t f f;
#X obj 220 -30 * 127;
#X obj 350 29 r xth-sense_reset.automation;
#X obj 350 51 t b b;
#X msg 377 79 0;
#X connect 0 0 2 0;
#X connect 2 0 5 0;
#X connect 2 0 15 0;
#X connect 2 0 18 0;
#X connect 3 0 0 0;
#X connect 4 0 11 0;
#X connect 6 0 10 0;
#X connect 8 0 10 0;
#X connect 9 0 0 0;
#X connect 10 0 22 0;
#X connect 10 1 20 0;
#X connect 10 2 4 0;
#X connect 10 3 3 0;
#X connect 11 0 2 1;
#X connect 13 0 14 0;
#X connect 14 0 11 0;
#X connect 15 0 12 0;
#X connect 16 0 18 0;
#X connect 17 0 24 0;
#X connect 19 0 23 0;
#X connect 20 0 9 1;
#X connect 21 0 20 1;
#X connect 22 0 9 0;
#X connect 23 0 22 1;
#X connect 23 1 15 1;
#X connect 24 0 1 0;
#X connect 24 0 3 1;
#X connect 25 0 26 0;
#X connect 26 0 14 0;
#X connect 26 1 27 0;
#X connect 27 0 0 0;
#X restore 350 234 pd mix.fade;
#N canvas 177 133 450 300 set.scene.and.delay 0;
#X obj 82 15 r SCENE.LOAD;
#X obj 182 49 inlet scene.to.bang;
#X obj 309 49 inlet delay.in.ms;
#X obj 82 167 outlet bang;
#X obj 82 109 sel 0;
#X obj 82 142 del 1;
#X msg 41 29 17;
#X msg 24 99 18;
#X msg 29 65 2;
#X obj 82 38 pipe 1000;
#X connect 0 0 9 0;
#X connect 1 0 4 1;
#X connect 2 0 5 1;
#X connect 4 0 5 0;
#X connect 5 0 3 0;
#X connect 6 0 4 1;
#X connect 7 0 4 0;
#X connect 8 0 4 0;
#X connect 9 0 4 0;
#X restore 350 202 pd set.scene.and.delay;
#X obj 350 464 iem_s;
#X obj 350 308 spigot 1;
#X obj 125 103 hradio 15 1 0 3 empty empty On.scene 3 8 0 8 -1 -1 -262144
0;
#X obj 247 103 hradio 15 1 0 3 empty empty Wait 6 8 0 8 -1 -1 -262144
0;
#X obj 320 103 hradio 15 1 0 3 empty empty Reach 6 8 0 8 -1 -1 -262144
0;
#X obj 368 127 s \$0-target.value;
#X obj 5 517 s \$0-current.vol;
#X floatatom 363 430 5 0 0 0 - - -;
#X floatatom 442 356 12 0 0 0 - - -;
#X obj 552 145 s \$0-ramp.duration;
#X obj 552 125 * 1000;
#X obj 479 182 * 1000;
#N canvas 829 587 208 246 make.send.name 0;
#X obj 37 151 outlet;
#X obj 37 40 inlet;
#X msg 37 106 set \$1;
#X obj 37 83 makefilename %s/vol;
#X connect 1 0 3 0;
#X connect 2 0 0 0;
#X connect 3 0 2 0;
#X restore 195 423 pd make.send.name;
#N canvas 6 389 261 234 make.receive.name 0;
#X msg -7 105 set \$1;
#X obj -7 80 makefilename current.vol%s;
#X obj -7 54 inlet;
#X obj -7 133 outlet;
#X connect 0 0 3 0;
#X connect 1 0 0 0;
#X connect 2 0 1 0;
#X restore 5 444 pd make.receive.name;
#X obj 157 394 t a a a;
#X obj 190 334 r \$0-param-receive;
#N canvas 538 504 855 305 route.and.parse.label 0;
#X obj 136 238 outlet;
#X obj 136 97 t b;
#X obj 171 98 t b;
#X obj 207 97 t b;
#X obj 243 96 t b;
#X obj 278 97 t b;
#X obj 314 97 t b;
#X obj 350 100 t b;
#X obj 385 100 t b;
#X obj 421 101 t b;
#X obj 457 100 t b;
#X obj 136 211 symbol;
#X obj 136 20 inlet;
#X obj 497 100 t b;
#X msg 136 142 Ch.Main;
#X msg 199 142 Ch.One;
#X msg 257 142 Ch.Two;
#X msg 307 142 Ch.Three;
#X msg 367 142 Ch.Four;
#X msg 420 142 Ch.Five;
#X msg 480 142 Ch.Six;
#X msg 529 142 Ch.Seven;
#X msg 590 142 Ch.Eight;
#X msg 651 142 Ch.Nine;
#X msg 710 143 Ch.Ten;
#X obj 46 145 print;
#X obj 136 51 routeOSC /ch1 /ch2 /ch3 /ch4 /ch5 /ch6 /ch7 /ch8 /ch9
/ch10 /ch11;
#X connect 1 0 14 0;
#X connect 1 0 25 0;
#X connect 2 0 15 0;
#X connect 3 0 16 0;
#X connect 4 0 17 0;
#X connect 5 0 18 0;
#X connect 6 0 19 0;
#X connect 7 0 20 0;
#X connect 8 0 21 0;
#X connect 9 0 22 0;
#X connect 10 0 23 0;
#X connect 11 0 0 0;
#X connect 12 0 26 0;
#X connect 13 0 24 0;
#X connect 14 0 11 0;
#X connect 15 0 11 0;
#X connect 16 0 11 0;
#X connect 17 0 11 0;
#X connect 18 0 11 0;
#X connect 19 0 11 0;
#X connect 20 0 11 0;
#X connect 21 0 11 0;
#X connect 22 0 11 0;
#X connect 23 0 11 0;
#X connect 24 0 11 0;
#X connect 26 0 1 0;
#X connect 26 1 2 0;
#X connect 26 2 3 0;
#X connect 26 3 4 0;
#X connect 26 4 5 0;
#X connect 26 5 6 0;
#X connect 26 6 7 0;
#X connect 26 7 8 0;
#X connect 26 8 9 0;
#X connect 26 9 10 0;
#X connect 26 10 13 0;
#X restore 194 206 pd route.and.parse.label;
#X obj 173 103 gui.nbx.small;
#X obj 295 103 gui.nbx.small;
#X obj 368 103 gui.nbx.small;
#X obj 393 103 hradio 15 1 0 2 empty empty In 6 8 0 8 -1 -1 -262144
0;
#X obj 426 103 gui.nbx.small;
#N canvas 1144 137 183 178 init 0;
#X obj 66 45 loadbang;
#X obj 66 71 s \$0-init;
#X connect 0 0 1 0;
#X restore 627 -6 pd init;
#X obj -69 145 xsssad.auto \$1/delbng;
#X obj -71 173 xsssad.auto \$1/scnbng;
#X obj -71 197 xsssad.auto \$1/paramon;
#X obj 386 60 xsssad.auto \$1/dur;
#X obj 212 370 xsssad.auto \$1/param-r;
#X connect 1 0 15 0;
#X connect 2 0 1 0;
#X connect 3 0 4 0;
#X connect 4 0 1 0;
#X connect 6 0 14 0;
#X connect 6 0 24 0;
#X connect 6 0 52 1;
#X connect 7 0 8 0;
#X connect 8 0 33 0;
#X connect 10 0 15 0;
#X connect 11 0 41 0;
#X connect 11 0 54 1;
#X connect 12 0 17 0;
#X connect 12 1 11 0;
#X connect 13 0 6 0;
#X connect 14 1 8 1;
#X connect 14 2 12 0;
#X connect 14 3 28 1;
#X connect 18 0 20 0;
#X connect 19 0 16 0;
#X connect 20 0 19 0;
#X connect 21 0 22 0;
#X connect 22 0 23 0;
#X connect 22 0 20 1;
#X connect 24 0 9 0;
#X connect 25 0 28 0;
#X connect 26 0 25 0;
#X connect 28 0 27 0;
#X connect 28 0 35 0;
#X connect 34 0 27 0;
#X connect 37 0 36 0;
#X connect 38 0 26 1;
#X connect 39 0 27 1;
#X connect 40 0 7 0;
#X connect 41 0 43 0;
#X connect 41 1 40 0;
#X connect 41 2 39 0;
#X connect 42 0 11 1;
#X connect 43 0 10 0;
#X connect 44 0 26 0;
#X connect 44 0 51 1;
#X connect 45 0 38 0;
#X connect 45 0 50 1;
#X connect 46 0 32 0;
#X connect 48 0 37 0;
#X connect 48 0 53 1;
#X connect 50 0 45 0;
#X connect 51 0 44 0;
#X connect 52 0 13 0;
#X connect 53 0 48 0;
#X connect 54 0 11 0;
#X coords 0 -1 1 1 352 20 2 100 100;
