#N canvas 1115 330 450 300 10;
#N canvas 887 446 259 226 make.label.value 0;
#X obj 62 40 inlet;
#X obj 62 159 s \$0-label;
#X msg 62 130 label \$1;
#X obj 62 68 makefilename %f;
#X obj 62 99 stripfilename -4;
#X connect 0 0 3 0;
#X connect 2 0 1 0;
#X connect 3 0 4 0;
#X connect 4 0 2 0;
#X restore 127 173 pd make.label.value;
#X obj 100 146 t f f;
#X obj 100 196 outlet value;
#X obj 100 65 inlet;
#X obj 100 100 nbx 1 15 0 127 0 0 empty empty empty 0 -8 0 8 -1 -262144
-1 0 256;
#X obj 103 100 hsl 17 15 0 127 0 0 gdsfaf \$0-label 0.00 -1 8 0 8 -128992
-128992 -262144 0 1;
#X connect 1 0 2 0;
#X connect 1 1 0 0;
#X connect 3 0 4 0;
#X connect 4 0 1 0;
#X coords 0 -1 1 1 22 15 2 100 100;
