#N canvas 264 325 450 300 10;
#X obj 82 44 inlet;
#X obj 145 216 outlet;
#X obj 82 214 outlet;
#X obj 82 133 - 1;
#X obj 82 177 abs;
#X obj 82 74 t f f;
#X connect 0 0 5 0;
#X connect 3 0 4 0;
#X connect 4 0 2 0;
#X connect 5 0 3 0;
#X connect 5 1 1 0;
