#N canvas 704 303 526 299 10;
#X declare -lib xthsense;
#X text 252 78 ARGUMENT;
#X text 253 214 OUTLETS;
#X text 254 148 INLETS;
#X text 253 94 Receiver identifier;
#X text 254 164 Stereo signal;
#X text 254 179 Stereo signal;
#X text 253 231 None;
#X obj 40 78 mix.aux.stereo~ dog;
#X obj 40 12 osc~ 200;
#X text 250 21 GUI aux send (scroll to set the aux amount);
#X obj 40 222 dac~;
#X obj 39 163 receive~ dog_l;
#X obj 60 193 receive~ dog_r;
#X obj 40 38 *~ 0.5;
#X text 84 76 This sends "dog";
#X text 250 37 Can also use sssad (see inside the object);
#X obj 419 274 import xthsense;
#X connect 8 0 13 0;
#X connect 11 0 10 0;
#X connect 12 0 10 1;
#X connect 13 0 7 0;
#X connect 13 0 7 1;
