#N canvas 740 179 499 430 10;
#X obj 72 37 inlet;
#X msg 72 298 1;
#X msg 102 298 0;
#X msg 102 191 stop;
#X obj 72 325 outlet;
#X obj 102 233 delay 10;
#X obj 72 115 select 1;
#X obj 72 89 change;
#X obj 72 63 > 0;
#X obj 72 144 t b b;
#X obj 169 189 b;
#X obj 224 105 loadbang;
#X obj 224 146 f \$1;
#X obj 224 186 max 10;
#X obj 281 105 r \$0-init;
#X text 189 258 Borrowed from PdMtl library \; Author: Claudius Maximus
\; Modified by Thomas Ouellet Fredericks \; See: http://wiki.dataflow.ws/PdMtlAbstractions
;
#X connect 0 0 8 0;
#X connect 1 0 4 0;
#X connect 2 0 4 0;
#X connect 3 0 5 0;
#X connect 5 0 2 0;
#X connect 6 0 9 0;
#X connect 6 1 10 0;
#X connect 7 0 6 0;
#X connect 8 0 7 0;
#X connect 9 0 1 0;
#X connect 9 1 3 0;
#X connect 10 0 5 0;
#X connect 11 0 12 0;
#X connect 12 0 13 0;
#X connect 13 0 5 1;
#X connect 14 0 12 0;
