#N canvas 519 209 450 486 10;
#X obj 102 100 nbx 3 15 0 100 0 0 empty empty empty 0 -8 0 8 -1 -262144
-1 0 256;
#X obj 140 299 inlet~;
#X obj 242 301 inlet~;
#X obj 138 358 s~ \$1_l;
#X obj 243 355 s~ \$1_r;
#X obj 139 327 *~;
#X obj 243 328 *~;
#X obj 103 100 hsl 30 15 0 127 0 0 gdsfaf \$0-amount 0 0 8 0 8 -128992
-128992 -262144 0 1;
#N canvas 619 248 339 236 label 0;
#X obj 64 39 inlet;
#X symbolatom 74 138 10 0 0 0 - - -;
#X obj 64 114 makefilename %d;
#X msg 64 159 label \$1;
#X obj 112 63 loadbang;
#X obj 64 181 s \$0-amount;
#X msg 112 82 0;
#X connect 0 0 2 0;
#X connect 2 0 1 0;
#X connect 2 0 3 0;
#X connect 3 0 5 0;
#X connect 4 0 6 0;
#X connect 6 0 2 0;
#X restore 119 178 pd label;
#X obj 155 262 utils.zipper~;
#X obj 257 262 utils.zipper~;
#X obj 136 210 scale.lin 1 0 100;
#X obj 136 231 t f f f;
#X obj -21 122 xsssad \$1/wet;
#X obj 102 122 t f f f f;
#X obj 182 179 switch~;
#X obj 182 156 mix.switchoglitch 12;
#X connect 0 0 14 0;
#X connect 1 0 5 0;
#X connect 2 0 6 0;
#X connect 5 0 3 0;
#X connect 6 0 4 0;
#X connect 9 0 5 1;
#X connect 10 0 6 1;
#X connect 11 0 12 0;
#X connect 12 1 9 0;
#X connect 12 2 10 0;
#X connect 13 0 14 0;
#X connect 14 0 13 1;
#X connect 14 1 8 0;
#X connect 14 2 11 0;
#X connect 14 3 16 0;
#X connect 16 0 15 0;
#X coords 0 -1 1 1 35 15 2 100 100;
