#N canvas 763 420 743 394 10;
#X obj 284 61 loadbang;
#X obj 284 88 symbol \$1;
#X obj 284 158 makefilename /aux.%s_l;
#X msg 284 189 set \$1;
#X msg 444 189 set \$1;
#X obj 444 158 makefilename /aux.%s_r;
#X obj 285 254 outlet~ left;
#X obj 445 254 outlet~ right;
#X obj 284 115 t s s s;
#X obj 608 187 s \$0-label;
#X obj 193 101 hsl 60 15 0 0 0 0 gdfgsdfgs dgsdfsgh aux.five 0 8 0
8 -260097 -260097 -1 0 1;
#X obj 190 78 r \$0-label;
#X msg 608 160 label aux.\$1;
#X obj 284 218 r~ dummy;
#X obj 444 218 r~ dummy;
#X connect 0 0 1 0;
#X connect 1 0 8 0;
#X connect 2 0 3 0;
#X connect 3 0 13 0;
#X connect 4 0 14 0;
#X connect 5 0 4 0;
#X connect 8 0 2 0;
#X connect 8 1 5 0;
#X connect 8 2 12 0;
#X connect 11 0 10 0;
#X connect 12 0 9 0;
#X connect 13 0 6 0;
#X connect 14 0 7 0;
#X coords 0 -1 1 1 155 14 1 100 100;
