#N canvas 788 387 450 300 10;
#X declare -lib xthsense;
#X obj 41 59 mix.xfade;
#X floatatom 41 23 5 0 1 0 - - -;
#X obj 41 113 vsl 15 128 0 1 0 0 empty empty empty 0 -9 0 10 -262144
-1 -1 0 1;
#X obj 92 113 vsl 15 128 0 1 0 0 empty empty empty 0 -9 0 10 -262144
-1 -1 0 1;
#X text 156 23 A fader for floats (between 0 and 1);
#X text 155 62 ARGUMENT;
#X text 156 198 OUTLETS;
#X text 157 132 INLETS;
#X text 156 78 None;
#X text 157 148 Float between 0 and 1;
#X text 157 213 Fade left;
#X text 157 229 Fade right;
#X obj 339 264 import xthsense;
#X connect 0 0 2 0;
#X connect 0 1 3 0;
#X connect 1 0 0 0;
