#N canvas 568 334 593 357 10;
#X declare -lib xthsense;
#X obj 22 170 mix.send.stereo~ dog;
#X obj 23 28 osc~ 200;
#X obj 23 56 *~ 0.5;
#X obj 25 266 dac~;
#X obj 139 56 *~ 0.5;
#X obj 139 29 osc~ 400;
#X obj 38 92 tgl 15 0 empty empty empty 17 7 0 10 -262144 -1 -1 0 1
;
#X text 270 81 ARGUMENT;
#X text 271 217 OUTLETS;
#X text 272 151 INLETS;
#X text 271 97 Receiver identifier;
#X text 272 232 None;
#X obj 25 226 mix.receive.stereo~ dog;
#X obj 38 115 utils.zipper~;
#X obj 22 141 *~;
#X obj 156 92 tgl 15 0 empty empty empty 17 7 0 10 -262144 -1 -1 0
1;
#X obj 156 115 utils.zipper~;
#X obj 140 141 *~;
#X text 272 40 To be used with [mix.receive.stereo~];
#X obj 469 324 import xthsense;
#X text 272 22 A wrap for a settable stereo sender;
#X text 272 168 Right audio channel;
#X text 273 185 Left audio channel;
#X connect 1 0 2 0;
#X connect 2 0 14 0;
#X connect 4 0 17 0;
#X connect 5 0 4 0;
#X connect 6 0 13 0;
#X connect 12 0 3 0;
#X connect 12 1 3 1;
#X connect 13 0 14 1;
#X connect 14 0 0 0;
#X connect 15 0 16 0;
#X connect 16 0 17 1;
#X connect 17 0 0 1;
