#N canvas 845 346 526 300 10;
#X text 229 64 ARGUMENT;
#X text 230 220 OUTLETS;
#X text 231 134 INLETS;
#X text 230 80 None;
#X text 231 181 Float between 0 and 1;
#X obj 34 173 mix.xfade~;
#X obj 33 38 osc~ 200;
#X obj 62 90 phasor~ 400;
#X obj 34 62 *~ 0.5;
#X obj 33 215 dac~;
#X floatatom 91 147 5 0 1 1 Fade_amount - -;
#X obj 63 113 *~ 0.3;
#X text 231 235 Mono signal;
#X text 230 25 A fader for mono audio signals;
#X text 231 152 Mono signal;
#X text 231 166 Mono signal;
#X connect 5 0 9 0;
#X connect 5 0 9 1;
#X connect 6 0 8 0;
#X connect 7 0 11 0;
#X connect 8 0 5 0;
#X connect 10 0 5 2;
#X connect 11 0 5 1;
