#N canvas 166 325 746 390 10;
#X text 306 291 Borrowed from PdMtl library \; Author: Claudius Maximus
\; Modified by Thomas Ouellet Fredericks \; See: http://wiki.dataflow.ws/PdMtlAbstractions
;
#X obj 28 29 osc~ 200;
#X obj 110 213 switch~ 1;
#X floatatom 144 191 5 0 0 1 Switch_on/off - -;
#X obj 110 169 t f f;
#X obj 27 212 dac~;
#X obj 27 152 *~ 0.5;
#X floatatom 60 82 5 0 0.9 1 Volume - -;
#X obj 60 104 t f f;
#X obj 110 146 mix.switchoglitch 5;
#X text 306 114 ARGUMENT;
#X text 307 225 OUTLETS;
#X text 307 169 INLETS;
#X text 307 129 Delay in ms (max 10);
#X text 307 185 Control value;
#X text 308 240 1 or 0;
#X text 305 16 This is an elegant way to switch off the audio \; of
a single patch according to the volume \; or the mix amount for instance.
It allows to set \; a little delay that can save you from badly cutting
that \; long reverb you wanted.;
#X connect 1 0 6 0;
#X connect 4 0 2 0;
#X connect 4 1 3 0;
#X connect 6 0 5 0;
#X connect 6 0 5 1;
#X connect 7 0 8 0;
#X connect 8 0 6 1;
#X connect 8 1 9 0;
#X connect 9 0 4 0;
