#N canvas 543 138 751 662 10;
#X obj 72 391 outlet~;
#X obj 72 356 +~;
#X obj 356 132 -;
#X msg 356 108 1 \$1;
#X obj 329 -59 loadbang;
#X obj 127 391 outlet;
#X obj 356 392 outlet;
#X obj 329 74 t f f;
#N canvas 0 0 458 308 pow 0;
#X obj 125 174 pow 2;
#X msg 127 216 1 \$1;
#X obj 135 243 -;
#X obj 121 141 inlet;
#X obj 201 140 inlet;
#X obj 135 270 outlet;
#X connect 0 0 1 0;
#X connect 1 0 2 0;
#X connect 2 0 5 0;
#X connect 3 0 0 0;
#X connect 4 0 0 1;
#X restore 356 170 pd pow;
#N canvas 0 0 454 304 pow 0;
#X obj 125 174 pow 2;
#X msg 127 216 1 \$1;
#X obj 135 243 -;
#X obj 121 141 inlet;
#X obj 201 140 inlet;
#X obj 135 270 outlet;
#X connect 0 0 1 0;
#X connect 1 0 2 0;
#X connect 2 0 5 0;
#X connect 3 0 0 0;
#X connect 4 0 0 1;
#X restore 127 178 pd pow;
#X obj 127 204 t f f;
#X obj 356 210 t f f;
#X obj 329 -34 f \$2;
#X obj 483 -113 loadbang;
#X obj 483 -91 f \$1;
#X obj 329 2 clip -1 1;
#X obj 329 25 + 1;
#X obj 329 50 / 2;
#X obj 527 -43 sel 0;
#X obj 483 -67 moses 0;
#X msg 483 -16 1;
#X obj 503 28 f;
#X obj 71 316 *~;
#X obj 205 317 *~;
#X obj 449 -140 inlet curve;
#X obj 310 -82 inlet mix(-1_to_1);
#X obj 548 75 inlet cross_ms;
#X obj 87 248 pack f 5;
#X obj 220 256 pack f 5;
#X obj 87 279 line~;
#X obj 220 291 line~;
#X text 438 255 This is borrowed from [mix.crossfade~] \; in the PdMtl
Library \; See: http://wiki.dataflow.ws/PdMtlAbstractions;
#X obj 204 -46 inlet~;
#X text 73 -78 DRY;
#X text 206 -70 EFX;
#X obj 72 -46 inlet~;
#X connect 1 0 0 0;
#X connect 2 0 8 0;
#X connect 3 0 2 0;
#X connect 4 0 12 0;
#X connect 7 0 9 0;
#X connect 7 1 3 0;
#X connect 8 0 11 0;
#X connect 9 0 10 0;
#X connect 10 0 5 0;
#X connect 10 1 27 0;
#X connect 11 0 6 0;
#X connect 11 1 28 0;
#X connect 12 0 15 0;
#X connect 13 0 14 0;
#X connect 14 0 19 0;
#X connect 15 0 16 0;
#X connect 16 0 17 0;
#X connect 17 0 7 0;
#X connect 18 0 20 0;
#X connect 18 1 21 0;
#X connect 19 0 20 0;
#X connect 19 1 18 0;
#X connect 20 0 21 0;
#X connect 21 0 8 1;
#X connect 21 0 9 1;
#X connect 22 0 1 0;
#X connect 23 0 1 1;
#X connect 24 0 14 0;
#X connect 25 0 12 0;
#X connect 26 0 28 1;
#X connect 26 0 27 1;
#X connect 27 0 29 0;
#X connect 28 0 30 0;
#X connect 29 0 22 1;
#X connect 30 0 23 1;
#X connect 32 0 23 0;
#X connect 35 0 22 0;
