#N canvas 611 322 680 265 10;
#X obj 399 -39 loadbang;
#X symbolatom 414 37 10 0 0 0 - - -;
#X obj 468 123 s \$0-label;
#X obj 193 100 hsl 60 16 0 0 0 0 gdfgsdfgs dgsdfsgh in.1.l 0 8 0 8
-1 -1 -262144 0 1;
#X obj 190 78 r \$0-label;
#X obj 326 176 outlet~;
#X text 101 -15 TAKES 1 ARGUMENT: input name;
#X msg 399 94 set \$1;
#X obj 399 16 makefilename %d.l;
#X msg 468 96 label in.\$1;
#X floatatom 358 19 5 0 0 0 - - -;
#X obj 469 -38 inlet number;
#X obj 399 -13 f \$1;
#X obj 399 59 t s s;
#X obj 325 121 receive~ dummy;
#X connect 0 0 12 0;
#X connect 4 0 3 0;
#X connect 7 0 14 0;
#X connect 8 0 1 0;
#X connect 8 0 13 0;
#X connect 9 0 2 0;
#X connect 10 0 8 0;
#X connect 11 0 8 0;
#X connect 12 0 8 0;
#X connect 13 0 7 0;
#X connect 13 1 9 0;
#X connect 14 0 5 0;
#X coords 0 -1 1 1 155 15 1 100 100;
