#N canvas 143 275 648 399 10;
#X text 341 337 This is borrowed from [mix.crossfade~] \; in the PdMtl
Library \; See: http://wiki.dataflow.ws/PdMtlAbstractions;
#X text 341 36 A smooth mixer for mono audio signals.;
#X obj 52 37 osc~ 200;
#X obj 123 38 phasor~ 300;
#X obj 52 351 dac~;
#X obj 52 199 mix.ch.stereo~;
#X floatatom 140 63 5 -1 1 1 mix - -;
#X obj 51 147 mix.xfade.curve~ 2;
#X floatatom 157 89 5 -1 1 1 curve - -;
#X floatatom 168 115 5 -1 1 1 crossfade_time - -;
#X text 340 71 ARGUMENT;
#X text 341 247 OUTLETS;
#X text 342 130 INLETS;
#X text 341 87 Curve;
#X text 342 146 Mono audio signal;
#X text 343 162 Mono audio signal;
#X text 342 178 Mix amount (-1 to 1);
#X text 343 194 Curve mode (max?);
#X text 343 211 Crossfade time in ms;
#X text 342 262 Mono audio signal;
#X floatatom 141 235 5 0 0 1 Fade_amount - -;
#X floatatom 171 193 5 0 0 1 Fade_amount - -;
#X text 342 278 Fade amount;
#X text 342 294 Fade amount;
#X connect 2 0 7 0;
#X connect 3 0 7 1;
#X connect 5 0 4 0;
#X connect 5 1 4 1;
#X connect 6 0 7 2;
#X connect 7 0 5 0;
#X connect 7 0 5 1;
#X connect 7 1 20 0;
#X connect 7 2 21 0;
#X connect 8 0 7 3;
#X connect 9 0 7 4;
