#N canvas 130 77 470 381 10;
#X obj 67 125 line3;
#X floatatom 239 -23 5 0 0 0 - - -;
#X obj 67 161 gui.spigot /main.fader;
#X obj 195 -5 f;
#X msg 156 -5 1;
#X floatatom 26 212 5 0 0 0 - - -;
#X obj 36 -60 bng 15 250 50 0 empty empty empty 17 7 0 10 -262144 -1
-1;
#X text 151 129 First read the current volume of a given fader \; then
set [line3] \, and send a new target value \; this is to avoid [line3]
to start at a random point.;
#X obj 67 -59 inlet;
#X obj 112 -5 f \$2;
#X obj 67 57 pack f f;
#X obj 67 -37 trigger b b b b;
#X msg 67 -5 0;
#X obj 156 88 t a;
#X obj 121 207 s \$0-reset;
#X obj 182 30 r \$0-reset;
#X msg 182 52 0;
#X obj 210 -50 r current.vol/\$1;
#X obj 67 256 s /\$1/vol;
#X obj 121 185 sel 0;
#X floatatom 168 238 5 0 0 0 - - -;
#X obj 67 207 * 127;
#X connect 0 0 2 0;
#X connect 2 0 5 0;
#X connect 2 0 19 0;
#X connect 2 0 21 0;
#X connect 3 0 0 0;
#X connect 4 0 13 0;
#X connect 6 0 11 0;
#X connect 8 0 11 0;
#X connect 9 0 10 1;
#X connect 10 0 0 0;
#X connect 11 0 12 0;
#X connect 11 1 9 0;
#X connect 11 2 4 0;
#X connect 11 3 3 0;
#X connect 12 0 10 0;
#X connect 13 0 2 1;
#X connect 15 0 16 0;
#X connect 16 0 13 0;
#X connect 17 0 1 0;
#X connect 17 0 3 1;
#X connect 19 0 14 0;
#X connect 20 0 18 0;
#X connect 21 0 18 0;
