#N canvas 325 190 732 335 10;
#X obj 386 -87 loadbang;
#X symbolatom 398 -25 10 0 0 0 - - -;
#X obj 544 66 s \$0-label;
#X obj 456 -86 inlet symbol;
#X obj 93 0 hsl 60 16 0 0 0 0 gdfgsdfgs dgsdfsgh ch.nine 0 8 0 8 -1
-1 -262144 0 1;
#X msg 544 39 label ch.\$1;
#X obj 90 -22 r \$0-label;
#X obj 329 -121 inlet~ r;
#X obj 225 -120 inlet~ l;
#X msg 354 -70 one;
#X obj 295 -13 init 1;
#X msg 386 39 set ch.\$1_l;
#X msg 465 39 set ch.\$1_r;
#X obj 386 -49 symbol \$1;
#X text 1 -115 TAKES 1 ARGUMENT: channel name;
#X obj 226 18 efx.puncher~;
#X obj 386 -3 t s s s;
#X obj 226 146 throw~ dummy;
#X obj 330 146 throw~ dummy;
#X connect 0 0 13 0;
#X connect 3 0 13 0;
#X connect 5 0 2 0;
#X connect 6 0 4 0;
#X connect 7 0 15 1;
#X connect 8 0 15 0;
#X connect 9 0 13 0;
#X connect 10 0 15 2;
#X connect 11 0 17 0;
#X connect 12 0 18 0;
#X connect 13 0 1 0;
#X connect 13 0 16 0;
#X connect 15 0 17 0;
#X connect 15 1 18 0;
#X connect 16 0 11 0;
#X connect 16 1 12 0;
#X connect 16 2 5 0;
#X coords 0 -1 1 1 155 15 1 0 0;
