#N canvas 224 390 597 363 10;
#X declare -lib xthsense;
#X text 280 91 ARGUMENT;
#X text 281 227 OUTLETS;
#X text 282 161 INLETS;
#X text 281 107 Receiver identifier;
#X text 281 242 Stereo signal;
#X text 281 257 Stereo signal;
#X text 282 174 None;
#X text 282 32 A wrap for a stereo catcher;
#X text 282 50 To be used with [mix.throw.stereo~];
#X obj 40 39 osc~ 200;
#X obj 40 67 *~ 0.5;
#X obj 42 277 dac~;
#X obj 161 67 *~ 0.5;
#X obj 161 40 osc~ 400;
#X obj 55 103 tgl 15 0 empty empty empty 17 7 0 10 -262144 -1 -1 0
1;
#X obj 55 126 utils.zipper~;
#X obj 39 152 *~;
#X obj 178 103 tgl 15 0 empty empty empty 17 7 0 10 -262144 -1 -1 0
1;
#X obj 178 126 utils.zipper~;
#X obj 162 152 *~;
#X obj 40 185 mix.throw.stereo~ dog;
#X obj 42 237 mix.catch.stereo~ dog;
#X obj 469 334 import xthsense;
#X connect 9 0 10 0;
#X connect 10 0 16 0;
#X connect 12 0 19 0;
#X connect 13 0 12 0;
#X connect 14 0 15 0;
#X connect 15 0 16 1;
#X connect 16 0 20 0;
#X connect 17 0 18 0;
#X connect 18 0 19 1;
#X connect 19 0 20 1;
#X connect 21 0 11 0;
#X connect 21 1 11 1;
