#N canvas 478 63 529 779 10;
#X obj 20 503 *~;
#X obj 196 83 cnv 15 45 119 empty empty empty 20 12 0 14 -133153 -262144
0;
#X obj 200 90 vsl 8 100 0 1 0 0 szgzfsg cnhxcvnc empty 0 -9 0 10 -24967
-24967 -1 0 1;
#X obj 210 90 vsl 8 100 0 1 0 0 szgzfsg vcbcv empty 0 -9 0 10 -24967
-24967 -1 0 1;
#X obj 220 91 vsl 15 100 0 1 0 0 szgzfsg dfgdg empty 0 -9 0 10 -158119
-162280 -1 0 1;
#X obj 211 199 cnv 6 6 1 empty \$0-right empty 20 12 0 14 -24198 -24198
0;
#X obj 201 199 cnv 6 6 1 empty \$0-left empty 20 12 0 14 -24198 -24198
0;
#X obj 21 419 inlet~ l;
#X obj 111 418 inlet~ r;
#X obj 112 505 *~;
#X obj 20 655 outlet~ l;
#X obj 112 656 outlet~ r;
#X obj 220 194 vsl 15 3 0 1 0 0 szgzfsg \$0-vol empty 0 -9 0 10 -196621
-217090 -1 0 1;
#N canvas 792 310 375 479 size 0;
#X obj 88 35 inlet;
#X obj 88 182 t f f;
#X obj 88 79 change -1;
#X obj 88 113 clip 0 1;
#X obj 88 137 * 100;
#X obj 88 385 s \$0-vol;
#X obj 88 159 + 3;
#X msg 88 228 size 15 \$1;
#X msg 115 338 pos 220 \$1;
#X obj 115 278 scale.lin 97 197 100;
#X connect 0 0 2 0;
#X connect 1 0 7 0;
#X connect 1 1 9 0;
#X connect 2 0 3 0;
#X connect 3 0 4 0;
#X connect 4 0 6 0;
#X connect 6 0 1 0;
#X connect 7 0 5 0;
#X connect 8 0 5 0;
#X connect 9 0 8 0;
#X restore 220 310 pd size;
#X obj 219 -22 loadbang;
#X msg 219 0 0;
#X obj 314 547 == 0;
#X obj 299 568 *~ 1;
#X obj 322 527 tgl 15 0 empty empty M 4 7 0 8 -262144 -1 -1 0 1;
#X obj 196 194 cnv 15 45 15 empty empty empty 20 12 0 14 -128992 -66577
0;
#X obj 281 15 inlet slider;
#X obj 127 477 utils.zipper~;
#X obj 308 67 s \$0-dsp;
#X obj 220 425 r \$0-dsp;
#X obj 281 40 t f f;
#X obj 318 94 r \$0-dsp;
#X obj 308 196 s \$0-dsp;
#X obj 220 450 t f f;
#X obj 247 281 s \$0-dsp;
#X obj 220 222 t f f;
#X obj 219 33 t b f;
#X obj 247 254 spigot 0;
#X msg 292 232 1;
#X obj 81 -17 r \$1/vol;
#X obj 81 7 scale.lin 1 0 127;
#X obj 281 173 t f f;
#N canvas 385 100 627 491 animation 0;
#X obj 282 42 inlet;
#X obj 56 41 inlet~;
#X obj 116 41 inlet~;
#X obj 55 72 peakenv~ 1000;
#X obj 55 353 snapshot~;
#N canvas 860 261 734 553 size&color 0;
#X obj 85 -10 inlet;
#X obj 282 173 moses 50;
#X obj 88 121 t f f;
#X msg 284 204 0;
#X msg 333 216 1;
#X obj 315 271 sel 0 1 2;
#X obj 313 243 change -1;
#X msg 384 221 2;
#X obj 333 194 moses 90;
#X obj 87 96 + 1;
#X obj 85 34 change -1;
#X obj 86 53 clip 0 1;
#X obj 96 74 * 100;
#X obj 30 485 s \$0-left;
#X msg 313 321 color 16 16 16;
#X msg 421 321 color 14 14;
#X msg 510 324 color 13 13 13;
#X obj 67 178 * 1;
#X msg 58 246 vis_size 6 \$1;
#X floatatom 107 201 5 0 0 0 - - -;
#X floatatom 132 340 5 0 0 0 - - -;
#X msg 68 379 pos 201 \$1;
#X obj 116 280 scale.lin 100 200 100;
#X connect 0 0 10 0;
#X connect 1 0 3 0;
#X connect 1 1 8 0;
#X connect 2 0 17 0;
#X connect 2 1 1 0;
#X connect 3 0 6 0;
#X connect 4 0 6 0;
#X connect 5 0 14 0;
#X connect 5 1 15 0;
#X connect 5 2 16 0;
#X connect 6 0 5 0;
#X connect 7 0 6 0;
#X connect 8 0 4 0;
#X connect 8 1 7 0;
#X connect 9 0 2 0;
#X connect 10 0 11 0;
#X connect 11 0 12 0;
#X connect 12 0 9 0;
#X connect 14 0 13 0;
#X connect 15 0 13 0;
#X connect 16 0 13 0;
#X connect 17 0 18 0;
#X connect 17 0 19 0;
#X connect 17 0 22 0;
#X connect 18 0 13 0;
#X connect 21 0 13 0;
#X connect 22 0 20 0;
#X connect 22 0 21 0;
#X restore 309 434 pd size&color;
#X text 487 225 <<< pdmtl;
#X obj 116 95 peakenv~ 1000;
#X obj 117 354 snapshot~;
#X msg 309 190 0;
#X obj 384 251 metro 200;
#X obj 282 138 tgl 15 0 empty empty S 4 7 0 8 -262144 -1 -1 0 1;
#N canvas 860 289 734 553 size&color 0;
#X obj 50 14 inlet;
#X obj 283 165 moses 50;
#X obj 50 134 t f f;
#X msg 283 192 0;
#X msg 328 216 1;
#X obj 313 271 sel 0 1 2;
#X obj 313 243 change -1;
#X msg 373 216 2;
#X obj 328 191 moses 90;
#X obj 50 105 + 1;
#X obj 50 36 change -1;
#X obj 50 59 clip 0 1;
#X obj 50 82 * 100;
#X msg 313 314 color 16 16 16;
#X msg 421 314 color 14 14;
#X msg 510 314 color 13 13 13;
#X obj 50 167 * 1;
#X msg 50 257 vis_size 6 \$1;
#X floatatom 81 191 5 0 0 0 - - -;
#X floatatom 140 300 5 0 0 0 - - -;
#X obj 50 437 s \$0-right;
#X msg 126 352 pos 211 \$1;
#X obj 126 278 scale.lin 100 200 100;
#X connect 0 0 10 0;
#X connect 1 0 3 0;
#X connect 1 1 8 0;
#X connect 2 0 16 0;
#X connect 2 1 1 0;
#X connect 3 0 6 0;
#X connect 4 0 6 0;
#X connect 5 0 13 0;
#X connect 5 1 14 0;
#X connect 5 2 15 0;
#X connect 6 0 5 0;
#X connect 7 0 6 0;
#X connect 8 0 4 0;
#X connect 8 1 7 0;
#X connect 9 0 2 0;
#X connect 10 0 11 0;
#X connect 11 0 12 0;
#X connect 12 0 9 0;
#X connect 13 0 20 0;
#X connect 14 0 20 0;
#X connect 15 0 20 0;
#X connect 16 0 17 0;
#X connect 16 0 18 0;
#X connect 16 0 22 0;
#X connect 17 0 20 0;
#X connect 21 0 20 0;
#X connect 22 0 19 0;
#X connect 22 0 21 0;
#X restore 346 405 pd size&color;
#X obj 282 65 > 0;
#X msg 282 115 set \$1;
#X obj 282 90 t f f;
#X obj 309 163 select 0;
#X obj 309 214 trigger f f f;
#X connect 0 0 13 0;
#X connect 1 0 3 0;
#X connect 2 0 7 0;
#X connect 3 0 4 0;
#X connect 4 0 5 0;
#X connect 7 0 8 0;
#X connect 8 0 12 0;
#X connect 9 0 17 0;
#X connect 10 0 4 0;
#X connect 10 0 8 0;
#X connect 11 0 16 0;
#X connect 13 0 15 0;
#X connect 14 0 11 0;
#X connect 15 0 14 0;
#X connect 15 1 16 0;
#X connect 16 0 9 0;
#X connect 16 1 10 0;
#X connect 17 0 5 0;
#X connect 17 1 12 0;
#X connect 17 2 10 0;
#X restore 178 558 pd animation;
#X obj 281 148 xsssad \$1/vol;
#X obj 318 119 t f f;
#X obj 388 171 switch~;
#X obj 388 149 mix.switchoglitch 600;
#X connect 0 0 10 0;
#X connect 0 0 36 0;
#X connect 4 0 29 0;
#X connect 7 0 0 0;
#X connect 8 0 9 0;
#X connect 9 0 11 0;
#X connect 9 0 36 1;
#X connect 14 0 15 0;
#X connect 15 0 30 0;
#X connect 16 0 17 1;
#X connect 18 0 16 0;
#X connect 20 0 24 0;
#X connect 21 0 0 1;
#X connect 21 0 9 1;
#X connect 23 0 27 0;
#X connect 24 0 4 0;
#X connect 24 1 22 0;
#X connect 25 0 38 0;
#X connect 27 0 21 0;
#X connect 27 1 36 2;
#X connect 29 0 13 0;
#X connect 29 1 31 0;
#X connect 30 0 32 0;
#X connect 30 1 4 0;
#X connect 31 0 28 0;
#X connect 32 0 31 1;
#X connect 33 0 34 0;
#X connect 34 0 4 0;
#X connect 35 0 4 0;
#X connect 35 1 26 0;
#X connect 37 0 35 0;
#X connect 38 0 37 1;
#X connect 38 1 40 0;
#X connect 40 0 39 0;
#X coords 0 -1 1 1 45 126 2 196 83;
