#N canvas 774 244 811 542 10;
#X obj 20 41 osc~ 200;
#X obj 62 451 dac~;
#X obj 62 299 mix.ch.stereo~;
#X floatatom 178 210 5 -1 1 1 mix - -;
#X floatatom 208 239 5 -1 1 1 curve - -;
#X floatatom 201 355 5 0 0 1 Fade_amount - -;
#X floatatom 231 313 5 0 0 1 Fade_amount - -;
#X obj 61 267 mix.xfade.curve.stereo~ 2;
#X obj 48 61 osc~ 240;
#X obj 91 133 phasor~ 100;
#X obj 119 153 phasor~ 120;
#X text 391 420 This is borrowed from [mix.crossfade~] \; in the PdMtl
Library \; See: http://wiki.dataflow.ws/PdMtlAbstractions;
#X text 389 124 ARGUMENT;
#X text 390 300 OUTLETS;
#X text 391 183 INLETS;
#X text 390 140 Curve;
#X text 391 231 Mix amount (-1 to 1);
#X text 392 247 Curve mode (max?);
#X text 392 264 Crossfade time in ms;
#X text 391 331 Fade amount;
#X text 391 347 Fade amount;
#X text 390 59 A smooth mixer for stereo audio signals.;
#X text 391 199 Stereo audio signal;
#X text 392 215 Stereo audio signal;
#X text 391 315 Stereo audio signal;
#X connect 0 0 7 0;
#X connect 2 0 1 0;
#X connect 2 1 1 1;
#X connect 3 0 7 4;
#X connect 4 0 7 5;
#X connect 7 0 2 0;
#X connect 7 1 2 1;
#X connect 7 2 5 0;
#X connect 7 3 6 0;
#X connect 8 0 7 1;
#X connect 9 0 7 2;
#X connect 10 0 7 3;
