#N canvas 434 279 636 387 10;
#X declare -lib xthsense;
#X obj 33 227 mix.set.aux~ doggy;
#X text 337 84 Destination can be specified by argument;
#X text 339 66 A GUI wrap for 2 [receive~];
#X text 340 114 ARGUMENT;
#X text 342 179 OUTLETS;
#X text 341 130 Receiver identifier;
#X text 342 197 Right channel signal;
#X text 341 213 Left channel signal;
#X obj 493 358 import xthsense;
#X obj 37 21 osc~ 200;
#X obj 35 131 *~;
#X obj 36 52 *~ 0.5;
#X obj 50 104 utils.zipper~;
#X obj 50 81 tgl 15 0 empty empty empty 17 7 0 10 -262144 -1 -1 0 1
;
#X obj 34 260 dac~;
#X obj 34 165 send~ /aux.doggy_l;
#X obj 166 23 osc~ 200;
#X obj 164 133 *~;
#X obj 165 54 *~ 0.5;
#X obj 179 106 utils.zipper~;
#X obj 179 83 tgl 15 0 empty empty empty 17 7 0 10 -262144 -1 -1 0
1;
#X obj 163 167 send~ /aux.doggy_r;
#X connect 0 0 14 0;
#X connect 0 1 14 1;
#X connect 9 0 11 0;
#X connect 10 0 15 0;
#X connect 11 0 10 0;
#X connect 12 0 10 1;
#X connect 13 0 12 0;
#X connect 16 0 18 0;
#X connect 17 0 21 0;
#X connect 18 0 17 0;
#X connect 19 0 17 1;
#X connect 20 0 19 0;
