#N canvas 167 198 732 335 10;
#X obj 386 -87 loadbang;
#X symbolatom 386 -24 10 0 0 0 - - -;
#X obj 544 56 s \$0-label;
#X obj 456 -86 inlet symbol;
#X obj 93 0 hsl 60 16 0 0 0 0 gdfgsdfgs dgsdfsgh ch. 0 8 0 8 -1 -1
-262144 0 1;
#X msg 544 29 label ch.\$1;
#X obj 90 -22 r \$0-label;
#X obj 329 -121 inlet~ r;
#X obj 225 -120 inlet~ l;
#X msg 355 -48 one;
#X obj 226 17 fx.punch~;
#X obj 277 -5 init 1;
#X msg 292 18 1;
#X msg 386 29 set ch.\$1_l;
#X msg 465 29 set ch.\$1_r;
#X obj 330 77 throw~ dummy;
#X obj 226 76 throw~ dummy;
#X obj 386 -49 symbol \$1;
#X text 1 -115 TAKES 1 ARGUMENT: channel name;
#N canvas 12 70 450 300 dev-stuff 0;
#N canvas 386 503 988 339 OSCmessages 0;
#X obj 183 261 s GLOBAL_OSC;
#X obj 251 72 inlet tab-active;
#X floatatom 136 67 5 0 0 0 - - -;
#X obj 183 154 float;
#X msg 183 179 /c::ntr::l/module/active \$1;
#X text 198 201 \$1 = active <id>;
#X obj 172 49 t f f;
#X floatatom 398 137 5 0 0 0 - - -;
#X floatatom 797 88 5 0 0 0 - - -;
#X floatatom 601 88 5 0 0 0 - - -;
#X obj 555 32 inlet x-size;
#X obj 764 36 inlet x-pos;
#X obj 172 24 inlet dynamic-id;
#X msg 555 179 /c::ntr::l/w2/module/x-size \$1;
#X msg 765 179 /c::ntr::l/w2/module/x-pos \$1;
#X msg 375 177 /c::ntr::l/w2/module/idx \$1;
#X connect 1 0 3 0;
#X connect 3 0 4 0;
#X connect 4 0 0 0;
#X connect 6 0 3 1;
#X connect 6 1 15 0;
#X connect 7 0 15 0;
#X connect 10 0 13 0;
#X connect 10 0 9 0;
#X connect 11 0 14 0;
#X connect 11 0 8 0;
#X connect 12 0 2 0;
#X connect 12 0 6 0;
#X connect 13 0 0 0;
#X connect 14 0 0 0;
#X connect 15 0 0 0;
#X restore 168 121 pd OSCmessages;
#N canvas 162 269 441 387 id_x-size_x-pos 0;
#X msg 245 264 label \$1;
#X obj 245 292 s \$0-cnv-id;
#X obj 245 240 makefilename %d;
#X obj 279 101 s \$0-id_loadbang;
#X floatatom 233 218 5 0 0 0 - - -;
#X obj 206 73 r \$1_loadbang;
#X floatatom 136 239 5 0 0 0 - - -;
#X floatatom 169 239 5 0 0 0 - - -;
#X obj 136 210 unpack;
#N canvas 0 0 450 300 \$0-xxx 0;
#X obj 147 58 inlet;
#X obj 147 157 outlet;
#X obj 145 81 canvasposition 1;
#X connect 0 0 2 0;
#X connect 2 1 1 0;
#X restore 48 189 pd \$0-xxx;
#X floatatom 48 244 5 0 0 0 - - -;
#X floatatom 81 244 5 0 0 0 - - -;
#X obj 48 215 unpack;
#X obj 206 105 t b b b;
#X text 47 268 dimension;
#X text 139 268 position;
#X obj 136 189 canvasposition 1;
#X obj 245 188 canvasindex 1;
#X obj 136 306 outlet x-pos;
#X obj 48 306 outlet x-size;
#X obj 48 -41 r GLOBAL_OSC;
#X obj 101 55 bng 15 250 50 0 empty empty empty 17 7 0 10 -262144 -1
-1;
#X obj 48 28 routeOSC /globalbng;
#X obj 48 -20 routeOSC /c::ntr::l;
#X obj 48 5 routeOSC /module;
#X obj 48 72 t b b b;
#X obj 275 217 s \$0-dynamic-id;
#X connect 0 0 1 0;
#X connect 2 0 0 0;
#X connect 5 0 3 0;
#X connect 5 0 13 0;
#X connect 6 0 18 0;
#X connect 8 0 6 0;
#X connect 8 1 7 0;
#X connect 9 0 12 0;
#X connect 10 0 19 0;
#X connect 12 0 10 0;
#X connect 12 1 11 0;
#X connect 13 0 9 0;
#X connect 13 1 16 0;
#X connect 13 2 17 0;
#X connect 16 0 8 0;
#X connect 17 0 2 0;
#X connect 17 0 4 0;
#X connect 17 0 26 0;
#X connect 20 0 23 0;
#X connect 22 0 21 0;
#X connect 23 0 24 0;
#X connect 24 0 22 0;
#X connect 25 0 9 0;
#X connect 25 1 16 0;
#X connect 25 2 17 0;
#X restore 222 90 pd id_x-size_x-pos;
#X obj 168 59 r \$0-dynamic-id;
#X msg 132 175 label \$1;
#X obj 132 153 makefilename %d;
#X obj 145 215 vsl 20 10 0 127 0 0 empty empty 3 0 -9 0 10 -1 -1 -262144
0 1;
#X obj 139 28 cnv 15 15 15 empty \$0-cnv-id 3 3 8 0 10 -233017 -66577
0;
#X connect 1 0 0 2;
#X connect 1 1 0 3;
#X connect 2 0 0 0;
#X connect 2 0 4 0;
#X connect 3 0 5 0;
#X connect 4 0 3 0;
#X restore 584 -103 pd dev-stuff;
#X connect 0 0 17 0;
#X connect 1 0 13 0;
#X connect 1 0 5 0;
#X connect 1 0 14 0;
#X connect 3 0 17 0;
#X connect 5 0 2 0;
#X connect 6 0 4 0;
#X connect 7 0 10 1;
#X connect 8 0 10 0;
#X connect 9 0 17 0;
#X connect 10 0 16 0;
#X connect 10 1 15 0;
#X connect 11 0 10 2;
#X connect 12 0 10 2;
#X connect 13 0 16 0;
#X connect 14 0 15 0;
#X connect 17 0 1 0;
#X coords 0 -1 1 1 155 15 1 0 0;
