#N canvas 1016 169 398 593 10;
#X obj -71 34 inlet;
#X obj -71 414 scale.lin;
#X obj -54 387 unpack f f f;
#X obj 100 101 cnv 15 77 19 empty empty empty 20 12 0 14 -191407 -66577
0;
#X obj 102 103 nbx 1 15 0 127 0 0 empty empty empty 0 -8 0 8 -1 -262144
-1 0 256;
#X obj 105 103 hsl 17 15 0 127 0 0 gdsfaf \$0-min 0 -1 8 0 8 -128992
-128992 -262144 0 1;
#X obj 126 103 nbx 1 15 0 127 0 0 empty empty empty 0 -8 0 8 -1 -262144
-1 127 256;
#X obj 129 103 hsl 17 15 0 127 0 0 gdsfaf \$0-max 127 -1 8 0 8 -128992
-128992 -262144 0 1;
#N canvas 532 444 339 236 label 0;
#X obj 64 39 inlet;
#X symbolatom 74 138 10 0 0 0 - - -;
#X obj 64 114 makefilename %d;
#X msg 64 159 label \$1;
#X obj 112 63 loadbang;
#X msg 112 82 0;
#X obj 64 181 s \$0-min;
#X connect 0 0 2 0;
#X connect 2 0 1 0;
#X connect 2 0 3 0;
#X connect 3 0 6 0;
#X connect 4 0 5 0;
#X connect 5 0 2 0;
#X restore 141 273 pd label;
#N canvas 532 444 339 236 label 0;
#X obj 64 39 inlet;
#X symbolatom 74 138 10 0 0 0 - - -;
#X obj 64 114 makefilename %d;
#X msg 64 159 label \$1;
#X obj 112 63 loadbang;
#X msg 112 82 0;
#X obj 64 181 s \$0-max;
#X connect 0 0 2 0;
#X connect 2 0 1 0;
#X connect 2 0 3 0;
#X connect 3 0 6 0;
#X connect 4 0 5 0;
#X connect 5 0 2 0;
#X restore 165 202 pd label;
#X obj 102 45 init 0 127;
#X obj 102 67 unpack f f;
#X obj 102 21 bng 15 250 50 0 empty empty empty 17 7 0 10 -262144 -1
-1;
#X obj 154 103 hsl 18 15 0 127 0 0 gdsfaf \$0-amount Rev 0 8 0 8 -198657
-194561 -1 0 1;
#X msg -54 361 \$1 \$2 1;
#X obj -54 333 pack f f;
#X obj -71 553 outlet;
#X obj 151 126 t b;
#X obj 22 508 scale.lin;
#X obj 121 293 s \$0-fmin;
#X obj 145 222 s \$0-fmax;
#X obj 39 435 r \$0-fmin;
#X obj 56 461 r \$0-fmax;
#X obj 56 483 t f f;
#X obj 151 151 s \$0-bng-rev;
#X obj -36 286 r \$0-fmin;
#X obj -54 261 r \$0-fmax;
#X obj -36 310 t b f;
#N canvas 30 139 450 300 double.spigot 0;
#X obj 53 24 inlet;
#X obj 53 50 t f f;
#X obj 129 10 r \$0-bng-rev;
#X obj 129 42 tgl 15 0 empty empty empty 17 7 0 10 -262144 -1 -1 0
1;
#X obj 129 127 == 0;
#X obj 53 241 outlet;
#X obj 133 241 outlet;
#X obj 204 92 s \$0-float.rev;
#X obj 129 62 trigger f f f;
#X obj 213 11 r \$0-float.rev.r;
#X obj 53 155 spigot 1;
#X obj 133 183 spigot 0;
#X connect 0 0 1 0;
#X connect 1 0 10 0;
#X connect 1 1 11 0;
#X connect 2 0 3 0;
#X connect 3 0 8 0;
#X connect 4 0 10 1;
#X connect 8 0 4 0;
#X connect 8 1 11 1;
#X connect 8 2 7 0;
#X connect 9 0 3 0;
#X connect 10 0 5 0;
#X connect 11 0 6 0;
#X restore -71 435 pd double.spigot;
#X obj -41 118 xsssad \$1/min;
#X obj -41 138 xsssad \$1/max;
#X obj -41 198 xsssad \$1/rev;
#X obj -4 176 r \$0-float.rev;
#X obj -41 219 s \$0-float.rev.r;
#X obj 102 247 t f f f;
#X obj 126 179 t f f f;
#X connect 0 0 1 0;
#X connect 1 0 28 0;
#X connect 2 0 1 1;
#X connect 2 1 1 2;
#X connect 2 2 1 3;
#X connect 4 0 34 0;
#X connect 6 0 35 0;
#X connect 10 0 11 0;
#X connect 11 0 4 0;
#X connect 11 1 6 0;
#X connect 12 0 10 0;
#X connect 13 0 17 0;
#X connect 14 0 2 0;
#X connect 15 0 14 0;
#X connect 17 0 24 0;
#X connect 18 0 16 0;
#X connect 21 0 18 1;
#X connect 22 0 23 0;
#X connect 23 0 18 2;
#X connect 23 1 18 3;
#X connect 25 0 27 0;
#X connect 26 0 15 0;
#X connect 27 0 15 0;
#X connect 27 1 15 1;
#X connect 28 0 16 0;
#X connect 28 1 18 0;
#X connect 29 0 4 0;
#X connect 30 0 6 0;
#X connect 31 0 33 0;
#X connect 32 0 31 1;
#X connect 34 0 29 1;
#X connect 34 1 19 0;
#X connect 34 2 8 0;
#X connect 35 0 30 1;
#X connect 35 1 20 0;
#X connect 35 2 9 0;
#X coords 0 -1 1 1 77 20 2 100 100;
