#N canvas 462 197 1150 551 10;
#X msg 221 -152 stop;
#X obj 60 -6 s \$0-record;
#X obj 207 -176 r \$0-record;
#X obj 129 -29 s \$0-line;
#X obj 59 -202 lop~ 10000;
#N canvas 659 236 430 576 sel-event 0;
#X obj 134 67 env~;
#X floatatom 196 98 5 0 0 0 - - -;
#X obj 134 205 > 60;
#X floatatom 147 228 5 0 0 0 - - -;
#X obj 148 300 bng 15 250 50 0 empty empty empty 17 7 0 10 -262144
-1 -1;
#X obj 134 253 sel 1;
#X obj 134 351 oneshot;
#X msg 155 323 clear;
#X obj 173 378 bng 15 250 50 0 empty empty empty 17 7 0 10 -262144
-1 -1;
#X obj 134 423 t b b;
#X obj 134 274 t b b;
#X obj 157 397 delay 2000;
#X obj 134 39 inlet~;
#X obj 161 473 outlet line;
#X obj 134 447 outlet record;
#X obj 231 160 outlet env;
#X obj 161 128 mean;
#X obj 134 101 t f f;
#X floatatom 192 179 5 0 0 0 - - -;
#X obj 158 153 + 40;
#X connect 0 0 1 0;
#X connect 0 0 15 0;
#X connect 0 0 17 0;
#X connect 2 0 3 0;
#X connect 2 0 5 0;
#X connect 5 0 10 0;
#X connect 6 0 8 0;
#X connect 6 0 9 0;
#X connect 6 0 11 0;
#X connect 7 0 6 0;
#X connect 9 0 14 0;
#X connect 9 1 13 0;
#X connect 10 0 4 0;
#X connect 10 0 6 0;
#X connect 11 0 7 0;
#X connect 12 0 0 0;
#X connect 16 0 19 0;
#X connect 17 0 2 0;
#X connect 17 1 16 0;
#X connect 19 0 2 1;
#X connect 19 0 18 0;
#X restore 60 -64 pd sel-event;
#N canvas 116 92 450 300 envelope 0;
#X obj 130 31 inlet~;
#X obj 129 230 outlet~;
#X obj 145 108 vline~;
#X obj 130 132 *~;
#X obj 145 60 r \$0-line;
#X msg 145 84 1 100 \, 0 1000 900;
#X connect 0 0 3 0;
#X connect 2 0 3 1;
#X connect 3 0 1 0;
#X connect 4 0 5 0;
#X connect 5 0 2 0;
#X restore 190 -201 pd envelope;
#X obj 59 -91 *~;
#X obj 73 -112 z~ 64;
#X obj 59 -139 limiter~ 10 1;
#X obj 58 -241 *~ 8;
#X obj 263 -140 bng 15 250 50 0 empty empty empty 17 7 0 10 -262144
-1 -1;
#X obj 189 -109 tabwrite~ \$0-sample;
#X obj 58 -437 inlet~;
#X obj 756 -267 bng 15 250 50 0 empty empty empty 17 7 0 10 -262144
-1 -1;
#X obj 726 -304 inlet trigger;
#X obj 188 -84 table \$0-sample 88200;
#X obj 256 -20 outlet env;
#X obj 726 -181 *~ 4;
#X obj 726 -237 tabplay~ \$0-sample;
#X obj 319 -436 inlet reset-table-quick-fix;
#X symbolatom 389 -270 10 0 0 0 - - -;
#X obj 338 -250 makefilename %s-sample;
#X msg 338 -180 \; \$1 const 0;
#X symbolatom 435 -214 10 0 0 0 - - -;
#X obj 338 -218 symbol;
#X obj 338 -136 print RESET;
#X floatatom 134 -310 1 0 1 0 - - -;
#X obj 223 -407 loadbang;
#X msg 223 -343 1;
#X msg 162 -343 0;
#X obj 319 -413 t b b b;
#X obj 319 -378 delay 15000;
#X obj 401 -406 bng 15 250 50 0 empty empty empty 17 7 0 10 -262144
-1 -1;
#X obj 338 -297 tof/getdollarzero;
#X obj 58 -289 utils.spigot.mono~;
#X obj 727 -75 outlet~;
#X obj 59 -179 hip~ 5;
#X connect 0 0 12 0;
#X connect 2 0 12 0;
#X connect 4 0 37 0;
#X connect 5 0 1 0;
#X connect 5 1 3 0;
#X connect 5 2 17 0;
#X connect 6 0 12 0;
#X connect 7 0 5 0;
#X connect 8 0 7 1;
#X connect 9 0 7 0;
#X connect 10 0 4 0;
#X connect 11 0 12 0;
#X connect 13 0 35 0;
#X connect 14 0 19 0;
#X connect 15 0 19 0;
#X connect 18 0 36 0;
#X connect 19 0 18 0;
#X connect 20 0 31 0;
#X connect 20 0 33 0;
#X connect 22 0 24 0;
#X connect 22 0 25 0;
#X connect 23 0 26 0;
#X connect 25 0 23 0;
#X connect 27 0 35 1;
#X connect 28 0 29 0;
#X connect 29 0 27 0;
#X connect 30 0 27 0;
#X connect 31 0 32 0;
#X connect 31 1 34 0;
#X connect 31 2 29 0;
#X connect 32 0 30 0;
#X connect 34 0 21 0;
#X connect 34 0 22 0;
#X connect 35 0 10 0;
#X connect 35 0 6 0;
#X connect 37 0 9 0;
#X connect 37 0 8 0;
