#N canvas 870 156 906 470 10;
#X declare -path /include;
#X obj 101 115 cnv 15 295 110 empty empty empty 20 12 0 14 -99865 -66577
0;
#X obj 377 189 vsl 15 10 0 1 0 0 terteyer yrysryrtyr S 4 6 0 10 -1
-1 -262144 0 1;
#X obj 404 208 s \$0-save;
#X obj 308 298 s \$0-ch3;
#X obj 403 230 s \$0-ch4;
#X obj 130 298 s \$0-ch1;
#X obj 219 298 s \$0-ch2;
#X obj 104 19 r \$0-ch1;
#X obj 172 18 r \$0-ch2;
#X obj 240 18 r \$0-ch3;
#X obj 308 19 r \$0-ch4;
#X obj 104 352 s \$0-idx;
#X obj 172 353 s \$0-idx;
#X obj 240 353 s \$0-idx;
#X obj 308 353 s \$0-idx;
#X obj 104 331 pack s 1;
#X obj 172 331 pack s 2;
#X obj 240 331 pack s 3;
#X obj 308 331 pack s 4;
#X obj 162 -5 r \$0-1fullpath;
#X obj 230 -27 r \$0-2fullpath;
#X obj 298 -4 r \$0-3fullpath;
#X obj 366 -27 r \$0-4fullpath;
#X obj 559 73 receive \$0-idx;
#N canvas 698 47 733 795 save-sample-path 0;
#X floatatom 146 203 0 0 0 0 - - -;
#X symbolatom 206 202 0 0 0 0 - - -;
#X obj 146 182 route float symbol;
#X obj 269 182 print INDEX;
#N canvas 0 0 849 372 administrative 0;
#X obj 61 268 outlet;
#X msg 61 77 reset;
#X text 50 58 clear map;
#X msg 103 155 auto \$1;
#X obj 103 134 tgl 15 0 empty empty empty 0 -6 0 8 -262144 -1 -1 0
1;
#X obj 156 205 tgl 15 0 empty empty empty 0 -6 0 8 -262144 -1 -1 0
1;
#X msg 156 226 resize \$1;
#X text 174 116 in AUTO mode \, unknown symbols are automatically added
to the map \;;
#X text 175 143 in NON-AUTO mode (default) \, only ADDed symbols (eg.
"add <symbol>") are added to the map;
#X text 235 197 normally \, the map will resize automatically if it
gets to small. you can prevent it from resizing by sending a "resize
0" message.;
#X connect 1 0 0 0;
#X connect 3 0 0 0;
#X connect 4 0 3 0;
#X connect 5 0 6 0;
#X connect 6 0 0 0;
#X restore 600 723 pd administrative;
#N canvas 0 0 673 455 advanced 0;
#X obj 76 298 outlet;
#X msg 90 109 dump;
#X msg 111 251 sort;
#X msg 76 56 bang;
#X text 124 56 output the number of stored entries;
#X text 128 109 dump each entry in the format "list <symbol> <index>"
;
#X msg 114 161 compact;
#X text 173 161 compact the entries \, so there are no holes in the
map;
#X text 159 253 sort the elements alphabetically;
#X text 172 198 this does not produce any immediate output!;
#X text 177 179 (e.g. "1 ... foo \, 3 ... bar" --> "1 ... foo \, 2
... bar");
#X text 156 270 (e.g. "1 ... foo \, 2 ... bar" --> "1 ... bar \, 2
... foo");
#X text 161 288 this does not produce any immediate output!;
#X connect 1 0 0 0;
#X connect 2 0 0 0;
#X connect 3 0 0 0;
#X connect 6 0 0 0;
#X restore 601 743 pd advanced;
#X obj 146 159 index 10 1;
#X floatatom 157 129 5 0 0 0 - - -;
#X obj 348 526 textfile;
#X msg 444 440 rewind;
#X msg 348 99 clear;
#X msg 252 119 dump;
#X msg 326 356 add \$2 \$1;
#X obj 348 557 route 1 2 3 4;
#X obj 85 13 inlet receive-idx;
#X msg 146 97 delete \$1;
#X obj 112 66 list split 1;
#X msg 85 121 add \$1 \$2;
#X obj 85 37 t a a;
#X obj 252 34 inlet save;
#X text 311 122 <<<--- DUMP THE ARRAY TO A TEXTFILE FOR LATER USE;
#X obj 348 665 outlet x1;
#X obj 366 688 outlet x2;
#X obj 385 709 outlet x3;
#X obj 404 732 outlet x4;
#X obj 494 315 inlet load;
#X obj 494 338 t b b b;
#X obj 348 581 l2s;
#X obj 366 600 l2s;
#X obj 385 620 l2s;
#X obj 404 642 l2s;
#X obj 494 459 until;
#X msg 494 439 4;
#X obj 252 68 t b b;
#X obj 438 205 loadbang;
#X obj 438 226 f \$0;
#X floatatom 473 228 5 0 0 0 - - -;
#X obj 438 251 makefilename bank%d.txt;
#X obj 288 327 symbol;
#X msg 288 394 write \$1 cr;
#X obj 432 481 t a;
#X obj 251 267 trigger b b a;
#X obj 326 431 t a;
#X obj 438 273 t a a;
#X obj 432 394 symbol;
#X msg 432 417 read \$1 cr;
#X connect 2 0 0 0;
#X connect 2 1 1 0;
#X connect 2 2 3 0;
#X connect 2 2 41 0;
#X connect 6 0 2 0;
#X connect 7 0 6 0;
#X connect 8 0 13 0;
#X connect 9 0 40 0;
#X connect 10 0 8 0;
#X connect 11 0 6 0;
#X connect 12 0 42 0;
#X connect 13 0 27 0;
#X connect 13 1 28 0;
#X connect 13 2 29 0;
#X connect 13 3 30 0;
#X connect 14 0 18 0;
#X connect 15 0 6 0;
#X connect 16 1 15 0;
#X connect 17 0 6 0;
#X connect 18 0 17 0;
#X connect 18 1 16 0;
#X connect 19 0 33 0;
#X connect 25 0 26 0;
#X connect 26 0 32 0;
#X connect 26 1 9 0;
#X connect 26 2 44 0;
#X connect 27 0 21 0;
#X connect 28 0 22 0;
#X connect 29 0 23 0;
#X connect 30 0 24 0;
#X connect 31 0 40 0;
#X connect 32 0 31 0;
#X connect 33 0 11 0;
#X connect 33 1 10 0;
#X connect 34 0 35 0;
#X connect 35 0 36 0;
#X connect 35 0 37 0;
#X connect 37 0 43 0;
#X connect 38 0 39 0;
#X connect 39 0 42 0;
#X connect 40 0 8 0;
#X connect 41 1 38 0;
#X connect 41 2 12 0;
#X connect 42 0 8 0;
#X connect 43 0 38 1;
#X connect 43 1 44 1;
#X connect 44 0 45 0;
#X connect 45 0 40 0;
#X restore 559 141 pd save-sample-path;
#X obj 614 96 r \$0-save;
#X obj 559 164 s \$0-1fullpath;
#X obj 596 184 s \$0-2fullpath;
#X obj 633 204 s \$0-3fullpath;
#X obj 670 224 s \$0-4fullpath;
#X obj 686 120 bng 15 250 50 0 empty empty empty 17 7 0 10 -262144
-1 -1;
#X text 707 117 < LOAD;
#X text 605 348 TODO;
#X text 602 365 :: Save system for patterns;
#N canvas 392 177 961 423 old-presets 0;
#N canvas 384 38 454 304 untils 0;
#X obj 261 160 f;
#X obj 288 162 + 1;
#X obj 250 135 until;
#X msg 299 132 0;
#X obj 261 107 t f b;
#X obj 261 78 inlet;
#X obj 261 190 outlet;
#X connect 0 0 1 0;
#X connect 0 0 6 0;
#X connect 1 0 0 1;
#X connect 2 0 0 0;
#X connect 3 0 0 1;
#X connect 4 0 2 0;
#X connect 4 1 3 0;
#X connect 5 0 4 0;
#X restore 110 85 pd untils;
#X obj 111 34 t b f;
#X obj 111 110 t f f;
#X obj 112 176 pack 0 0;
#X obj 138 130 +;
#N canvas 0 22 454 304 untils 0;
#X obj 261 160 f;
#X obj 321 163 + 1;
#X obj 255 132 until;
#X msg 299 132 0;
#X obj 261 107 t f b;
#X obj 261 78 inlet;
#X obj 261 190 outlet;
#X connect 0 0 1 0;
#X connect 0 0 6 0;
#X connect 1 0 0 1;
#X connect 2 0 0 0;
#X connect 3 0 0 1;
#X connect 4 0 2 0;
#X connect 4 1 3 0;
#X connect 5 0 4 0;
#X restore 393 60 pd untils;
#X obj 393 85 t f f;
#X obj 393 125 pack 0 0;
#X obj 450 281 loadbang;
#X obj 450 300 t b b;
#N canvas 826 143 435 398 get-sliders 0;
#X msg 28 122 0 \$1;
#X msg 195 117 1 \$1;
#X msg 25 194 2 \$1;
#X msg 181 200 3 \$1;
#X msg 35 285 4 \$1;
#X msg 174 286 5 \$1;
#X obj 28 101 r \$0-carfreq2;
#X obj 28 144 s \$0-osc2preset;
#X obj 189 142 s \$0-osc2preset;
#X obj 192 91 r \$0-modulation2;
#X obj 176 178 r \$0-volume2;
#X obj 180 225 s \$0-osc2preset;
#X obj 26 217 s \$0-osc2preset;
#X obj 24 173 r \$0-hearit2;
#X obj 30 263 r \$0-diston2;
#X obj 31 305 s \$0-osc2preset;
#X obj 170 306 s \$0-osc2preset;
#X obj 170 264 r \$0-distpat2;
#X connect 0 0 7 0;
#X connect 1 0 8 0;
#X connect 2 0 12 0;
#X connect 3 0 11 0;
#X connect 4 0 15 0;
#X connect 5 0 16 0;
#X connect 6 0 0 0;
#X connect 9 0 1 0;
#X connect 10 0 3 0;
#X connect 13 0 2 0;
#X connect 14 0 4 0;
#X connect 17 0 5 0;
#X restore 670 315 pd get-sliders;
#N canvas 0 22 454 304 untils 0;
#X obj 261 160 f;
#X obj 288 162 + 1;
#X obj 261 138 until;
#X msg 299 132 0;
#X obj 261 107 t f b;
#X obj 261 78 inlet;
#X obj 261 190 outlet;
#X connect 0 0 1 0;
#X connect 0 0 6 0;
#X connect 1 0 0 1;
#X connect 2 0 0 0;
#X connect 3 0 0 1;
#X connect 4 0 2 0;
#X connect 4 1 3 0;
#X connect 5 0 4 0;
#X restore 709 114 pd untils;
#X obj 709 138 t f f;
#X obj 709 189 pack 0 0;
#X obj 709 169 +;
#X obj 669 71 t b b b f;
#X obj 669 46 f;
#X text 35 97 LOAD>>;
#X text 330 61 STORE>>;
#X text 425 396 LOAD ALL PRESET ON STARTUP>>;
#X text 757 69 <<SAVE (=WRITE TXT FILE);
#X obj 112 195 route 0 1 2 3 4 5;
#X msg 110 63 6;
#X obj 143 60 * 6;
#X msg 393 39 6;
#X msg 708 91 6;
#X obj 738 91 * 6;
#X obj 112 9 r \$0-load-osc2;
#X obj 10 232 s \$0-carfreq2-r;
#X obj 27 253 s \$0-modulation2-r;
#X obj 47 274 s \$0-hearit2-r;
#X obj 61 295 s \$0-volume2-r;
#X obj 82 316 s \$0-diston2-r;
#X obj 99 337 s \$0-distpat2-r;
#X obj 124 151 tabread \$0-allosc2preset;
#X obj 394 19 r \$0-store-osc2;
#X obj 412 105 tabread \$0-osc2preset;
#X obj 392 146 s \$0-osc2storehouse;
#X obj 345 177 table \$0-osc2preset 6;
#X obj 323 202 table \$0-allosc2preset 60;
#X obj 443 231 table \$0-osc2storehouse 6;
#X msg 467 319 read osc2.txt;
#X obj 466 339 s \$0-allosc2preset;
#X obj 450 362 s \$0-load-osc2-r;
#X obj 669 23 r \$0-save-osc2;
#X obj 697 46 r \$0-load-osc2;
#X obj 741 169 tabread \$0-osc2storehouse;
#X obj 709 214 s \$0-allosc2preset;
#X obj 689 242 s \$0-load-osc2-r;
#X msg 669 265 write osc2.txt;
#X obj 669 289 s \$0-allosc2preset;
#X connect 0 0 2 0;
#X connect 1 0 22 0;
#X connect 1 1 23 0;
#X connect 2 0 3 0;
#X connect 2 1 4 0;
#X connect 3 0 21 0;
#X connect 4 0 34 0;
#X connect 5 0 6 0;
#X connect 6 0 7 0;
#X connect 6 1 36 0;
#X connect 7 0 37 0;
#X connect 8 0 9 0;
#X connect 9 0 43 0;
#X connect 9 1 41 0;
#X connect 11 0 12 0;
#X connect 12 0 14 0;
#X connect 12 1 46 0;
#X connect 13 0 47 0;
#X connect 14 0 13 0;
#X connect 15 0 49 0;
#X connect 15 1 48 0;
#X connect 15 2 25 0;
#X connect 15 3 26 0;
#X connect 16 0 15 0;
#X connect 21 0 28 0;
#X connect 21 1 29 0;
#X connect 21 2 30 0;
#X connect 21 3 31 0;
#X connect 21 4 32 0;
#X connect 21 5 33 0;
#X connect 22 0 0 0;
#X connect 23 0 4 1;
#X connect 24 0 5 0;
#X connect 25 0 11 0;
#X connect 26 0 14 1;
#X connect 27 0 1 0;
#X connect 34 0 3 1;
#X connect 35 0 24 0;
#X connect 36 0 7 1;
#X connect 41 0 42 0;
#X connect 44 0 16 0;
#X connect 45 0 16 1;
#X connect 46 0 13 1;
#X connect 49 0 50 0;
#X restore 793 28 pd old-presets;
#X obj 21 61 inlet timebase;
#X obj 21 169 t a;
#X obj 377 121 vradio 15 1 0 4 empty empty empty 0 -8 0 10 -1 -228856
-1 0;
#X obj 377 209 vsl 15 10 0 1 0 0 terteyer yrysryrtyr L 4 6 0 10 -1
-1 -262144 0 1;
#X obj 403 142 t b;
#X obj 403 164 s \$0-load;
#X obj 686 99 r \$0-load;
#X obj 410 74 loadbang;
#X msg 410 95 0;
#X obj 101 100 id.tab seq.er3;
#X obj 257 101 cnv 15 140 15 empty empty empty 20 12 0 14 -1 -66577
0;
#X obj 90 234 throw~ \$0-l;
#X obj 118 255 throw~ \$0-r;
#X obj 165 232 throw~ \$0-l;
#X obj 193 255 throw~ \$0-r;
#X obj 238 231 throw~ \$0-l;
#X obj 267 254 throw~ \$0-r;
#X obj 313 231 throw~ \$0-l;
#X obj 345 253 throw~ \$0-r;
#X obj 490 281 catch~ \$0-l;
#X obj 566 282 catch~ \$0-r;
#X obj 491 305 outlet~ l;
#X obj 566 305 outlet~ r;
#X obj 120 60 r \$1_loadbang;
#X obj 12 106 r tmb-global;
#X obj 584 -2 declare -path /include;
#X obj 307 121 player.ead.stereo;
#X obj 240 120 player.ead.stereo;
#X obj 172 120 player.ead.stereo;
#X obj 104 120 player.ead.stereo;
#X obj 100 206 seq.strip16;
#X obj 136 408 outlet;
#X obj 185 408 outlet;
#X obj 236 408 outlet;
#X obj 285 408 outlet;
#X obj 404 186 t b b;
#X connect 1 0 70 0;
#X connect 7 0 64 0;
#X connect 8 0 63 0;
#X connect 9 0 62 0;
#X connect 10 0 61 0;
#X connect 15 0 11 0;
#X connect 16 0 12 0;
#X connect 17 0 13 0;
#X connect 18 0 14 0;
#X connect 19 0 64 2;
#X connect 20 0 63 2;
#X connect 21 0 62 2;
#X connect 22 0 61 2;
#X connect 23 0 24 0;
#X connect 24 0 26 0;
#X connect 24 1 27 0;
#X connect 24 2 28 0;
#X connect 24 3 29 0;
#X connect 25 0 24 1;
#X connect 30 0 24 2;
#X connect 35 0 36 0;
#X connect 36 0 65 0;
#X connect 37 0 65 1;
#X connect 38 0 39 0;
#X connect 39 0 40 0;
#X connect 39 0 65 4;
#X connect 41 0 30 0;
#X connect 42 0 43 0;
#X connect 43 0 37 0;
#X connect 54 0 56 0;
#X connect 55 0 57 0;
#X connect 58 0 44 0;
#X connect 58 0 65 2;
#X connect 59 0 36 0;
#X connect 61 0 52 0;
#X connect 61 1 53 0;
#X connect 61 2 18 0;
#X connect 62 0 50 0;
#X connect 62 1 51 0;
#X connect 62 2 17 0;
#X connect 63 0 48 0;
#X connect 63 1 49 0;
#X connect 63 2 16 0;
#X connect 64 0 46 0;
#X connect 64 1 47 0;
#X connect 64 2 15 0;
#X connect 65 0 5 0;
#X connect 65 0 66 0;
#X connect 65 1 6 0;
#X connect 65 1 67 0;
#X connect 65 2 3 0;
#X connect 65 2 68 0;
#X connect 65 3 4 0;
#X connect 65 3 69 0;
#X connect 70 0 2 0;
#X connect 70 1 65 3;
#X coords 0 -1 1 1 297 125 2 100 100;
