#N canvas 188 117 683 705 10;
#X obj -60 298 *~;
#X obj -59 479 *~;
#X obj -12 23 inlet trigger;
#X obj 241 -15 inlet level;
#X obj 241 9 s \$0-player.volume;
#X obj -153 262 s \$0-filename;
#X obj 100 68 r \$0-filename;
#X msg -153 192 --;
#X obj -153 214 symbol;
#X text 188 335 <<<--- VOLUME;
#X symbolatom 180 216 10 0 0 0 - - -;
#X obj 180 238 outlet fullpath;
#X obj 366 -15 inlet fullpath;
#X obj 366 9 s \$0-fullpath;
#X obj -9 105 r \$0-fullpath;
#X obj -12 50 t b b;
#X obj -20 298 *~;
#X obj -19 479 *~;
#N canvas 142 257 337 200 init 0;
#X obj 153 64 loadbang;
#X obj 153 87 s \$0-init;
#X connect 0 0 1 0;
#X restore -153 -29 pd init;
#X msg 226 97 120;
#X obj -59 590 outlet~ l;
#X obj -19 565 outlet~ r;
#X text 278 480 PANNER;
#X obj -153 171 r \$0-init;
#X obj 226 75 r \$0-init;
#X floatatom 39 327 5 0 0 0 - - -;
#X obj 100 100 gui.bng.box;
#X obj 100 127 gui.ead~;
#X obj 100 167 gui.slider.mini vol;
#X msg 198 74 vol;
#X obj 280 502 efx.pan.cos.stereo~;
#X obj -61 152 smp.player.stereo~;
#X obj 100 305 scale.lin 1 0 127;
#X obj 100 335 utils.zipper~;
#X obj 228 130 r \$0-player.volume;
#X connect 0 0 1 0;
#X connect 1 0 20 0;
#X connect 2 0 15 0;
#X connect 3 0 4 0;
#X connect 6 0 26 0;
#X connect 7 0 8 0;
#X connect 8 0 5 0;
#X connect 10 0 11 0;
#X connect 12 0 13 0;
#X connect 14 0 31 1;
#X connect 15 0 27 0;
#X connect 15 1 31 2;
#X connect 16 0 17 0;
#X connect 17 0 21 0;
#X connect 19 0 28 0;
#X connect 23 0 7 0;
#X connect 24 0 19 0;
#X connect 26 0 31 0;
#X connect 27 0 0 1;
#X connect 27 0 16 1;
#X connect 28 0 32 0;
#X connect 29 0 28 0;
#X connect 31 0 0 0;
#X connect 31 1 16 0;
#X connect 31 3 5 0;
#X connect 31 4 10 0;
#X connect 32 0 25 0;
#X connect 32 0 33 0;
#X connect 33 0 1 1;
#X connect 33 0 17 1;
#X connect 34 0 28 0;
#X coords 0 -1 1 1 65 82 2 100 100;
