#N canvas 473 132 409 471 10;
#X obj 73 86 openpanel;
#X obj 73 127 t a b;
#X obj 73 194 pack s s;
#X obj 118 157 symbol \$0-a;
#X msg 73 229 read -resize \$1 \$2;
#X obj 73 266 soundfiler;
#X msg 73 299 bang;
#X obj 73 331 tabplay~ \$0-a;
#X obj 121 299 table \$0-a;
#X obj 72 393 outlet~;
#X obj 165 120 sel 1;
#X obj 73 58 inlet bang;
#X obj 198 60 inlet toggle;
#X obj 180 362 t b;
#X obj 180 386 spigot 1;
#X obj 198 86 t f f;
#X obj 318 14 inlet path;
#X connect 0 0 1 0;
#X connect 1 0 2 0;
#X connect 1 1 3 0;
#X connect 2 0 4 0;
#X connect 3 0 2 1;
#X connect 4 0 5 0;
#X connect 5 0 6 0;
#X connect 6 0 7 0;
#X connect 7 0 9 0;
#X connect 7 1 13 0;
#X connect 10 0 6 0;
#X connect 11 0 0 0;
#X connect 12 0 15 0;
#X connect 13 0 14 0;
#X connect 14 0 7 0;
#X connect 15 0 10 0;
#X connect 15 1 14 1;
#X connect 16 0 1 0;
