#N canvas 397 139 753 656 10;
#X obj 150 52 openpanel;
#X obj 208 336 soundfiler;
#X msg 208 369 bang;
#X obj 455 164 inlet trigger;
#X obj 400 299 split_path;
#X obj 457 523 outlet filename;
#X obj 561 524 outlet fullpath;
#X obj 301 55 inlet fullpath;
#X obj 150 24 inlet bang-to-open-file;
#X obj 373 523 outlet done;
#X obj 51 210 s \$0-fullpath2;
#X obj 561 494 r \$0-fullpath2;
#X obj 249 153 symbol \$0-l;
#X obj 265 183 symbol \$0-r;
#X obj 286 349 table \$0-l;
#X obj 257 370 table \$0-r;
#X obj 150 127 trigger a a a b b;
#X obj 208 264 pack s s s;
#X msg 208 299 read -resize \$1 \$2 \$3;
#X obj 208 461 tabplay~ \$0-l;
#X obj 298 461 tabplay~ \$0-r;
#X obj 297 523 outlet~ r;
#X obj 207 523 outlet~ l;
#X obj 208 406 t b b;
#X connect 0 0 16 0;
#X connect 1 0 2 0;
#X connect 2 0 23 0;
#X connect 3 0 2 0;
#X connect 4 1 5 0;
#X connect 7 0 16 0;
#X connect 8 0 0 0;
#X connect 11 0 6 0;
#X connect 12 0 17 1;
#X connect 13 0 17 2;
#X connect 16 0 10 0;
#X connect 16 1 4 0;
#X connect 16 2 17 0;
#X connect 16 3 13 0;
#X connect 16 4 12 0;
#X connect 17 0 18 0;
#X connect 18 0 1 0;
#X connect 19 0 22 0;
#X connect 20 0 21 0;
#X connect 20 1 9 0;
#X connect 23 0 19 0;
#X connect 23 1 20 0;
