#N canvas 590 410 696 477 10;
#X obj 153 46 openpanel;
#X obj 187 175 pack s s;
#X obj 232 113 symbol \$0-a;
#X msg 187 210 read -resize \$1 \$2;
#X obj 187 247 soundfiler;
#X msg 187 280 bang;
#X obj 187 312 tabplay~ \$0-a;
#X obj 235 280 table \$0-a;
#X obj 186 374 outlet~;
#X obj 450 75 inlet trigger;
#X obj 318 212 split_path;
#X obj 375 247 t a a;
#X obj 153 81 t a a a b;
#X obj 402 375 outlet filename;
#X obj 520 375 outlet fullpath;
#X obj 319 41 inlet fullpath;
#X obj 153 18 inlet bang-to-open-file;
#X obj 297 375 outlet done;
#X obj 100 152 s \$0-fullpath2;
#X obj 520 345 r \$0-fullpath2;
#X connect 0 0 12 0;
#X connect 1 0 3 0;
#X connect 2 0 1 1;
#X connect 3 0 4 0;
#X connect 4 0 5 0;
#X connect 5 0 6 0;
#X connect 6 0 8 0;
#X connect 6 1 17 0;
#X connect 9 0 5 0;
#X connect 10 1 11 0;
#X connect 11 1 13 0;
#X connect 12 0 18 0;
#X connect 12 1 10 0;
#X connect 12 2 1 0;
#X connect 12 3 2 0;
#X connect 15 0 12 0;
#X connect 16 0 0 0;
#X connect 19 0 14 0;
