#N canvas 477 104 980 567 10;
#X obj 169 36 inlet;
#X obj 243 65 list prepend \$1;
#X obj 243 170 list trim;
#X obj 243 35 inlet;
#X obj 32 318 b;
#X obj 169 63 b;
#X obj 243 233 route \$1;
#X obj 553 368 b;
#X obj 553 260 spigot;
#X obj 689 82 loadbang;
#X obj 689 260 tgl 15 0 empty empty empty 17 7 0 10 -262144 -1 -1 0
1;
#X obj 689 204 select 0;
#X obj 721 151 + 1;
#X obj 689 130 t a a;
#X obj 689 226 f 1;
#X obj 295 515 outlet;
#X obj 169 404 route bang;
#X text 267 394 filter out empty lists;
#X obj 620 484 list prepend persist \$1;
#X obj 169 375 list append;
#X text 241 120 on SSSAD we eavesdrop the communication;
#X text 712 259 <- only the first instance responds to "save";
#X text 175 550 2007/2008 fbar;
#X text 854 103 Enhancement by Enrique Erne;
#X obj 553 435 list append;
#X obj 553 458 route bang;
#X text 637 457 filter out empty lists here \, too.;
#X obj 32 236 route set setonly;
#X obj 90 283 route \$1;
#X obj 90 261 list trim;
#X obj 618 334 route \$1;
#X obj 618 312 list trim;
#X obj 553 287 route save saveonly;
#X obj 620 508 list trim;
#X obj 505 23 inlet dyna.loadbang;
#X obj 505 44 s \$0-dyna.loadbang;
#X obj 670 59 r \$0-dyna.loadbang;
#X obj 461 44 tgl 15 0 empty empty empty 17 7 0 10 -262144 -1 -1 0
1;
#X msg 163 460 \$1 3000;
#X obj 163 483 line3;
#X obj 243 433 route float symbol;
#N canvas 525 330 322 286 s-SSSAD-EVE 0;
#X obj 63 38 inlet;
#X obj 123 39 loadbang;
#N canvas 18 93 450 300 demux2 0;
#X obj 114 91 == 0;
#X obj 190 115 spigot;
#X obj 61 43 inlet;
#X obj 229 46 inlet;
#X obj 61 113 spigot 1;
#X obj 61 156 outlet;
#X obj 190 157 outlet;
#X connect 0 0 4 1;
#X connect 1 0 6 0;
#X connect 2 0 4 0;
#X connect 2 0 1 0;
#X connect 3 0 0 0;
#X connect 3 0 1 1;
#X connect 4 0 5 0;
#X restore 63 137 pd demux2;
#X obj 123 81 select 0;
#X msg 123 103 0;
#X msg 176 102 1;
#X obj 123 59 list append \$2;
#X obj 123 39 loadbang;
#X obj 123 81 select 0;
#X msg 123 103 0;
#X msg 176 102 1;
#X obj 123 59 list append \$2;
#X obj 104 15 r \$0-dyna.loadbang;
#X obj 63 176 s SSSAD-EVE;
#X obj 142 176 s \$2-SSSAD-EVE;
#X connect 0 0 2 0;
#X connect 1 0 6 0;
#X connect 2 0 13 0;
#X connect 2 1 14 0;
#X connect 3 0 4 0;
#X connect 3 1 5 0;
#X connect 4 0 2 1;
#X connect 5 0 2 1;
#X connect 6 0 3 0;
#X connect 7 0 11 0;
#X connect 8 0 9 0;
#X connect 8 1 10 0;
#X connect 11 0 8 0;
#X connect 12 0 6 0;
#X restore 243 94 pd s-SSSAD-EVE;
#N canvas 551 229 330 246 r-SSSAD-EVE 0;
#N canvas 6 47 450 300 mux2 0;
#X obj 114 121 == 0;
#X obj 190 145 spigot;
#X obj 61 43 inlet;
#X obj 229 66 inlet;
#X obj 61 143 spigot 1;
#X obj 61 186 outlet;
#X obj 190 45 inlet;
#X connect 0 0 4 1;
#X connect 1 0 5 0;
#X connect 2 0 4 0;
#X connect 3 0 0 0;
#X connect 3 0 1 1;
#X connect 4 0 5 0;
#X connect 6 0 1 0;
#X restore 63 167 pd mux2;
#X obj 63 201 outlet;
#X obj 109 74 loadbang;
#X obj 109 116 select 0;
#X msg 109 138 0;
#X msg 162 137 1;
#X obj 109 94 list append \$2;
#X obj 205 45 r \$0-dyna.loadbang;
#X obj 63 16 r SSSAD-EVE;
#X obj 86 41 r \$2-SSSAD-EVE;
#X connect 0 0 1 0;
#X connect 2 0 6 0;
#X connect 3 0 4 0;
#X connect 3 1 5 0;
#X connect 4 0 0 2;
#X connect 5 0 0 2;
#X connect 6 0 3 0;
#X connect 7 0 6 0;
#X connect 8 0 0 0;
#X connect 9 0 0 1;
#X restore 243 146 pd r-SSSAD-EVE;
#X obj 689 105 value \$1.\$2.SSSAD-EVE.req;
#X obj 721 174 value \$1.\$2.SSSAD-EVE.req;
#N canvas 545 206 330 246 r-SSSAD-EVE_ADMIN 0;
#N canvas 0 0 450 300 mux2 0;
#X obj 114 121 == 0;
#X obj 190 145 spigot;
#X obj 61 43 inlet;
#X obj 229 66 inlet;
#X obj 61 143 spigot 1;
#X obj 61 186 outlet;
#X obj 190 45 inlet;
#X connect 0 0 4 1;
#X connect 1 0 5 0;
#X connect 2 0 4 0;
#X connect 3 0 0 0;
#X connect 3 0 1 1;
#X connect 4 0 5 0;
#X connect 6 0 1 0;
#X restore 63 177 pd mux2;
#X obj 63 211 outlet;
#X obj 109 75 loadbang;
#X obj 109 117 select 0;
#X msg 109 139 0;
#X msg 162 138 1;
#X obj 109 95 list append \$2;
#X obj 199 55 r \$0-dyna.loadbang;
#X obj 63 16 r SSSAD-EVE_ADMIN;
#X obj 86 41 r \$2-SSSAD-EVE_ADMIN;
#X connect 0 0 1 0;
#X connect 2 0 6 0;
#X connect 3 0 4 0;
#X connect 3 1 5 0;
#X connect 4 0 0 2;
#X connect 5 0 0 2;
#X connect 6 0 3 0;
#X connect 7 0 6 0;
#X connect 8 0 0 0;
#X connect 9 0 0 1;
#X restore 553 200 pd r-SSSAD-EVE_ADMIN;
#N canvas 525 330 322 286 s-SSSAD-EVE_ADMIN 0;
#X obj 63 39 inlet;
#N canvas 0 0 450 300 demux2 0;
#X obj 114 91 == 0;
#X obj 190 115 spigot;
#X obj 61 43 inlet;
#X obj 229 46 inlet;
#X obj 61 113 spigot 1;
#X obj 61 156 outlet;
#X obj 190 157 outlet;
#X connect 0 0 4 1;
#X connect 1 0 6 0;
#X connect 2 0 4 0;
#X connect 2 0 1 0;
#X connect 3 0 0 0;
#X connect 3 0 1 1;
#X connect 4 0 5 0;
#X restore 63 137 pd demux2;
#X obj 123 39 loadbang;
#X obj 123 81 select 0;
#X msg 123 103 0;
#X msg 176 102 1;
#X obj 123 59 list append \$2;
#X obj 180 19 r \$0-dyna.loadbang;
#X obj 63 206 s SSSAD-EVE_ADMIN;
#X obj 123 176 s \$2-SSSAD-EVE_ADMIN;
#X connect 0 0 1 0;
#X connect 1 0 8 0;
#X connect 1 1 9 0;
#X connect 2 0 6 0;
#X connect 3 0 4 0;
#X connect 3 1 5 0;
#X connect 4 0 1 1;
#X connect 5 0 1 1;
#X connect 6 0 3 0;
#X connect 7 0 6 0;
#X restore 620 532 pd s-SSSAD-EVE_ADMIN;
#N canvas 545 206 330 246 r-SSSAD-EVE_ADMIN 0;
#N canvas 0 0 450 300 mux2 0;
#X obj 114 121 == 0;
#X obj 190 145 spigot;
#X obj 61 43 inlet;
#X obj 229 66 inlet;
#X obj 61 143 spigot 1;
#X obj 61 186 outlet;
#X obj 190 45 inlet;
#X connect 0 0 4 1;
#X connect 1 0 5 0;
#X connect 2 0 4 0;
#X connect 3 0 0 0;
#X connect 3 0 1 1;
#X connect 4 0 5 0;
#X connect 6 0 1 0;
#X restore 63 177 pd mux2;
#X obj 63 211 outlet;
#X obj 109 75 loadbang;
#X obj 109 117 select 0;
#X msg 109 139 0;
#X msg 162 138 1;
#X obj 109 95 list append \$2;
#X obj 192 66 r \$0-dyna.loadbang;
#X obj 63 16 r SSSAD-EVE_ADMIN;
#X obj 86 41 r \$2-SSSAD-EVE_ADMIN;
#X connect 0 0 1 0;
#X connect 2 0 6 0;
#X connect 3 0 4 0;
#X connect 3 1 5 0;
#X connect 4 0 0 2;
#X connect 5 0 0 2;
#X connect 6 0 3 0;
#X connect 7 0 6 0;
#X connect 8 0 0 0;
#X connect 9 0 0 1;
#X restore 32 197 pd r-SSSAD-EVE_ADMIN;
#X connect 0 0 5 0;
#X connect 1 0 41 0;
#X connect 2 0 6 0;
#X connect 3 0 1 0;
#X connect 4 0 19 0;
#X connect 5 0 19 0;
#X connect 6 0 19 1;
#X connect 6 0 24 1;
#X connect 7 0 24 0;
#X connect 8 0 32 0;
#X connect 9 0 43 0;
#X connect 11 0 14 0;
#X connect 12 0 44 0;
#X connect 13 0 11 0;
#X connect 13 1 12 0;
#X connect 14 0 8 1;
#X connect 14 0 10 0;
#X connect 16 1 40 0;
#X connect 18 0 33 0;
#X connect 19 0 16 0;
#X connect 24 0 25 0;
#X connect 25 1 18 0;
#X connect 27 0 4 0;
#X connect 27 1 29 0;
#X connect 28 0 4 0;
#X connect 29 0 28 0;
#X connect 30 0 7 0;
#X connect 31 0 30 0;
#X connect 32 0 7 0;
#X connect 32 1 31 0;
#X connect 33 0 46 0;
#X connect 34 0 35 0;
#X connect 34 0 37 0;
#X connect 36 0 43 0;
#X connect 38 0 39 0;
#X connect 39 0 15 0;
#X connect 40 0 15 0;
#X connect 40 1 15 0;
#X connect 42 0 2 0;
#X connect 43 0 13 0;
#X connect 45 0 8 0;
#X connect 47 0 27 0;
