#N canvas 366 265 450 300 10;
#X obj 33 37 utils.timebase;
#X floatatom 58 149 5 0 0 0 - - -;
#X obj 75 118 bng 15 50 25 0 empty empty empty 17 7 0 10 -262144 -1
-1;
#X obj 33 172 tgl 15 0 empty empty empty 17 7 0 10 -262144 -1 -1 1
1;
#X text 142 83 ARGUMENT;
#X text 143 192 OUTLETS;
#X text 144 136 INLETS;
#X text 140 35 This GOP object counts time in bpm and bars \; You can
also specify the swing.;
#X text 142 99 None;
#X text 144 152 None;
#X text 144 207 Toggle value;
#X text 145 223 Bars;
#X text 145 239 Bang for each bar;
#X connect 0 0 3 0;
#X connect 0 1 1 0;
#X connect 0 2 2 0;
