#N canvas 345 155 438 375 10;
#X obj 46 86 inlet~;
#X obj 134 240 *~;
#X obj 215 240 *~;
#X obj 134 283 outlet~;
#X obj 216 283 outlet~;
#X obj 212 122 f \$1;
#X obj 212 67 loadbang;
#X obj 222 90 inlet;
#X obj 212 145 == 0;
#X obj 212 168 t f f;
#X obj 301 191 utils.zipper~;
#X obj 212 191 utils.zipper~;
#X obj 122 86 inlet~;
#X connect 0 0 1 0;
#X connect 1 0 3 0;
#X connect 2 0 4 0;
#X connect 5 0 8 0;
#X connect 6 0 5 0;
#X connect 7 0 5 0;
#X connect 8 0 9 0;
#X connect 9 0 11 0;
#X connect 9 1 10 0;
#X connect 10 0 2 1;
#X connect 11 0 1 1;
#X connect 12 0 2 0;
