#N canvas 111 64 438 375 10;
#X obj 134 105 inlet~;
#X obj 134 230 *~;
#X obj 185 230 *~;
#X obj 134 283 outlet~;
#X obj 186 283 outlet~;
#X obj 212 122 f \$1;
#X obj 212 67 loadbang;
#X obj 222 90 inlet;
#X obj 212 145 == 0;
#X obj 212 168 t f f;
#X obj 212 191 zipper;
#X obj 262 192 zipper;
#X connect 0 0 1 0;
#X connect 0 0 2 0;
#X connect 1 0 3 0;
#X connect 2 0 4 0;
#X connect 5 0 8 0;
#X connect 6 0 5 0;
#X connect 7 0 5 0;
#X connect 8 0 9 0;
#X connect 9 0 10 0;
#X connect 9 1 11 0;
#X connect 10 0 1 1;
#X connect 11 0 2 1;
