#N canvas 393 424 450 284 10;
#N canvas 248 403 485 415 cpu__________ 0;
#X obj 16 104 cputime;
#X obj 16 59 metro 1000;
#X msg 16 37 1;
#X obj 16 82 t b b;
#X obj 16 149 * 0.1;
#X obj 16 126 int;
#X obj 16 172 outlet;
#X obj 254 215 outlet;
#X obj 16 15 loadbang;
#X obj 254 29 gemhead;
#X obj 254 50 t b b;
#X obj 254 71 realtime;
#X obj 254 90 iir 55;
#X obj 254 131 /;
#X msg 254 111 1000 \$1;
#X obj 254 172 i;
#X obj 254 193 change;
#X obj 254 151 + 0.5;
#X connect 0 0 5 0;
#X connect 1 0 3 0;
#X connect 2 0 1 0;
#X connect 3 0 0 0;
#X connect 3 1 0 1;
#X connect 4 0 6 0;
#X connect 5 0 4 0;
#X connect 8 0 2 0;
#X connect 9 0 10 0;
#X connect 10 0 11 0;
#X connect 10 1 11 1;
#X connect 11 0 12 0;
#X connect 12 0 14 0;
#X connect 13 0 17 0;
#X connect 14 0 13 0;
#X connect 15 0 16 0;
#X connect 16 0 7 0;
#X connect 17 0 15 0;
#X restore 129 19 pd cpu__________;
#X obj 100 100 cnv 15 150 15 empty empty empty 2 10 0 14 -1 -262144
0;
#X text 105 147 CPU;
#X obj 129 100 nbx 3 14 -1e+37 1e+37 0 0 empty empty cpu -22 7 0 8
-66577 -262144 -262144 10 256;
#X obj 202 101 nbx 3 14 -1e+37 1e+37 0 0 empty empty fps -22 7 0 8
-1 -262144 -262144 0 256;
#X obj 129 49 t f f;
#X msg 156 72 set \$1;
#X obj 88 72 s XS.CPU;
#X connect 0 0 5 0;
#X connect 0 1 4 0;
#X connect 5 0 7 0;
#X connect 5 1 6 0;
#X connect 6 0 3 0;
#X coords 0 -1 1 1 150 15 2 100 100;
