#N canvas 832 542 450 300 10;
#X obj 103 100 hsl 73 20 0 127 0 0 dfsdfsfsdfs fadsfsdafasfs Audio.OFF
2 10 1 8 -128992 -128992 -1 3300 1;
#X obj 205 196 outlet;
#N canvas 511 156 240 238 animation 0;
#X obj 19 26 inlet on.off;
#X msg 19 157 open \$1;
#X obj 19 48 sel 1 0;
#X obj 108 47 r \$0-init;
#X obj 19 182 outlet open.image;
#N canvas 18 93 349 270 find-image-on 0;
#X obj 60 195 mergefilename /;
#X obj 105 112 symbol images/circ.button.on.gif;
#X msg 60 164 \$1 \$2;
#X obj 60 139 pack s s;
#X obj 72 33 loadbang;
#X obj 60 61 t b b;
#X obj 38 35 bng 15 250 50 0 empty empty empty 17 7 0 10 -262144 -1
-1;
#X obj 60 225 outlet;
#X obj 60 11 inlet;
#X obj 60 84 getdir 3;
#X connect 0 0 7 0;
#X connect 1 0 3 1;
#X connect 2 0 0 0;
#X connect 3 0 2 0;
#X connect 4 0 5 0;
#X connect 5 0 9 0;
#X connect 5 1 1 0;
#X connect 6 0 5 0;
#X connect 8 0 5 0;
#X connect 9 0 3 0;
#X restore 19 102 pd find-image-on;
#N canvas 24 116 349 270 find-image-off 0;
#X obj 60 195 mergefilename /;
#X msg 60 164 \$1 \$2;
#X obj 60 139 pack s s;
#X obj 72 33 loadbang;
#X obj 60 61 t b b;
#X obj 38 35 bng 15 250 50 0 empty empty empty 17 7 0 10 -262144 -1
-1;
#X obj 60 225 outlet;
#X obj 60 11 inlet;
#X obj 105 112 symbol images/circ.button.off.gif;
#X obj 60 84 getdir 3;
#X connect 0 0 6 0;
#X connect 1 0 0 0;
#X connect 2 0 1 0;
#X connect 3 0 4 0;
#X connect 4 0 9 0;
#X connect 4 1 8 0;
#X connect 5 0 4 0;
#X connect 7 0 4 0;
#X connect 8 0 2 1;
#X connect 9 0 2 0;
#X restore 38 78 pd find-image-off;
#X obj -4 49 bng 15 250 50 0 empty empty empty 17 7 0 10 -262144 -1
-1;
#X connect 0 0 2 0;
#X connect 1 0 4 0;
#X connect 2 0 5 0;
#X connect 2 1 6 0;
#X connect 3 0 6 0;
#X connect 5 0 1 0;
#X connect 6 0 1 0;
#X connect 7 0 6 0;
#X restore 282 114 pd animation;
#X obj 153 139 init 0;
#X obj 159 101 iem_image /home/sad/00.Pd/projects/_Xth-Sense/dev/images/circ.button.off.gif
0 0 empty empty;
#X obj 276 167 xsssad \$1/switch~;
#N canvas 6 47 450 300 label 0;
#X obj 29 36 inlet on.off;
#X obj 29 58 sel 1 0;
#X msg 29 91 label Audio.ON;
#X msg 48 118 label Audio.OFF;
#X obj 29 152 outlet;
#X connect 0 0 1 0;
#X connect 1 0 2 0;
#X connect 1 1 3 0;
#X connect 2 0 4 0;
#X connect 3 0 4 0;
#X restore 100 197 pd label;
#X obj 205 146 t b;
#X obj 205 169 tgl 15 0 empty empty empty 17 7 0 10 -262144 -1 -1 0
1;
#X connect 0 0 7 0;
#X connect 2 0 4 0;
#X connect 3 0 8 0;
#X connect 5 0 8 0;
#X connect 6 0 0 0;
#X connect 7 0 8 0;
#X connect 8 0 5 1;
#X connect 8 0 2 0;
#X connect 8 0 1 0;
#X connect 8 0 6 0;
#X coords 0 -1 1 1 78 20 2 100 100;
