#N canvas 720 401 450 300 10;
#X obj 103 100 hsl 56 20 0 127 0 0 dfsdfsfsdfs fadsfsdafasfs Audio.OFF
3 10 1 8 -233017 -233017 -1 0 1;
#X obj 205 229 outlet;
#X obj 153 139 init 0;
#X obj 276 167 xsssad \$1/switch~;
#N canvas 12 70 450 300 label 0;
#X obj 29 36 inlet on.off;
#X obj 29 58 sel 1 0;
#X obj 29 152 outlet;
#X msg 29 91 label Audio.OFF;
#X msg 48 118 label Audio.ON;
#X connect 0 0 1 0;
#X connect 1 0 3 0;
#X connect 1 1 4 0;
#X connect 3 0 2 0;
#X connect 4 0 2 0;
#X restore 100 204 pd label;
#X obj 205 146 t b;
#X obj 205 169 tgl 15 0 empty empty empty 17 7 0 10 -262144 -1 -1 1
1;
#N canvas 920 274 338 262 bypass.button 0;
#X obj 45 15 inlet;
#X obj 45 37 t b;
#X obj 45 59 tgl 15 0 empty empty empty 17 7 0 10 -262144 -1 -1 0 1
;
#X obj 45 139 s \$0-filter.bypass;
#X obj 45 108 == 0;
#X obj 174 208 outlet;
#X obj 174 123 sel 0 1;
#X obj 45 82 t f f;
#X obj 85 39 init 0;
#X msg 193 153 color 2 2 10;
#X msg 174 179 color 10 10 22;
#X connect 0 0 1 0;
#X connect 1 0 2 0;
#X connect 2 0 7 0;
#X connect 4 0 3 0;
#X connect 6 0 10 0;
#X connect 6 1 9 0;
#X connect 7 0 4 0;
#X connect 7 1 6 0;
#X connect 8 0 2 0;
#X connect 9 0 5 0;
#X connect 10 0 5 0;
#X restore 240 102 pd bypass.button;
#X obj 205 51 loadbang;
#X connect 0 0 5 0;
#X connect 2 0 6 0;
#X connect 3 0 6 0;
#X connect 4 0 0 0;
#X connect 5 0 6 0;
#X connect 6 0 3 1;
#X connect 6 0 1 0;
#X connect 6 0 4 0;
#X connect 6 0 7 0;
#X connect 7 0 0 0;
#X connect 8 0 5 0;
#X coords 0 -1 1 1 61 20 2 100 100;
