#N canvas 592 317 450 300 10;
#X obj 27 74 utils.spigot.mono~;
#X text 193 64 ARGUMENT;
#X text 197 201 OUTLETS;
#X text 195 134 INLETS;
#X text 194 79 None;
#X text 195 150 Audio mono signal;
#X text 196 166 Value 1 or 0 \, to open or to close;
#X text 198 216 Audio mono signal;
#X obj 26 35 noise~;
#X obj 28 108 *~ 0.5;
#X obj 28 156 dac~ 1;
#X text 194 31 An audio spigot \, or gate for mono signals.;
#X obj 132 38 tgl 15 0 empty empty empty 17 7 0 10 -262144 -1 -1 0
1;
#X connect 0 0 9 0;
#X connect 8 0 0 0;
#X connect 9 0 10 0;
#X connect 12 0 0 1;
