#N canvas 121 238 564 376 10;
#X obj 145 100 bng 15 250 50 0 empty empty Edit -29 7 0 8 -162280 -1
-1;
#X obj 209 -85 loadbang;
#X obj 209 24 makefilename pd-%s;
#X symbolatom 115 -17 10 0 0 0 - - -;
#X obj 115 -36 bng 15 250 50 0 empty empty empty 17 7 0 10 -262144
-1 -1;
#X obj 209 49 t a b;
#X msg 209 102 add2 \$1 \, add2 vis \, add2 1;
#X msg 252 77 set \, addsemi;
#X msg 145 174 \; pd-apple vis 1;
#X obj 209 -6 symbol \$1;
#X obj 100 100 hradio 15 1 0 3 empty empty Apple 4 8 0 8 -1 -1 -228856
0;
#X obj 345 -4 symbol \$2;
#X obj 209 -61 t b b;
#X obj 345 41 s \$0-label;
#X obj 100 68 r \$0-label;
#X msg 345 19 label \$1;
#X obj 153 -125 inlet subpatch.name;
#X obj 320 -90 inlet label;
#X obj 145 127 t b b;
#X obj 287 170 outlet bang;
#X connect 0 0 18 0;
#X connect 1 0 12 0;
#X connect 2 0 5 0;
#X connect 3 0 2 0;
#X connect 4 0 3 0;
#X connect 5 0 6 0;
#X connect 5 1 7 0;
#X connect 6 0 8 0;
#X connect 7 0 8 0;
#X connect 9 0 2 0;
#X connect 11 0 15 0;
#X connect 12 0 9 0;
#X connect 12 1 11 0;
#X connect 14 0 10 0;
#X connect 15 0 13 0;
#X connect 16 0 9 0;
#X connect 17 0 11 0;
#X connect 18 0 8 0;
#X connect 18 1 19 0;
#X coords 0 -1 1 1 60 15 2 100 100;
