#N canvas 437 215 947 627 10;
#X obj 100 100 cnv 15 33 70 empty empty empty 20 7 0 8 -1 -262144 0
;
#X obj 496 87 inlet bpm;
#X obj 666 86 inlet beats;
#X obj 826 84 inlet swing percent;
#X obj 651 115 f \$2;
#X obj 651 147 t b f;
#X obj 513 351 *;
#X obj 379 129 sel 0;
#X msg 379 155 0;
#X obj 445 522 outlet bangs;
#X obj 339 523 outlet time;
#X text 511 396 At the heart of many audio scenes or musica constructions
is a timebase to drive events.;
#X obj 102 121 nbx 3 14 1 1e+37 0 0 empty empty empty 0 -8 0 8 -1 -262144
-1 120 256;
#X obj 101 137 nbx 3 14 1 4 0 0 empty empty empty 0 -8 0 8 -1 -262144
-1 2 256;
#X obj 102 154 nbx 3 14 0 100 0 0 empty empty empty 0 -8 0 8 -1 -262144
-1 1 256;
#X obj 103 103 tgl 15 0 empty empty empty 17 7 0 10 -128992 -262144
-1 0 1;
#X obj 150 146 s \$0-control;
#X obj 341 55 r \$0-control;
#X obj 415 188 s \$0-bpm-r;
#X obj 567 146 s \$0-beats-r;
#X obj 726 183 s \$0-swing-r;
#X obj 171 170 s \$0-bpm;
#X obj 211 193 s \$0-beats;
#X obj 251 216 s \$0-swing;
#X obj 486 64 r \$0-bpm;
#X obj 651 63 r \$0-beats;
#X obj 811 60 r \$0-swing;
#X obj 351 92 inlet control;
#X obj 281 152 s \$0-control-r;
#X obj 124 6 r \$0-bpm-r;
#X obj 180 29 r \$0-beats-r;
#X obj 230 51 r \$0-swing-r;
#X obj 103 -16 r \$0-control-r;
#X msg 124 30 set \$1;
#X msg 180 51 set \$1;
#X msg 230 73 set \$1;
#X msg 103 59 set \$1;
#X obj 491 459 + 1;
#X obj 443 459 f 0;
#X obj 341 423 t b b;
#X obj 368 393 del;
#X obj 341 360 t b b;
#X obj 341 331 metro 125;
#X obj 486 278 t f f;
#X obj 539 279 t b f;
#X obj 486 251 / 4;
#X obj 486 187 /;
#X obj 486 152 swap 60000;
#X obj 486 123 f \$1;
#X obj 811 154 / 100;
#X obj 811 122 f \$3;
#X obj 811 184 + 1;
#X obj 583 -19 t b b b;
#N canvas 0 0 450 300 init 0;
#X obj 157 93 loadbang;
#X obj 157 116 s \$0-init;
#X connect 0 0 1 0;
#X restore 26 -4 pd init;
#X obj 318 -42 r \$0-init;
#X obj 382 -42 r \$0-init;
#X obj 583 -47 r \$0-init;
#X msg 318 -22 2;
#X msg 382 -21 1;
#X obj 252 -42 r \$0-init;
#X msg 252 -21 120;
#X text 426 10 cntrl_dimen 150 40;
#X obj 255 523 s TIME.BARS;
#X obj 535 523 s TIME.BANGS;
#X obj 9 37 r NOGUI.START;
#X obj 34 444 outlet TRIGGER;
#X connect 1 0 48 0;
#X connect 2 0 4 0;
#X connect 3 0 50 0;
#X connect 4 0 5 0;
#X connect 4 0 19 0;
#X connect 5 0 45 0;
#X connect 5 1 45 1;
#X connect 6 0 40 1;
#X connect 7 0 8 0;
#X connect 8 0 38 1;
#X connect 12 0 21 0;
#X connect 13 0 22 0;
#X connect 14 0 23 0;
#X connect 15 0 16 0;
#X connect 15 0 65 0;
#X connect 17 0 7 0;
#X connect 17 0 42 0;
#X connect 24 0 48 0;
#X connect 25 0 4 0;
#X connect 26 0 50 0;
#X connect 27 0 7 0;
#X connect 27 0 28 0;
#X connect 27 0 42 0;
#X connect 29 0 33 0;
#X connect 30 0 34 0;
#X connect 31 0 35 0;
#X connect 32 0 36 0;
#X connect 33 0 12 0;
#X connect 34 0 13 0;
#X connect 35 0 14 0;
#X connect 36 0 15 0;
#X connect 37 0 38 1;
#X connect 38 0 37 0;
#X connect 38 0 10 0;
#X connect 38 0 62 0;
#X connect 39 0 9 0;
#X connect 39 0 63 0;
#X connect 39 1 38 0;
#X connect 40 0 39 0;
#X connect 41 0 39 0;
#X connect 41 1 40 0;
#X connect 42 0 41 0;
#X connect 43 0 42 1;
#X connect 43 1 6 0;
#X connect 44 0 6 0;
#X connect 44 1 6 1;
#X connect 45 0 43 0;
#X connect 46 0 45 0;
#X connect 47 0 46 0;
#X connect 47 1 46 1;
#X connect 48 0 18 0;
#X connect 48 0 47 0;
#X connect 49 0 51 0;
#X connect 50 0 49 0;
#X connect 50 0 20 0;
#X connect 51 0 44 0;
#X connect 52 0 48 0;
#X connect 52 1 4 0;
#X connect 52 2 50 0;
#X connect 54 0 57 0;
#X connect 55 0 58 0;
#X connect 56 0 52 0;
#X connect 57 0 13 0;
#X connect 58 0 14 0;
#X connect 59 0 60 0;
#X connect 60 0 12 0;
#X connect 64 0 15 0;
#X coords 0 -1 1 1 33 70 2 100 100;
