#N canvas 12 124 1076 527 10;
#X obj 4 245 inlet~;
#X text -144 167 as soon as the file is ready to be written a _start_
message is sent to [writesf~] and a bang to the [delay] which waits
for a period given by the first argument before stopping [writesf~]
>>>;
#X obj 248 421 writesf~ 2;
#X obj 55 246 inlet~;
#X text 383 423 << the argument 2 means it will record a two channels
file (stereo).;
#X obj 383 54 + 1;
#X msg 299 353 start;
#X msg 248 354 stop;
#X obj 694 233 outlet number written;
#X text 606 69 << each bang here increment a counter and the value
of this is appended to the current file name using [makefilename] which
can substitute numerical values into a string like the C _printf_ statement
does.;
#X obj 248 -56 inlet toggle;
#X obj 248 -29 route 0 1;
#X obj 299 13 t b b;
#X floatatom 350 10 5 0 0 0 - - -;
#X msg 369 381 stop \, open -bytes 3 \$1;
#X obj 545 -10 path.getdir.parent;
#X obj 477 -65 loadbang;
#X obj 500 91 mergefilename /;
#X obj 500 43 pack s s;
#X obj 477 -40 t b b;
#X obj 477 8 symbol \$1;
#X msg 500 66 \$2 \$1;
#X obj 467 123 symbol;
#X obj 350 79 t f f b;
#X obj 369 357 mergefilename /;
#X obj 369 309 pack s s;
#X msg 369 332 \$2 \$1;
#X obj 467 152 makefilename %s;
#X text 568 17 << takes the 1st argument given in the abstraction to
write the file into the right folder;
#N canvas 1114 179 450 300 timestamp 0;
#X obj 186 71 time;
#X obj 186 118 mergefilename .;
#X obj 186 96 pack f f f;
#X obj 63 121 mergefilename .;
#X obj 63 99 pack f f f;
#X obj 63 74 date;
#X obj 63 159 pack s s;
#X obj 63 181 mergefilename _;
#X obj 63 207 outlet;
#X obj 63 19 inlet;
#X obj 63 45 t b b;
#X connect 0 0 2 0;
#X connect 0 1 2 1;
#X connect 0 2 2 2;
#X connect 1 0 6 1;
#X connect 2 0 1 0;
#X connect 3 0 6 0;
#X connect 4 0 3 0;
#X connect 5 0 4 0;
#X connect 5 1 4 1;
#X connect 5 2 4 2;
#X connect 6 0 7 0;
#X connect 7 0 8 0;
#X connect 9 0 10 0;
#X connect 10 0 5 0;
#X connect 10 1 0 0;
#X restore 414 177 pd timestamp;
#X obj 369 127 t f b;
#X obj 369 202 pack s s;
#X obj 369 155 makefilename %d;
#X obj 369 250 mergefilename _;
#X obj 369 287 makefilename take_%s.wav;
#X obj 350 53 f 1;
#X connect 0 0 2 0;
#X connect 3 0 2 1;
#X connect 5 0 35 1;
#X connect 6 0 2 0;
#X connect 7 0 2 0;
#X connect 10 0 11 0;
#X connect 11 0 7 0;
#X connect 11 1 12 0;
#X connect 12 0 6 0;
#X connect 12 1 35 0;
#X connect 13 0 35 0;
#X connect 14 0 2 0;
#X connect 15 0 18 1;
#X connect 16 0 19 0;
#X connect 17 0 22 1;
#X connect 18 0 21 0;
#X connect 19 0 20 0;
#X connect 19 1 15 0;
#X connect 20 0 18 0;
#X connect 21 0 17 0;
#X connect 22 0 27 0;
#X connect 23 0 8 0;
#X connect 23 1 30 0;
#X connect 23 2 22 0;
#X connect 24 0 14 0;
#X connect 25 0 26 0;
#X connect 26 0 24 0;
#X connect 27 0 25 1;
#X connect 29 0 31 1;
#X connect 30 0 32 0;
#X connect 30 1 29 0;
#X connect 31 0 33 0;
#X connect 32 0 31 0;
#X connect 33 0 34 0;
#X connect 34 0 25 0;
#X connect 35 0 5 0;
#X connect 35 0 23 0;
