#N canvas 161 278 450 300 10;
#X obj 103 100 hsl 56 20 0 127 0 0 dfsdfsfsdfs fadsfsdafasfs Audio.OFF
3 10 1 8 -66577 -66577 -233017 0 1;
#X obj 178 234 outlet;
#X obj 271 71 xsssad \$1/switch~;
#N canvas 620 484 372 260 bypass.button 0;
#X obj 45 15 inlet;
#X obj 45 37 t b;
#X obj 45 59 tgl 15 0 empty empty empty 17 7 0 10 -262144 -1 -1 1 1
;
#X obj 148 200 outlet;
#X obj 148 115 sel 0 1;
#X obj 90 33 init 0;
#X obj 45 199 outlet;
#X obj 138 34 inlet xsssad;
#X obj 45 82 t f f;
#X msg 148 171 color 10 10 22 \, label Audio.OFF;
#X msg 167 145 color 2 2 10 \, label Audio.ON;
#X connect 0 0 1 0;
#X connect 1 0 2 0;
#X connect 2 0 8 0;
#X connect 4 0 9 0;
#X connect 4 1 10 0;
#X connect 5 0 2 0;
#X connect 7 0 2 0;
#X connect 8 0 6 0;
#X connect 8 1 4 0;
#X connect 9 0 3 0;
#X connect 10 0 3 0;
#X restore 178 157 pd bypass.button;
#X obj 178 179 t f f;
#X connect 0 0 3 0;
#X connect 2 0 3 1;
#X connect 3 0 4 0;
#X connect 3 1 0 0;
#X connect 4 0 1 0;
#X connect 4 1 2 1;
#X coords 0 -1 1 1 61 20 2 100 100;
