#N canvas 106 332 507 321 10;
#X text 230 79 ARGUMENT;
#X text 234 216 OUTLETS;
#X text 232 149 INLETS;
#X text 231 94 None;
#X text 233 181 Value 1 or 0 \, to open or to close;
#X obj 36 45 noise~;
#X obj 38 118 *~ 0.5;
#X text 231 45 An audio spigot \, or gate for stereo signals.;
#X obj 37 84 utils.spigot.stereo~;
#X obj 95 46 osc~ 500;
#X obj 153 120 *~ 0.5;
#X obj 37 166 dac~ 1 2;
#X text 235 231 Audio stereo signal;
#X text 232 165 Audio stereo signal;
#X obj 154 47 tgl 15 0 empty empty empty 17 7 0 10 -262144 -1 -1 0
1;
#X connect 5 0 8 0;
#X connect 6 0 11 0;
#X connect 8 0 6 0;
#X connect 8 1 10 0;
#X connect 9 0 8 1;
#X connect 10 0 11 1;
#X connect 14 0 8 2;
