#N canvas 497 406 751 436 10;
#X obj 167 182 inlet fx-amount;
#X obj 50 31 gemhead -1;
#X obj 50 70 t b a;
#X obj 50 190 alpha;
#X obj 50 214 colorRGB 1 1 1 0.888;
#X obj 191 84 f \$1;
#X obj 191 23 loadbang;
#X obj 191 111 pack f f;
#X obj 653 230 inlet w;
#X obj 709 231 inlet h;
#X obj 236 84 f \$2;
#X obj 50 254 translateXYZ 0 0 0;
#X obj 50 152 pix_snap2tex 0 0 600 600;
#X obj 50 348 rectangle 4 4;
#X obj 362 94 f \$3;
#X obj 191 44 t b b b b;
#X obj 400 94 f \$4;
#X obj 488 44 inlet size;
#X obj 562 43 inlet translate;
#X obj 562 69 unpack f f;
#X obj 379 21 inlet offset;
#X obj 50 5 tgl 15 0 empty no-blur empty 17 7 0 10 -262144 -1 -1 0
1;
#X msg 138 180 0;
#X msg 109 179 0;
#X connect 0 0 4 4;
#X connect 1 0 2 0;
#X connect 2 0 12 0;
#X connect 2 1 12 0;
#X connect 3 0 4 0;
#X connect 4 0 11 0;
#X connect 5 0 7 0;
#X connect 6 0 15 0;
#X connect 7 0 12 2;
#X connect 8 0 13 1;
#X connect 9 0 13 2;
#X connect 10 0 7 1;
#X connect 11 0 13 0;
#X connect 12 0 3 0;
#X connect 14 0 13 1;
#X connect 15 0 5 0;
#X connect 15 1 10 0;
#X connect 15 2 14 0;
#X connect 15 3 16 0;
#X connect 16 0 13 2;
#X connect 17 0 12 2;
#X connect 18 0 19 0;
#X connect 19 0 11 1;
#X connect 19 1 11 2;
#X connect 20 0 12 1;
#X connect 21 0 1 0;
#X connect 22 0 4 3;
#X connect 23 0 4 2;
