#N canvas 289 145 1041 589 10;
#X text 180 1017 Hint: get creative with the [OSCroute] external!;
#X obj 118 202 r \$0-load;
#X text 518 131 This abstraction and all the other sssad state saving
stuff is due to the genius of Frank Barknecht. Any mistakes are purely
my own.;
#X text 184 204 if the load button is pressed;
#X obj 577 734 route persist;
#X obj 577 704 list trim;
#X obj 577 790 list trim;
#X msg 219 548 save;
#X msg 254 792 set \, addsemi;
#X obj 192 495 r \$0-save;
#X msg 550 343 set \, addsemi;
#X obj 158 313 float;
#X obj 219 571 t b a b b b b b;
#X text 482 944 <- This will change once Pd 0.4 gets popular!;
#X obj 490 391 f;
#X msg 364 616 clear;
#N canvas 9 77 826 516 patch_send 1;
#X msg 364 176 set \, addsemi;
#X obj 86 21 inlet;
#X obj 56 68 t b a b b;
#X obj 407 33 inlet;
#X obj 114 233 list prepend add2;
#X obj 130 271 list trim;
#X obj 139 181 makefilename pd-%s;
#X obj 139 133 f 0;
#X msg 163 204 add2 \$1;
#X msg 87 408 \; pd-autostore0 connect 0 0 1 0;
#X obj 139 157 makefilename autostore%d;
#X connect 0 0 9 0;
#X connect 1 0 2 0;
#X connect 2 0 9 0;
#X connect 2 1 4 0;
#X connect 2 2 7 0;
#X connect 2 3 0 0;
#X connect 3 0 7 1;
#X connect 4 0 5 0;
#X connect 5 0 9 0;
#X connect 6 0 8 0;
#X connect 7 0 10 0;
#X connect 8 0 9 0;
#X connect 10 0 6 0;
#X restore 306 755 pd patch_send;
#N canvas 24 93 826 516 msg_data 0;
#X msg 364 176 set \, addsemi;
#X obj 143 136 float;
#X obj 86 21 inlet;
#X obj 56 68 t b a b b;
#X obj 407 33 inlet;
#X obj 114 233 list prepend add2;
#X obj 113 266 list trim;
#X msg 145 192 add2 \$1;
#X obj 145 168 makefilename autostore%d;
#X msg 86 408 \; autostore0 add SSSAD-AUTO_ADMIN set;
#X connect 0 0 9 0;
#X connect 1 0 8 0;
#X connect 2 0 3 0;
#X connect 3 0 9 0;
#X connect 3 1 5 0;
#X connect 3 2 1 0;
#X connect 3 3 0 0;
#X connect 4 0 1 1;
#X connect 5 0 6 0;
#X connect 6 0 9 0;
#X connect 7 0 9 0;
#X connect 8 0 7 0;
#X restore 396 944 pd msg_data;
#X obj 303 618 float;
#X msg 281 707 msg 10 30 \, connect 0 0 1 0;
#X msg 306 669 obj 10 10 r \$1;
#X obj 148 629 bng 15 250 50 0 empty empty empty 0 -6 0 8 -262144 -1
-1;
#X msg 158 363 add2 \$1 bang;
#X obj 414 192 hradio 15 1 0 4 empty empty empty 0 -8 0 10 -262144
-1 -1 0;
#X obj 414 207 hradio 15 1 0 4 empty empty empty 0 -8 0 10 -262144
-1 -1 0;
#X obj 414 228 + 4;
#X floatatom 527 440 5 0 0 0 - - -;
#X obj 100 100 cnv 15 180 15 empty empty MixAuto 2 8 0 8 -191407 -33289
0;
#X obj 103 34 inlet;
#X obj 103 62 t b f;
#X obj 177 100 hradio 15 1 0 2 empty empty Load 3 8 0 8 -1 -1 -191407
0;
#X obj 208 100 bng 15 250 50 0 \$0-load empty empty 17 7 0 8 -128992
-1 -1;
#X obj 223 100 hradio 15 1 0 3 empty empty Save 8 8 0 8 -1 -1 -191407
0;
#X obj 265 100 bng 15 250 50 0 \$0-save empty empty 17 7 0 8 -260097
-66577 -1;
#X obj 141 100 gui.nbx;
#X text 381 65 A GUI wrap of [nbx] number box.;
#X obj 154 36 init 0;
#X obj 192 518 t b b;
#X obj 118 235 t b b b b;
#X obj 158 339 makefilename autostore%d;
#X msg 118 410 \; autostore0 bang;
#X obj 100 548 s auto.preset.save;
#X obj 367 588 s SSSAD-AUTO_SAVE;
#X obj 306 642 makefilename autostore%d;
#X obj 232 832 s SSSAD-AUTO_ADMIN;
#X msg 210 860 add SSSAD-AUTO_ADMIN set;
#X obj 577 679 r SSSAD-auto_ADMIN;
#X obj 577 766 list prepend add SSSAD-AUTO;
#X obj 222 289 s auto.preset.load;
#X connect 1 0 38 0;
#X connect 4 0 47 0;
#X connect 5 0 4 0;
#X connect 6 0 17 0;
#X connect 7 0 12 0;
#X connect 8 0 17 0;
#X connect 9 0 37 0;
#X connect 10 0 40 0;
#X connect 11 0 39 0;
#X connect 12 0 45 0;
#X connect 12 1 44 0;
#X connect 12 2 8 0;
#X connect 12 3 19 0;
#X connect 12 4 18 0;
#X connect 12 5 15 0;
#X connect 12 6 42 0;
#X connect 14 0 11 1;
#X connect 14 0 17 1;
#X connect 14 0 16 1;
#X connect 14 0 18 1;
#X connect 14 0 26 0;
#X connect 15 0 16 0;
#X connect 18 0 43 0;
#X connect 19 0 16 0;
#X connect 20 0 16 0;
#X connect 21 0 18 0;
#X connect 22 0 40 0;
#X connect 24 0 25 0;
#X connect 28 0 29 0;
#X connect 29 0 31 0;
#X connect 29 1 34 0;
#X connect 34 0 14 0;
#X connect 36 0 34 0;
#X connect 37 0 41 0;
#X connect 37 1 7 0;
#X connect 38 0 40 0;
#X connect 38 1 11 0;
#X connect 38 2 10 0;
#X connect 38 3 48 0;
#X connect 39 0 22 0;
#X connect 43 0 20 0;
#X connect 45 0 17 0;
#X connect 46 0 5 0;
#X connect 47 0 6 0;
#X coords 0 -1 1 1 180 15 2 100 100;
