#N canvas 541 47 912 616 10;
#X text 80 1017 Hint: get creative with the [OSCroute] external!;
#X obj 18 202 r \$0-load;
#X text 418 131 This abstraction and all the other sssad state saving
stuff is due to the genius of Frank Barknecht. Any mistakes are purely
my own.;
#X text 84 204 if the load button is pressed;
#X obj 477 679 r SSSAD_ADMIN;
#X obj 477 734 route persist;
#X obj 477 704 list trim;
#X obj 477 790 list trim;
#X msg 119 548 save;
#X obj 132 832 s SSSAD_ADMIN;
#X obj 477 766 list prepend add SSSAD;
#X msg 154 792 set \, addsemi;
#X msg 110 860 add SSSAD_ADMIN set;
#X obj 119 524 r \$0-save;
#X obj 267 588 s SSSAD_SAVE;
#X msg 450 291 set \, addsemi;
#X obj 18 235 t b b b;
#X obj 58 261 float;
#X obj 119 571 t b a b b b b b;
#X obj 58 287 makefilename presetstore%d;
#X text 382 944 <- This will change once Pd 0.4 gets popular!;
#X obj 390 391 f;
#X msg 264 616 clear;
#N canvas 0 0 826 516 patch_send 0;
#X msg 364 176 set \, addsemi;
#X msg 87 408 \; pd-presetstore2 connect 0 0 1 0;
#X obj 86 21 inlet;
#X obj 56 68 t b a b b;
#X obj 407 33 inlet;
#X obj 114 233 list prepend add2;
#X obj 130 271 list trim;
#X obj 139 157 makefilename presetstore%d;
#X obj 139 181 makefilename pd-%s;
#X obj 139 133 f 0;
#X msg 163 204 add2 \$1;
#X connect 0 0 1 0;
#X connect 2 0 3 0;
#X connect 3 0 1 0;
#X connect 3 1 5 0;
#X connect 3 2 9 0;
#X connect 3 3 0 0;
#X connect 4 0 9 1;
#X connect 5 0 6 0;
#X connect 6 0 1 0;
#X connect 7 0 8 0;
#X connect 8 0 10 0;
#X connect 9 0 7 0;
#X connect 10 0 1 0;
#X restore 206 755 pd patch_send;
#N canvas 6 47 826 516 msg_data 0;
#X msg 364 176 set \, addsemi;
#X msg 87 408 \; presetstore2 add SSSAD_ADMIN set;
#X obj 143 136 float;
#X obj 145 168 makefilename presetstore%d;
#X obj 86 21 inlet;
#X obj 56 68 t b a b b;
#X obj 407 33 inlet;
#X obj 114 233 list prepend add2;
#X obj 113 266 list trim;
#X msg 145 192 add2 \$1;
#X connect 0 0 1 0;
#X connect 2 0 3 0;
#X connect 3 0 9 0;
#X connect 4 0 5 0;
#X connect 5 0 1 0;
#X connect 5 1 7 0;
#X connect 5 2 2 0;
#X connect 5 3 0 0;
#X connect 6 0 2 1;
#X connect 7 0 8 0;
#X connect 8 0 1 0;
#X connect 9 0 1 0;
#X restore 296 944 pd msg_data;
#X obj 203 618 float;
#X obj 206 644 makefilename presetstore%d;
#X msg 181 707 msg 10 30 \, connect 0 0 1 0;
#X msg 206 669 obj 10 10 r \$1;
#X obj 48 629 bng 15 250 50 0 empty empty empty 0 -6 0 8 -262144 -1
-1;
#X msg 18 358 \; presetstore10 bang;
#X msg 58 311 add2 \$1 bang;
#X obj 314 192 hradio 15 1 0 4 empty empty empty 0 -8 0 10 -262144
-1 -1 0;
#X obj 314 207 hradio 15 1 0 4 empty empty empty 0 -8 0 10 -262144
-1 -1 0;
#X obj 314 228 + 4;
#X floatatom 427 440 5 0 0 0 - - -;
#X obj 14 -31 inlet;
#X obj 14 22 t b f;
#X obj 14 -4 change;
#X obj 0 100 cnv 15 180 15 empty empty Scene 2 8 0 8 -191407 -33289
0;
#X obj 76 100 hradio 15 1 0 2 empty empty Load 3 8 0 8 -1 -1 -191407
0;
#X obj 107 100 bng 15 250 50 0 empty empty empty 17 7 0 8 -128992 -1
-1;
#X obj 123 100 hradio 15 1 0 3 empty empty Save 8 8 0 8 -1 -1 -191407
0;
#X obj 165 100 bng 15 250 50 0 \$0-save empty empty 17 7 0 8 -260097
-66577 -1;
#X obj 156 166 f;
#X obj 157 242 s SCENE.LOAD;
#X obj 41 100 gui.nbx;
#X text 306 58 A GUI wrap of [nbx] number box.;
#X obj 73 -1 init 0;
#X obj 156 119 t b b;
#X obj 244 223 s \$0-load;
#X obj 205 187 t f b;
#X obj 243 175 bng 15 250 50 0 empty empty empty 17 7 0 10 -262144
-1 -1;
#X obj 211 140 s bypass-main-out;
#X obj 156 140 del 300;
#X connect 1 0 16 0;
#X connect 4 0 6 0;
#X connect 5 0 10 0;
#X connect 6 0 5 0;
#X connect 7 0 24 0;
#X connect 8 0 18 0;
#X connect 10 0 7 0;
#X connect 11 0 24 0;
#X connect 12 0 24 0;
#X connect 13 0 8 0;
#X connect 15 0 30 0;
#X connect 16 0 30 0;
#X connect 16 1 17 0;
#X connect 16 2 15 0;
#X connect 17 0 19 0;
#X connect 18 0 12 0;
#X connect 18 1 9 0;
#X connect 18 2 11 0;
#X connect 18 3 27 0;
#X connect 18 4 25 0;
#X connect 18 5 22 0;
#X connect 18 6 14 0;
#X connect 19 0 31 0;
#X connect 21 0 17 1;
#X connect 21 0 24 1;
#X connect 21 0 23 1;
#X connect 21 0 25 1;
#X connect 21 0 35 0;
#X connect 22 0 23 0;
#X connect 25 0 26 0;
#X connect 26 0 28 0;
#X connect 27 0 23 0;
#X connect 28 0 23 0;
#X connect 29 0 25 0;
#X connect 31 0 30 0;
#X connect 33 0 34 0;
#X connect 36 0 38 0;
#X connect 37 0 41 0;
#X connect 37 1 46 0;
#X connect 38 0 37 0;
#X connect 41 0 49 0;
#X connect 44 0 51 0;
#X connect 46 0 44 1;
#X connect 46 0 21 0;
#X connect 48 0 46 0;
#X connect 49 0 54 0;
#X connect 49 1 52 0;
#X connect 49 1 53 0;
#X connect 51 0 45 0;
#X connect 51 1 50 0;
#X connect 54 0 44 0;
#X coords 0 -1 1 1 180 15 2 0 100;
